<svg version="1.1" viewBox="0.0 0.0 960.0 300.0" fill="none" stroke="none" stroke-linecap="square" stroke-miterlimit="10" xmlns:xlink="http://www.w3.org/1999/xlink" xmlns="http://www.w3.org/2000/svg"><clipPath id="g3be707cadce_0_0.0"><path d="m0 0l960.0 0l0 300.0l-960.0 0l0 -300.0z" clip-rule="nonzero"/></clipPath><g clip-path="url(#g3be707cadce_0_0.0)"><path fill="#ffffff" d="m0 0l960.0 0l0 300.0l-960.0 0z" fill-rule="evenodd"/><path fill="#ebebdc" d="m175.76393 -0.12394042l16.692917 0l0 16.692913l-16.692917 0z" fill-rule="evenodd"/><path fill="#ebebdc" d="m195.9572 -0.12394042l16.692917 0l0 16.692913l-16.692917 0z" fill-rule="evenodd"/><path fill="#ebebdc" d="m216.15047 -0.12394042l16.692902 0l0 16.692913l-16.692902 0z" fill-rule="evenodd"/><path fill="#ebebdc" d="m236.34372 -0.12394042l16.692917 0l0 16.692913l-16.692917 0z" fill-rule="evenodd"/><path fill="#ebebdc" d="m256.53577 -0.12394042l16.692902 0l0 16.692913l-16.692902 0z" fill-rule="evenodd"/><path fill="#ebebdc" d="m276.72903 -0.12394042l16.692902 0l0 16.692913l-16.692902 0z" fill-rule="evenodd"/><path fill="#ebebdc" d="m296.9223 -0.12394042l16.692902 0l0 16.692913l-16.692902 0z" fill-rule="evenodd"/><path fill="#ebebdc" d="m317.11557 -0.12394042l16.692902 0l0 16.692913l-16.692902 0z" fill-rule="evenodd"/><path fill="#ebebdc" d="m175.76393 19.93813l16.692917 0l0 16.692913l-16.692917 0z" fill-rule="evenodd"/><path fill="#ebebdc" d="m195.9572 19.93813l16.692917 0l0 16.692913l-16.692917 0z" fill-rule="evenodd"/><path fill="#ebebdc" d="m216.15047 19.93813l16.692902 0l0 16.692913l-16.692902 0z" fill-rule="evenodd"/><path fill="#ebebdc" d="m236.34372 19.93813l16.692917 0l0 16.692913l-16.692917 0z" fill-rule="evenodd"/><path fill="#ebebdc" d="m256.53577 19.93813l16.692902 0l0 16.692913l-16.692902 0z" fill-rule="evenodd"/><path fill="#ebebdc" d="m276.72903 19.93813l16.692902 0l0 16.692913l-16.692902 0z" fill-rule="evenodd"/><path fill="#ebebdc" d="m296.9223 19.93813l16.692902 0l0 16.692913l-16.692902 0z" fill-rule="evenodd"/><path fill="#ebebdc" d="m317.11557 19.93813l16.692902 0l0 16.692913l-16.692902 0z" fill-rule="evenodd"/><path fill="#ebebdc" d="m337.30762 -0.12394042l16.692902 0l0 16.692913l-16.692902 0z" fill-rule="evenodd"/><path fill="#ebebdc" d="m357.50085 -0.12394042l16.692932 0l0 16.692913l-16.692932 0z" fill-rule="evenodd"/><path fill="#ebebdc" d="m377.69412 -0.12394042l16.692932 0l0 16.692913l-16.692932 0z" fill-rule="evenodd"/><path fill="#ebebdc" d="m397.8874 -0.12394042l16.692932 0l0 16.692913l-16.692932 0z" fill-rule="evenodd"/><path fill="#ebebdc" d="m418.07944 -0.12394042l16.692902 0l0 16.692913l-16.692902 0z" fill-rule="evenodd"/><path fill="#ebebdc" d="m438.2727 -0.12394042l16.692902 0l0 16.692913l-16.692902 0z" fill-rule="evenodd"/><path fill="#ebebdc" d="m458.46597 -0.12394042l16.692902 0l0 16.692913l-16.692902 0z" fill-rule="evenodd"/><path fill="#ebebdc" d="m478.65924 -0.12394042l16.692902 0l0 16.692913l-16.692902 0z" fill-rule="evenodd"/><path fill="#ebebdc" d="m337.30762 19.93813l16.692902 0l0 16.692913l-16.692902 0z" fill-rule="evenodd"/><path fill="#ebebdc" d="m357.50085 19.93813l16.692932 0l0 16.692913l-16.692932 0z" fill-rule="evenodd"/><path fill="#47402e" d="m377.69412 19.93813l16.692932 0l0 16.692913l-16.692932 0z" fill-rule="evenodd"/><path fill="#927b67" d="m397.8874 19.93813l16.692932 0l0 16.692913l-16.692932 0z" fill-rule="evenodd"/><path fill="#ebebdc" d="m418.07944 19.93813l16.692902 0l0 16.692913l-16.692902 0z" fill-rule="evenodd"/><path fill="#ebebdc" d="m438.2727 19.93813l16.692902 0l0 16.692913l-16.692902 0z" fill-rule="evenodd"/><path fill="#ebebdc" d="m458.46597 19.93813l16.692902 0l0 16.692913l-16.692902 0z" fill-rule="evenodd"/><path fill="#ebebdc" d="m478.65924 19.93813l16.692902 0l0 16.692913l-16.692902 0z" fill-rule="evenodd"/><path fill="#ebebdc" d="m175.76393 40.391598l16.692917 0l0 16.692913l-16.692917 0z" fill-rule="evenodd"/><path fill="#ebebdc" d="m195.9572 40.391598l16.692917 0l0 16.692913l-16.692917 0z" fill-rule="evenodd"/><path fill="#ebebdc" d="m216.15047 40.391598l16.692902 0l0 16.692913l-16.692902 0z" fill-rule="evenodd"/><path fill="#ebebdc" d="m236.34372 40.391598l16.692917 0l0 16.692913l-16.692917 0z" fill-rule="evenodd"/><path fill="#ebebdc" d="m256.53577 40.391598l16.692902 0l0 16.692913l-16.692902 0z" fill-rule="evenodd"/><path fill="#ebebdc" d="m276.72903 40.391598l16.692902 0l0 16.692913l-16.692902 0z" fill-rule="evenodd"/><path fill="#ebebdc" d="m296.9223 40.391598l16.692902 0l0 16.692913l-16.692902 0z" fill-rule="evenodd"/><path fill="#927b67" d="m317.11557 40.391598l16.692902 0l0 16.692913l-16.692902 0z" fill-rule="evenodd"/><path fill="#ebebdc" d="m175.76393 60.453667l16.692917 0l0 16.692917l-16.692917 0z" fill-rule="evenodd"/><path fill="#ebebdc" d="m195.9572 60.453667l16.692917 0l0 16.692917l-16.692917 0z" fill-rule="evenodd"/><path fill="#ebebdc" d="m216.15047 60.453667l16.692902 0l0 16.692917l-16.692902 0z" fill-rule="evenodd"/><path fill="#ebebdc" d="m236.34372 60.453667l16.692917 0l0 16.692917l-16.692917 0z" fill-rule="evenodd"/><path fill="#ed8171" d="m256.53577 60.453667l16.692902 0l0 16.692917l-16.692902 0z" fill-rule="evenodd"/><path fill="#75151e" d="m276.72903 60.453667l16.692902 0l0 16.692917l-16.692902 0z" fill-rule="evenodd"/><path fill="#ebebdc" d="m296.9223 60.453667l16.692902 0l0 16.692917l-16.692902 0z" fill-rule="evenodd"/><path fill="#47402e" d="m317.11557 60.453667l16.692902 0l0 16.692917l-16.692902 0z" fill-rule="evenodd"/><path fill="#ebebdc" d="m337.30762 40.391598l16.692902 0l0 16.692913l-16.692902 0z" fill-rule="evenodd"/><path fill="#ebebdc" d="m357.50085 40.391598l16.692932 0l0 16.692913l-16.692932 0z" fill-rule="evenodd"/><path fill="#ebebdc" d="m377.69412 40.391598l16.692932 0l0 16.692913l-16.692932 0z" fill-rule="evenodd"/><path fill="#47402e" d="m397.8874 40.391598l16.692932 0l0 16.692913l-16.692932 0z" fill-rule="evenodd"/><path fill="#ebebdc" d="m418.07944 40.391598l16.692902 0l0 16.692913l-16.692902 0z" fill-rule="evenodd"/><path fill="#ebebdc" d="m438.2727 40.391598l16.692902 0l0 16.692913l-16.692902 0z" fill-rule="evenodd"/><path fill="#ebebdc" d="m458.46597 40.391598l16.692902 0l0 16.692913l-16.692902 0z" fill-rule="evenodd"/><path fill="#ebebdc" d="m478.65924 40.391598l16.692902 0l0 16.692913l-16.692902 0z" fill-rule="evenodd"/><path fill="#ebebdc" d="m337.30762 60.453667l16.692902 0l0 16.692917l-16.692902 0z" fill-rule="evenodd"/><path fill="#ebebdc" d="m357.50085 60.453667l16.692932 0l0 16.692917l-16.692932 0z" fill-rule="evenodd"/><path fill="#ebebdc" d="m377.69412 60.453667l16.692932 0l0 16.692917l-16.692932 0z" fill-rule="evenodd"/><path fill="#ebebdc" d="m397.8874 60.453667l16.692932 0l0 16.692917l-16.692932 0z" fill-rule="evenodd"/><path fill="#47402e" d="m418.07944 60.453667l16.692902 0l0 16.692917l-16.692902 0z" fill-rule="evenodd"/><path fill="#927b67" d="m438.2727 60.453667l16.692902 0l0 16.692917l-16.692902 0z" fill-rule="evenodd"/><path fill="#ebebdc" d="m458.46597 60.453667l16.692902 0l0 16.692917l-16.692902 0z" fill-rule="evenodd"/><path fill="#ebebdc" d="m478.65924 60.453667l16.692902 0l0 16.692917l-16.692902 0z" fill-rule="evenodd"/><path fill="#ebebdc" d="m175.76393 80.36894l16.692917 0l0 16.69291l-16.692917 0z" fill-rule="evenodd"/><path fill="#ebebdc" d="m195.9572 80.36894l16.692917 0l0 16.69291l-16.692917 0z" fill-rule="evenodd"/><path fill="#ebebdc" d="m216.15047 80.36894l16.692902 0l0 16.69291l-16.692902 0z" fill-rule="evenodd"/><path fill="#ebebdc" d="m236.34372 80.36894l16.692917 0l0 16.69291l-16.692917 0z" fill-rule="evenodd"/><path fill="#ed8171" d="m256.53577 80.36894l16.692902 0l0 16.69291l-16.692902 0z" fill-rule="evenodd"/><path fill="#927b67" d="m276.72903 80.36894l16.692902 0l0 16.69291l-16.692902 0z" fill-rule="evenodd"/><path fill="#ebebdc" d="m296.9223 80.36894l16.692902 0l0 16.69291l-16.692902 0z" fill-rule="evenodd"/><path fill="#ebebdc" d="m317.11557 80.36894l16.692902 0l0 16.69291l-16.692902 0z" fill-rule="evenodd"/><path fill="#ebebdc" d="m175.76393 100.43101l16.692917 0l0 16.692917l-16.692917 0z" fill-rule="evenodd"/><path fill="#ebebdc" d="m195.9572 100.43101l16.692917 0l0 16.692917l-16.692917 0z" fill-rule="evenodd"/><path fill="#ebebdc" d="m216.15047 100.43101l16.692902 0l0 16.692917l-16.692902 0z" fill-rule="evenodd"/><path fill="#ebebdc" d="m236.34372 100.43101l16.692917 0l0 16.692917l-16.692917 0z" fill-rule="evenodd"/><path fill="#ebebdc" d="m256.53577 100.43101l16.692902 0l0 16.692917l-16.692902 0z" fill-rule="evenodd"/><path fill="#ebebdc" d="m276.72903 100.43101l16.692902 0l0 16.692917l-16.692902 0z" fill-rule="evenodd"/><path fill="#47402e" d="m296.9223 100.43101l16.692902 0l0 16.692917l-16.692902 0z" fill-rule="evenodd"/><path fill="#ebebdc" d="m317.11557 100.43101l16.692902 0l0 16.692917l-16.692902 0z" fill-rule="evenodd"/><path fill="#47402e" d="m337.30762 80.36894l16.692902 0l0 16.69291l-16.692902 0z" fill-rule="evenodd"/><path fill="#ebebdc" d="m357.50085 80.36894l16.692932 0l0 16.69291l-16.692932 0z" fill-rule="evenodd"/><path fill="#ebebdc" d="m377.69412 80.36894l16.692932 0l0 16.69291l-16.692932 0z" fill-rule="evenodd"/><path fill="#ebebdc" d="m397.8874 80.36894l16.692932 0l0 16.69291l-16.692932 0z" fill-rule="evenodd"/><path fill="#ebebdc" d="m418.07944 80.36894l16.692902 0l0 16.69291l-16.692902 0z" fill-rule="evenodd"/><path fill="#47402e" d="m438.2727 80.36894l16.692902 0l0 16.69291l-16.692902 0z" fill-rule="evenodd"/><path fill="#47402e" d="m458.46597 80.36894l16.692902 0l0 16.69291l-16.692902 0z" fill-rule="evenodd"/><path fill="#47402e" d="m478.65924 80.36894l16.692902 0l0 16.69291l-16.692902 0z" fill-rule="evenodd"/><path fill="#ebebdc" d="m337.30762 100.43101l16.692902 0l0 16.692917l-16.692902 0z" fill-rule="evenodd"/><path fill="#47402e" d="m357.50085 100.43101l16.692932 0l0 16.692917l-16.692932 0z" fill-rule="evenodd"/><path fill="#67ca16" d="m377.69412 100.43101l16.692932 0l0 16.692917l-16.692932 0z" fill-rule="evenodd"/><path fill="#ebebdc" d="m397.8874 100.43101l16.692932 0l0 16.692917l-16.692932 0z" fill-rule="evenodd"/><path fill="#ebebdc" d="m418.07944 100.43101l16.692902 0l0 16.692917l-16.692902 0z" fill-rule="evenodd"/><path fill="#ebebdc" d="m438.2727 100.43101l16.692902 0l0 16.692917l-16.692902 0z" fill-rule="evenodd"/><path fill="#ebebdc" d="m458.46597 100.43101l16.692902 0l0 16.692917l-16.692902 0z" fill-rule="evenodd"/><path fill="#ebebdc" d="m478.65924 100.43101l16.692902 0l0 16.692917l-16.692902 0z" fill-rule="evenodd"/><path fill="#ebebdc" d="m175.76393 120.884476l16.692917 0l0 16.692917l-16.692917 0z" fill-rule="evenodd"/><path fill="#ebebdc" d="m195.9572 120.884476l16.692917 0l0 16.692917l-16.692917 0z" fill-rule="evenodd"/><path fill="#ebebdc" d="m216.15047 120.884476l16.692902 0l0 16.692917l-16.692902 0z" fill-rule="evenodd"/><path fill="#ebebdc" d="m236.34372 120.884476l16.692917 0l0 16.692917l-16.692917 0z" fill-rule="evenodd"/><path fill="#ebebdc" d="m256.53577 120.884476l16.692902 0l0 16.692917l-16.692902 0z" fill-rule="evenodd"/><path fill="#ebebdc" d="m276.72903 120.884476l16.692902 0l0 16.692917l-16.692902 0z" fill-rule="evenodd"/><path fill="#67ca16" d="m296.9223 120.884476l16.692902 0l0 16.692917l-16.692902 0z" fill-rule="evenodd"/><path fill="#75151e" d="m317.11557 120.884476l16.692902 0l0 16.692917l-16.692902 0z" fill-rule="evenodd"/><path fill="#ebebdc" d="m175.76393 140.94655l16.692917 0l0 16.692917l-16.692917 0z" fill-rule="evenodd"/><path fill="#ebebdc" d="m195.9572 140.94655l16.692917 0l0 16.692917l-16.692917 0z" fill-rule="evenodd"/><path fill="#ebebdc" d="m216.15047 140.94655l16.692902 0l0 16.692917l-16.692902 0z" fill-rule="evenodd"/><path fill="#ebebdc" d="m236.34372 140.94655l16.692917 0l0 16.692917l-16.692917 0z" fill-rule="evenodd"/><path fill="#ebebdc" d="m256.53577 140.94655l16.692902 0l0 16.692917l-16.692902 0z" fill-rule="evenodd"/><path fill="#ebebdc" d="m276.72903 140.94655l16.692902 0l0 16.692917l-16.692902 0z" fill-rule="evenodd"/><path fill="#eeeeee" d="m296.9223 140.94655l16.692902 0l0 16.692917l-16.692902 0z" fill-rule="evenodd"/><path fill="#eeeeee" d="m317.11557 140.94655l16.692902 0l0 16.692917l-16.692902 0z" fill-rule="evenodd"/><path fill="#ebebdc" d="m337.30762 120.884476l16.692902 0l0 16.692917l-16.692902 0z" fill-rule="evenodd"/><path fill="#ebebdc" d="m357.50085 120.884476l16.692932 0l0 16.692917l-16.692932 0z" fill-rule="evenodd"/><path fill="#47402e" d="m377.69412 120.884476l16.692932 0l0 16.692917l-16.692932 0z" fill-rule="evenodd"/><path fill="#ebebdc" d="m397.8874 120.884476l16.692932 0l0 16.692917l-16.692932 0z" fill-rule="evenodd"/><path fill="#ebebdc" d="m418.07944 120.884476l16.692902 0l0 16.692917l-16.692902 0z" fill-rule="evenodd"/><path fill="#ebebdc" d="m438.2727 120.884476l16.692902 0l0 16.692917l-16.692902 0z" fill-rule="evenodd"/><path fill="#ffd966" d="m458.46597 120.884476l16.692902 0l0 16.692917l-16.692902 0z" fill-rule="evenodd"/><path fill="#47402e" d="m478.65924 120.884476l16.692902 0l0 16.692917l-16.692902 0z" fill-rule="evenodd"/><path fill="#47402e" d="m337.30762 140.94655l16.692902 0l0 16.692917l-16.692902 0z" fill-rule="evenodd"/><path fill="#47402e" d="m357.50085 140.94655l16.692932 0l0 16.692917l-16.692932 0z" fill-rule="evenodd"/><path fill="#75151e" d="m377.69412 140.94655l16.692932 0l0 16.692917l-16.692932 0z" fill-rule="evenodd"/><path fill="#47402e" d="m397.8874 140.94655l16.692932 0l0 16.692917l-16.692932 0z" fill-rule="evenodd"/><path fill="#ebebdc" d="m418.07944 140.94655l16.692902 0l0 16.692917l-16.692902 0z" fill-rule="evenodd"/><path fill="#ebebdc" d="m438.2727 140.94655l16.692902 0l0 16.692917l-16.692902 0z" fill-rule="evenodd"/><path fill="#47402e" d="m458.46597 140.94655l16.692902 0l0 16.692917l-16.692902 0z" fill-rule="evenodd"/><path fill="#ebebdc" d="m478.65924 140.94655l16.692902 0l0 16.692917l-16.692902 0z" fill-rule="evenodd"/><path fill="#ebebdc" d="m175.76393 161.25269l16.692917 0l0 16.692917l-16.692917 0z" fill-rule="evenodd"/><path fill="#ebebdc" d="m195.9572 161.25269l16.692917 0l0 16.692917l-16.692917 0z" fill-rule="evenodd"/><path fill="#ebebdc" d="m216.15047 161.25269l16.692902 0l0 16.692917l-16.692902 0z" fill-rule="evenodd"/><path fill="#ebebdc" d="m236.34372 161.25269l16.692917 0l0 16.692917l-16.692917 0z" fill-rule="evenodd"/><path fill="#ebebdc" d="m256.53577 161.25269l16.692902 0l0 16.692917l-16.692902 0z" fill-rule="evenodd"/><path fill="#ebebdc" d="m276.72903 161.25269l16.692902 0l0 16.692917l-16.692902 0z" fill-rule="evenodd"/><path fill="#ebebdc" d="m296.9223 161.25269l16.692902 0l0 16.692917l-16.692902 0z" fill-rule="evenodd"/><path fill="#ebebdc" d="m317.11557 161.25269l16.692902 0l0 16.692917l-16.692902 0z" fill-rule="evenodd"/><path fill="#ebebdc" d="m175.76393 181.31476l16.692917 0l0 16.692902l-16.692917 0z" fill-rule="evenodd"/><path fill="#ebebdc" d="m195.9572 181.31476l16.692917 0l0 16.692902l-16.692917 0z" fill-rule="evenodd"/><path fill="#ebebdc" d="m216.15047 181.31476l16.692902 0l0 16.692902l-16.692902 0z" fill-rule="evenodd"/><path fill="#ebebdc" d="m236.34372 181.31476l16.692917 0l0 16.692902l-16.692917 0z" fill-rule="evenodd"/><path fill="#ebebdc" d="m256.53577 181.31476l16.692902 0l0 16.692902l-16.692902 0z" fill-rule="evenodd"/><path fill="#ebebdc" d="m276.72903 181.31476l16.692902 0l0 16.692902l-16.692902 0z" fill-rule="evenodd"/><path fill="#ebebdc" d="m296.9223 181.31476l16.692902 0l0 16.692902l-16.692902 0z" fill-rule="evenodd"/><path fill="#ebebdc" d="m317.11557 181.31476l16.692902 0l0 16.692902l-16.692902 0z" fill-rule="evenodd"/><path fill="#ebebdc" d="m337.30762 161.25269l16.692902 0l0 16.692917l-16.692902 0z" fill-rule="evenodd"/><path fill="#ebebdc" d="m357.50085 161.25269l16.692932 0l0 16.692917l-16.692932 0z" fill-rule="evenodd"/><path fill="#ebebdc" d="m377.69412 161.25269l16.692932 0l0 16.692917l-16.692932 0z" fill-rule="evenodd"/><path fill="#ebebdc" d="m397.8874 161.25269l16.692932 0l0 16.692917l-16.692932 0z" fill-rule="evenodd"/><path fill="#75151e" d="m418.07944 161.25269l16.692902 0l0 16.692917l-16.692902 0z" fill-rule="evenodd"/><path fill="#47402e" d="m438.2727 161.25269l16.692902 0l0 16.692917l-16.692902 0z" fill-rule="evenodd"/><path fill="#ebebdc" d="m458.46597 161.25269l16.692902 0l0 16.692917l-16.692902 0z" fill-rule="evenodd"/><path fill="#ebebdc" d="m478.65924 161.25269l16.692902 0l0 16.692917l-16.692902 0z" fill-rule="evenodd"/><path fill="#ebebdc" d="m337.30762 181.31476l16.692902 0l0 16.692902l-16.692902 0z" fill-rule="evenodd"/><path fill="#ebebdc" d="m357.50085 181.31476l16.692932 0l0 16.692902l-16.692932 0z" fill-rule="evenodd"/><path fill="#ebebdc" d="m377.69412 181.31476l16.692932 0l0 16.692902l-16.692932 0z" fill-rule="evenodd"/><path fill="#ebebdc" d="m397.8874 181.31476l16.692932 0l0 16.692902l-16.692932 0z" fill-rule="evenodd"/><path fill="#ebebdc" d="m418.07944 181.31476l16.692902 0l0 16.692902l-16.692902 0z" fill-rule="evenodd"/><path fill="#ebebdc" d="m438.2727 181.31476l16.692902 0l0 16.692902l-16.692902 0z" fill-rule="evenodd"/><path fill="#ebebdc" d="m458.46597 181.31476l16.692902 0l0 16.692902l-16.692902 0z" fill-rule="evenodd"/><path fill="#ebebdc" d="m478.65924 181.31476l16.692902 0l0 16.692902l-16.692902 0z" fill-rule="evenodd"/><path fill="#ebebdc" d="m175.76393 201.76822l16.692917 0l0 16.692917l-16.692917 0z" fill-rule="evenodd"/><path fill="#ebebdc" d="m195.9572 201.76822l16.692917 0l0 16.692917l-16.692917 0z" fill-rule="evenodd"/><path fill="#ebebdc" d="m216.15047 201.76822l16.692902 0l0 16.692917l-16.692902 0z" fill-rule="evenodd"/><path fill="#ebebdc" d="m236.34372 201.76822l16.692917 0l0 16.692917l-16.692917 0z" fill-rule="evenodd"/><path fill="#ebebdc" d="m256.53577 201.76822l16.692902 0l0 16.692917l-16.692902 0z" fill-rule="evenodd"/><path fill="#ebebdc" d="m276.72903 201.76822l16.692902 0l0 16.692917l-16.692902 0z" fill-rule="evenodd"/><path fill="#ebebdc" d="m296.9223 201.76822l16.692902 0l0 16.692917l-16.692902 0z" fill-rule="evenodd"/><path fill="#ebebdc" d="m317.11557 201.76822l16.692902 0l0 16.692917l-16.692902 0z" fill-rule="evenodd"/><path fill="#ebebdc" d="m175.76393 221.83029l16.692917 0l0 16.692917l-16.692917 0z" fill-rule="evenodd"/><path fill="#ebebdc" d="m195.9572 221.83029l16.692917 0l0 16.692917l-16.692917 0z" fill-rule="evenodd"/><path fill="#ebebdc" d="m216.15047 221.83029l16.692902 0l0 16.692917l-16.692902 0z" fill-rule="evenodd"/><path fill="#ebebdc" d="m236.34372 221.83029l16.692917 0l0 16.692917l-16.692917 0z" fill-rule="evenodd"/><path fill="#ebebdc" d="m256.53577 221.83029l16.692902 0l0 16.692917l-16.692902 0z" fill-rule="evenodd"/><path fill="#ebebdc" d="m276.72903 221.83029l16.692902 0l0 16.692917l-16.692902 0z" fill-rule="evenodd"/><path fill="#ebebdc" d="m296.9223 221.83029l16.692902 0l0 16.692917l-16.692902 0z" fill-rule="evenodd"/><path fill="#ebebdc" d="m317.11557 221.83029l16.692902 0l0 16.692917l-16.692902 0z" fill-rule="evenodd"/><path fill="#ebebdc" d="m337.30762 201.76822l16.692902 0l0 16.692917l-16.692902 0z" fill-rule="evenodd"/><path fill="#ebebdc" d="m357.50085 201.76822l16.692932 0l0 16.692917l-16.692932 0z" fill-rule="evenodd"/><path fill="#ebebdc" d="m377.69412 201.76822l16.692932 0l0 16.692917l-16.692932 0z" fill-rule="evenodd"/><path fill="#ebebdc" d="m397.8874 201.76822l16.692932 0l0 16.692917l-16.692932 0z" fill-rule="evenodd"/><path fill="#ebebdc" d="m418.07944 201.76822l16.692902 0l0 16.692917l-16.692902 0z" fill-rule="evenodd"/><path fill="#ebebdc" d="m438.2727 201.76822l16.692902 0l0 16.692917l-16.692902 0z" fill-rule="evenodd"/><path fill="#ebebdc" d="m458.46597 201.76822l16.692902 0l0 16.692917l-16.692902 0z" fill-rule="evenodd"/><path fill="#ebebdc" d="m478.65924 201.76822l16.692902 0l0 16.692917l-16.692902 0z" fill-rule="evenodd"/><path fill="#ebebdc" d="m337.30762 221.83029l16.692902 0l0 16.692917l-16.692902 0z" fill-rule="evenodd"/><path fill="#ebebdc" d="m357.50085 221.83029l16.692932 0l0 16.692917l-16.692932 0z" fill-rule="evenodd"/><path fill="#ebebdc" d="m377.69412 221.83029l16.692932 0l0 16.692917l-16.692932 0z" fill-rule="evenodd"/><path fill="#ebebdc" d="m397.8874 221.83029l16.692932 0l0 16.692917l-16.692932 0z" fill-rule="evenodd"/><path fill="#ebebdc" d="m418.07944 221.83029l16.692902 0l0 16.692917l-16.692902 0z" fill-rule="evenodd"/><path fill="#ebebdc" d="m438.2727 221.83029l16.692902 0l0 16.692917l-16.692902 0z" fill-rule="evenodd"/><path fill="#927b67" d="m458.46597 221.83029l16.692902 0l0 16.692917l-16.692902 0z" fill-rule="evenodd"/><path fill="#ebebdc" d="m478.65924 221.83029l16.692902 0l0 16.692917l-16.692902 0z" fill-rule="evenodd"/><path fill="#ebebdc" d="m175.76393 241.74556l16.692917 0l0 16.692917l-16.692917 0z" fill-rule="evenodd"/><path fill="#ebebdc" d="m195.9572 241.74556l16.692917 0l0 16.692917l-16.692917 0z" fill-rule="evenodd"/><path fill="#ebebdc" d="m216.15047 241.74556l16.692902 0l0 16.692917l-16.692902 0z" fill-rule="evenodd"/><path fill="#ebebdc" d="m236.34372 241.74556l16.692917 0l0 16.692917l-16.692917 0z" fill-rule="evenodd"/><path fill="#ebebdc" d="m256.53577 241.74556l16.692902 0l0 16.692917l-16.692902 0z" fill-rule="evenodd"/><path fill="#ebebdc" d="m276.72903 241.74556l16.692902 0l0 16.692917l-16.692902 0z" fill-rule="evenodd"/><path fill="#ebebdc" d="m296.9223 241.74556l16.692902 0l0 16.692917l-16.692902 0z" fill-rule="evenodd"/><path fill="#ebebdc" d="m317.11557 241.74556l16.692902 0l0 16.692917l-16.692902 0z" fill-rule="evenodd"/><path fill="#ebebdc" d="m175.76393 261.80765l16.692917 0l0 16.692902l-16.692917 0z" fill-rule="evenodd"/><path fill="#ebebdc" d="m195.9572 261.80765l16.692917 0l0 16.692902l-16.692917 0z" fill-rule="evenodd"/><path fill="#ebebdc" d="m216.15047 261.80765l16.692902 0l0 16.692902l-16.692902 0z" fill-rule="evenodd"/><path fill="#ebebdc" d="m236.34372 261.80765l16.692917 0l0 16.692902l-16.692917 0z" fill-rule="evenodd"/><path fill="#ebebdc" d="m256.53577 261.80765l16.692902 0l0 16.692902l-16.692902 0z" fill-rule="evenodd"/><path fill="#ebebdc" d="m276.72903 261.80765l16.692902 0l0 16.692902l-16.692902 0z" fill-rule="evenodd"/><path fill="#ebebdc" d="m296.9223 261.80765l16.692902 0l0 16.692902l-16.692902 0z" fill-rule="evenodd"/><path fill="#ebebdc" d="m317.11557 261.80765l16.692902 0l0 16.692902l-16.692902 0z" fill-rule="evenodd"/><path fill="#ebebdc" d="m337.30762 241.74556l16.692902 0l0 16.692917l-16.692902 0z" fill-rule="evenodd"/><path fill="#ffd966" d="m357.50085 241.74556l16.692932 0l0 16.692917l-16.692932 0z" fill-rule="evenodd"/><path fill="#ffd966" d="m377.69412 241.74556l16.692932 0l0 16.692917l-16.692932 0z" fill-rule="evenodd"/><path fill="#ffd966" d="m397.8874 241.74556l16.692932 0l0 16.692917l-16.692932 0z" fill-rule="evenodd"/><path fill="#ebebdc" d="m418.07944 241.74556l16.692902 0l0 16.692917l-16.692902 0z" fill-rule="evenodd"/><path fill="#47402e" d="m438.2727 241.74556l16.692902 0l0 16.692917l-16.692902 0z" fill-rule="evenodd"/><path fill="#47402e" d="m458.46597 241.74556l16.692902 0l0 16.692917l-16.692902 0z" fill-rule="evenodd"/><path fill="#47402e" d="m478.65924 241.74556l16.692902 0l0 16.692917l-16.692902 0z" fill-rule="evenodd"/><path fill="#ebebdc" d="m337.30762 261.80765l16.692902 0l0 16.692902l-16.692902 0z" fill-rule="evenodd"/><path fill="#ffd966" d="m357.50085 261.80765l16.692932 0l0 16.692902l-16.692932 0z" fill-rule="evenodd"/><path fill="#85d5f6" d="m377.69412 261.80765l16.692932 0l0 16.692902l-16.692932 0z" fill-rule="evenodd"/><path fill="#75151e" d="m397.8874 261.80765l16.692932 0l0 16.692902l-16.692932 0z" fill-rule="evenodd"/><path fill="#47402e" d="m418.07944 261.80765l16.692902 0l0 16.692902l-16.692902 0z" fill-rule="evenodd"/><path fill="#ebebdc" d="m438.2727 261.80765l16.692902 0l0 16.692902l-16.692902 0z" fill-rule="evenodd"/><path fill="#ebebdc" d="m458.46597 261.80765l16.692902 0l0 16.692902l-16.692902 0z" fill-rule="evenodd"/><path fill="#ebebdc" d="m478.65924 261.80765l16.692902 0l0 16.692902l-16.692902 0z" fill-rule="evenodd"/><path fill="#ebebdc" d="m175.76393 282.2611l16.692917 0l0 16.692902l-16.692917 0z" fill-rule="evenodd"/><path fill="#ebebdc" d="m195.9572 282.2611l16.692917 0l0 16.692902l-16.692917 0z" fill-rule="evenodd"/><path fill="#ebebdc" d="m216.15047 282.2611l16.692902 0l0 16.692902l-16.692902 0z" fill-rule="evenodd"/><path fill="#ebebdc" d="m236.34372 282.2611l16.692917 0l0 16.692902l-16.692917 0z" fill-rule="evenodd"/><path fill="#ebebdc" d="m256.53577 282.2611l16.692902 0l0 16.692902l-16.692902 0z" fill-rule="evenodd"/><path fill="#ebebdc" d="m276.72903 282.2611l16.692902 0l0 16.692902l-16.692902 0z" fill-rule="evenodd"/><path fill="#ebebdc" d="m296.9223 282.2611l16.692902 0l0 16.692902l-16.692902 0z" fill-rule="evenodd"/><path fill="#ebebdc" d="m317.11557 282.2611l16.692902 0l0 16.692902l-16.692902 0z" fill-rule="evenodd"/><path fill="#ebebdc" d="m337.30762 282.2611l16.692902 0l0 16.692902l-16.692902 0z" fill-rule="evenodd"/><path fill="#ffd966" d="m357.50085 282.2611l16.692932 0l0 16.692902l-16.692932 0z" fill-rule="evenodd"/><path fill="#ffd966" d="m377.69412 282.2611l16.692932 0l0 16.692902l-16.692932 0z" fill-rule="evenodd"/><path fill="#ffd966" d="m397.8874 282.2611l16.692932 0l0 16.692902l-16.692932 0z" fill-rule="evenodd"/><path fill="#ebebdc" d="m418.07944 282.2611l16.692902 0l0 16.692902l-16.692902 0z" fill-rule="evenodd"/><path fill="#ebebdc" d="m438.2727 282.2611l16.692902 0l0 16.692902l-16.692902 0z" fill-rule="evenodd"/><path fill="#ebebdc" d="m458.46597 282.2611l16.692902 0l0 16.692902l-16.692902 0z" fill-rule="evenodd"/><path fill="#ebebdc" d="m478.65924 282.2611l16.692902 0l0 16.692902l-16.692902 0z" fill-rule="evenodd"/><path fill="#ebebdc" d="m498.8513 -0.12394042l16.692902 0l0 16.692913l-16.692902 0z" fill-rule="evenodd"/><path fill="#ebebdc" d="m519.04456 -0.12394042l16.692871 0l0 16.692913l-16.692871 0z" fill-rule="evenodd"/><path fill="#ebebdc" d="m539.2378 -0.12394042l16.692932 0l0 16.692913l-16.692932 0z" fill-rule="evenodd"/><path fill="#ebebdc" d="m559.4311 -0.12394042l16.692871 0l0 16.692913l-16.692871 0z" fill-rule="evenodd"/><path fill="#ebebdc" d="m579.6231 -0.12394042l16.692932 0l0 16.692913l-16.692932 0z" fill-rule="evenodd"/><path fill="#ebebdc" d="m599.81635 -0.12394042l16.692932 0l0 16.692913l-16.692932 0z" fill-rule="evenodd"/><path fill="#ebebdc" d="m620.00964 -0.12394042l16.692932 0l0 16.692913l-16.692932 0z" fill-rule="evenodd"/><path fill="#ebebdc" d="m640.2029 -0.12394042l16.692932 0l0 16.692913l-16.692932 0z" fill-rule="evenodd"/><path fill="#ebebdc" d="m498.8513 19.93813l16.692902 0l0 16.692913l-16.692902 0z" fill-rule="evenodd"/><path fill="#ebebdc" d="m519.04456 19.93813l16.692871 0l0 16.692913l-16.692871 0z" fill-rule="evenodd"/><path fill="#ebebdc" d="m539.2378 19.93813l16.692932 0l0 16.692913l-16.692932 0z" fill-rule="evenodd"/><path fill="#ebebdc" d="m559.4311 19.93813l16.692871 0l0 16.692913l-16.692871 0z" fill-rule="evenodd"/><path fill="#ebebdc" d="m579.6231 19.93813l16.692932 0l0 16.692913l-16.692932 0z" fill-rule="evenodd"/><path fill="#ebebdc" d="m599.81635 19.93813l16.692932 0l0 16.692913l-16.692932 0z" fill-rule="evenodd"/><path fill="#ebebdc" d="m620.00964 19.93813l16.692932 0l0 16.692913l-16.692932 0z" fill-rule="evenodd"/><path fill="#ebebdc" d="m640.2029 19.93813l16.692932 0l0 16.692913l-16.692932 0z" fill-rule="evenodd"/><path fill="#ebebdc" d="m660.39496 -0.12394042l16.692871 0l0 16.692913l-16.692871 0z" fill-rule="evenodd"/><path fill="#ebebdc" d="m680.5882 -0.12394042l16.692932 0l0 16.692913l-16.692932 0z" fill-rule="evenodd"/><path fill="#ebebdc" d="m700.7815 -0.12394042l16.692871 0l0 16.692913l-16.692871 0z" fill-rule="evenodd"/><path fill="#ebebdc" d="m720.97473 -0.12394042l16.692932 0l0 16.692913l-16.692932 0z" fill-rule="evenodd"/><path fill="#ebebdc" d="m741.1668 -0.12394042l16.692871 0l0 16.692913l-16.692871 0z" fill-rule="evenodd"/><path fill="#ebebdc" d="m761.36005 -0.12394042l16.692932 0l0 16.692913l-16.692932 0z" fill-rule="evenodd"/><path fill="#ebebdc" d="m781.5533 -0.12394042l16.692932 0l0 16.692913l-16.692932 0z" fill-rule="evenodd"/><path fill="#ebebdc" d="m801.7466 -0.12394042l16.692932 0l0 16.692913l-16.692932 0z" fill-rule="evenodd"/><path fill="#ebebdc" d="m660.39496 19.93813l16.692871 0l0 16.692913l-16.692871 0z" fill-rule="evenodd"/><path fill="#ebebdc" d="m680.5882 19.93813l16.692932 0l0 16.692913l-16.692932 0z" fill-rule="evenodd"/><path fill="#ebebdc" d="m700.7815 19.93813l16.692871 0l0 16.692913l-16.692871 0z" fill-rule="evenodd"/><path fill="#ebebdc" d="m720.97473 19.93813l16.692932 0l0 16.692913l-16.692932 0z" fill-rule="evenodd"/><path fill="#ebebdc" d="m741.1668 19.93813l16.692871 0l0 16.692913l-16.692871 0z" fill-rule="evenodd"/><path fill="#ebebdc" d="m761.36005 19.93813l16.692932 0l0 16.692913l-16.692932 0z" fill-rule="evenodd"/><path fill="#ebebdc" d="m781.5533 19.93813l16.692932 0l0 16.692913l-16.692932 0z" fill-rule="evenodd"/><path fill="#ebebdc" d="m801.7466 19.93813l16.692932 0l0 16.692913l-16.692932 0z" fill-rule="evenodd"/><path fill="#ebebdc" d="m498.8513 40.391598l16.692902 0l0 16.692913l-16.692902 0z" fill-rule="evenodd"/><path fill="#ebebdc" d="m519.04456 40.391598l16.692871 0l0 16.692913l-16.692871 0z" fill-rule="evenodd"/><path fill="#ebebdc" d="m539.2378 40.391598l16.692932 0l0 16.692913l-16.692932 0z" fill-rule="evenodd"/><path fill="#ebebdc" d="m559.4311 40.391598l16.692871 0l0 16.692913l-16.692871 0z" fill-rule="evenodd"/><path fill="#ebebdc" d="m579.6231 40.391598l16.692932 0l0 16.692913l-16.692932 0z" fill-rule="evenodd"/><path fill="#ebebdc" d="m599.81635 40.391598l16.692932 0l0 16.692913l-16.692932 0z" fill-rule="evenodd"/><path fill="#ebebdc" d="m620.00964 40.391598l16.692932 0l0 16.692913l-16.692932 0z" fill-rule="evenodd"/><path fill="#ebebdc" d="m640.2029 40.391598l16.692932 0l0 16.692913l-16.692932 0z" fill-rule="evenodd"/><path fill="#47402e" d="m498.8513 60.453667l16.692902 0l0 16.692917l-16.692902 0z" fill-rule="evenodd"/><path fill="#ebebdc" d="m519.04456 60.453667l16.692871 0l0 16.692917l-16.692871 0z" fill-rule="evenodd"/><path fill="#ebebdc" d="m539.2378 60.453667l16.692932 0l0 16.692917l-16.692932 0z" fill-rule="evenodd"/><path fill="#ebebdc" d="m559.4311 60.453667l16.692871 0l0 16.692917l-16.692871 0z" fill-rule="evenodd"/><path fill="#ebebdc" d="m579.6231 60.453667l16.692932 0l0 16.692917l-16.692932 0z" fill-rule="evenodd"/><path fill="#ebebdc" d="m599.81635 60.453667l16.692932 0l0 16.692917l-16.692932 0z" fill-rule="evenodd"/><path fill="#ebebdc" d="m620.00964 60.453667l16.692932 0l0 16.692917l-16.692932 0z" fill-rule="evenodd"/><path fill="#ebebdc" d="m640.2029 60.453667l16.692932 0l0 16.692917l-16.692932 0z" fill-rule="evenodd"/><path fill="#ebebdc" d="m660.39496 40.391598l16.692871 0l0 16.692913l-16.692871 0z" fill-rule="evenodd"/><path fill="#ebebdc" d="m680.5882 40.391598l16.692932 0l0 16.692913l-16.692932 0z" fill-rule="evenodd"/><path fill="#ebebdc" d="m700.7815 40.391598l16.692871 0l0 16.692913l-16.692871 0z" fill-rule="evenodd"/><path fill="#ebebdc" d="m720.97473 40.391598l16.692932 0l0 16.692913l-16.692932 0z" fill-rule="evenodd"/><path fill="#ebebdc" d="m741.1668 40.391598l16.692871 0l0 16.692913l-16.692871 0z" fill-rule="evenodd"/><path fill="#ebebdc" d="m761.36005 40.391598l16.692932 0l0 16.692913l-16.692932 0z" fill-rule="evenodd"/><path fill="#ebebdc" d="m781.5533 40.391598l16.692932 0l0 16.692913l-16.692932 0z" fill-rule="evenodd"/><path fill="#ebebdc" d="m801.7466 40.391598l16.692932 0l0 16.692913l-16.692932 0z" fill-rule="evenodd"/><path fill="#ebebdc" d="m660.39496 60.453667l16.692871 0l0 16.692917l-16.692871 0z" fill-rule="evenodd"/><path fill="#ebebdc" d="m680.5882 60.453667l16.692932 0l0 16.692917l-16.692932 0z" fill-rule="evenodd"/><path fill="#ebebdc" d="m700.7815 60.453667l16.692871 0l0 16.692917l-16.692871 0z" fill-rule="evenodd"/><path fill="#ffd966" d="m720.97473 60.453667l16.692932 0l0 16.692917l-16.692932 0z" fill-rule="evenodd"/><path fill="#ffd966" d="m741.1668 60.453667l16.692871 0l0 16.692917l-16.692871 0z" fill-rule="evenodd"/><path fill="#ffd966" d="m761.36005 60.453667l16.692932 0l0 16.692917l-16.692932 0z" fill-rule="evenodd"/><path fill="#ebebdc" d="m781.5533 60.453667l16.692932 0l0 16.692917l-16.692932 0z" fill-rule="evenodd"/><path fill="#ebebdc" d="m801.7466 60.453667l16.692932 0l0 16.692917l-16.692932 0z" fill-rule="evenodd"/><path fill="#ebebdc" d="m498.8513 80.36894l16.692902 0l0 16.69291l-16.692902 0z" fill-rule="evenodd"/><path fill="#47402e" d="m519.04456 80.36894l16.692871 0l0 16.69291l-16.692871 0z" fill-rule="evenodd"/><path fill="#67ca16" d="m539.2378 80.36894l16.692932 0l0 16.69291l-16.692932 0z" fill-rule="evenodd"/><path fill="#ebebdc" d="m559.4311 80.36894l16.692871 0l0 16.69291l-16.692871 0z" fill-rule="evenodd"/><path fill="#ebebdc" d="m579.6231 80.36894l16.692932 0l0 16.69291l-16.692932 0z" fill-rule="evenodd"/><path fill="#ebebdc" d="m599.81635 80.36894l16.692932 0l0 16.69291l-16.692932 0z" fill-rule="evenodd"/><path fill="#ebebdc" d="m620.00964 80.36894l16.692932 0l0 16.69291l-16.692932 0z" fill-rule="evenodd"/><path fill="#ebebdc" d="m640.2029 80.36894l16.692932 0l0 16.69291l-16.692932 0z" fill-rule="evenodd"/><path fill="#ebebdc" d="m498.8513 100.43101l16.692902 0l0 16.692917l-16.692902 0z" fill-rule="evenodd"/><path fill="#ebebdc" d="m519.04456 100.43101l16.692871 0l0 16.692917l-16.692871 0z" fill-rule="evenodd"/><path fill="#47402e" d="m539.2378 100.43101l16.692932 0l0 16.692917l-16.692932 0z" fill-rule="evenodd"/><path fill="#ebebdc" d="m559.4311 100.28451l16.692871 0l0 16.69291l-16.692871 0z" fill-rule="evenodd"/><path fill="#ebebdc" d="m579.6231 100.43101l16.692932 0l0 16.692917l-16.692932 0z" fill-rule="evenodd"/><path fill="#ebebdc" d="m599.81635 100.43101l16.692932 0l0 16.692917l-16.692932 0z" fill-rule="evenodd"/><path fill="#ebebdc" d="m620.00964 100.43101l16.692932 0l0 16.692917l-16.692932 0z" fill-rule="evenodd"/><path fill="#ebebdc" d="m640.2029 100.43101l16.692932 0l0 16.692917l-16.692932 0z" fill-rule="evenodd"/><path fill="#ebebdc" d="m660.39496 80.36894l16.692871 0l0 16.69291l-16.692871 0z" fill-rule="evenodd"/><path fill="#ebebdc" d="m680.5882 80.36894l16.692932 0l0 16.69291l-16.692932 0z" fill-rule="evenodd"/><path fill="#ebebdc" d="m700.7815 80.36894l16.692871 0l0 16.69291l-16.692871 0z" fill-rule="evenodd"/><path fill="#ffd966" d="m720.97473 80.36894l16.692932 0l0 16.69291l-16.692932 0z" fill-rule="evenodd"/><path fill="#47402e" d="m741.1668 80.36894l16.692871 0l0 16.69291l-16.692871 0z" fill-rule="evenodd"/><path fill="#ffd966" d="m761.36005 80.36894l16.692932 0l0 16.69291l-16.692932 0z" fill-rule="evenodd"/><path fill="#ebebdc" d="m781.5533 80.36894l16.692932 0l0 16.69291l-16.692932 0z" fill-rule="evenodd"/><path fill="#ebebdc" d="m801.7466 80.36894l16.692932 0l0 16.69291l-16.692932 0z" fill-rule="evenodd"/><path fill="#ebebdc" d="m660.39496 100.43101l16.692871 0l0 16.692917l-16.692871 0z" fill-rule="evenodd"/><path fill="#ebebdc" d="m680.5882 100.43101l16.692932 0l0 16.692917l-16.692932 0z" fill-rule="evenodd"/><path fill="#ebebdc" d="m700.7815 100.43101l16.692871 0l0 16.692917l-16.692871 0z" fill-rule="evenodd"/><path fill="#ffd966" d="m720.97473 100.43101l16.692932 0l0 16.692917l-16.692932 0z" fill-rule="evenodd"/><path fill="#ed8171" d="m741.1668 100.43101l16.692871 0l0 16.692917l-16.692871 0z" fill-rule="evenodd"/><path fill="#47402e" d="m761.36005 100.43101l16.692932 0l0 16.692917l-16.692932 0z" fill-rule="evenodd"/><path fill="#ebebdc" d="m781.5533 100.43101l16.692932 0l0 16.692917l-16.692932 0z" fill-rule="evenodd"/><path fill="#ebebdc" d="m801.7466 100.43101l16.692932 0l0 16.692917l-16.692932 0z" fill-rule="evenodd"/><path fill="#47402e" d="m498.8513 120.884476l16.692902 0l0 16.692917l-16.692902 0z" fill-rule="evenodd"/><path fill="#75151e" d="m519.04456 120.884476l16.692871 0l0 16.692917l-16.692871 0z" fill-rule="evenodd"/><path fill="#47402e" d="m539.2378 120.884476l16.692932 0l0 16.692917l-16.692932 0z" fill-rule="evenodd"/><path fill="#47402e" d="m559.4311 120.884476l16.692871 0l0 16.692917l-16.692871 0z" fill-rule="evenodd"/><path fill="#ed8171" d="m579.6231 120.884476l16.692932 0l0 16.692917l-16.692932 0z" fill-rule="evenodd"/><path fill="#ebebdc" d="m599.81635 120.884476l16.692932 0l0 16.692917l-16.692932 0z" fill-rule="evenodd"/><path fill="#ebebdc" d="m620.00964 120.884476l16.692932 0l0 16.692917l-16.692932 0z" fill-rule="evenodd"/><path fill="#ebebdc" d="m640.2029 120.884476l16.692932 0l0 16.692917l-16.692932 0z" fill-rule="evenodd"/><path fill="#ebebdc" d="m498.8513 140.94655l16.692902 0l0 16.692917l-16.692902 0z" fill-rule="evenodd"/><path fill="#ebebdc" d="m519.04456 140.94655l16.692871 0l0 16.692917l-16.692871 0z" fill-rule="evenodd"/><path fill="#ebebdc" d="m539.2378 140.94655l16.692932 0l0 16.692917l-16.692932 0z" fill-rule="evenodd"/><path fill="#47402e" d="m559.4311 140.94655l16.692871 0l0 16.692917l-16.692871 0z" fill-rule="evenodd"/><path fill="#47402e" d="m579.6231 140.94655l16.692932 0l0 16.692917l-16.692932 0z" fill-rule="evenodd"/><path fill="#ebebdc" d="m599.81635 140.94655l16.692932 0l0 16.692917l-16.692932 0z" fill-rule="evenodd"/><path fill="#ebebdc" d="m620.00964 140.94655l16.692932 0l0 16.692917l-16.692932 0z" fill-rule="evenodd"/><path fill="#ebebdc" d="m640.2029 140.94655l16.692932 0l0 16.692917l-16.692932 0z" fill-rule="evenodd"/><path fill="#85d5f6" d="m660.39496 120.884476l16.692871 0l0 16.692917l-16.692871 0z" fill-rule="evenodd"/><path fill="#ebebdc" d="m680.5882 120.884476l16.692932 0l0 16.692917l-16.692932 0z" fill-rule="evenodd"/><path fill="#ebebdc" d="m700.7815 120.884476l16.692871 0l0 16.692917l-16.692871 0z" fill-rule="evenodd"/><path fill="#ebebdc" d="m720.97473 120.884476l16.692932 0l0 16.692917l-16.692932 0z" fill-rule="evenodd"/><path fill="#ebebdc" d="m741.1668 120.884476l16.692871 0l0 16.692917l-16.692871 0z" fill-rule="evenodd"/><path fill="#ebebdc" d="m761.36005 120.884476l16.692932 0l0 16.692917l-16.692932 0z" fill-rule="evenodd"/><path fill="#47402e" d="m781.5533 120.884476l16.692932 0l0 16.692917l-16.692932 0z" fill-rule="evenodd"/><path fill="#ebebdc" d="m801.7466 120.884476l16.692932 0l0 16.692917l-16.692932 0z" fill-rule="evenodd"/><path fill="#47402e" d="m660.39496 140.94655l16.692871 0l0 16.692917l-16.692871 0z" fill-rule="evenodd"/><path fill="#ebebdc" d="m680.5882 140.94655l16.692932 0l0 16.692917l-16.692932 0z" fill-rule="evenodd"/><path fill="#ebebdc" d="m700.7815 140.94655l16.692871 0l0 16.692917l-16.692871 0z" fill-rule="evenodd"/><path fill="#ebebdc" d="m720.97473 140.94655l16.692932 0l0 16.692917l-16.692932 0z" fill-rule="evenodd"/><path fill="#ebebdc" d="m741.1668 140.94655l16.692871 0l0 16.692917l-16.692871 0z" fill-rule="evenodd"/><path fill="#ebebdc" d="m761.36005 140.94655l16.692932 0l0 16.692917l-16.692932 0z" fill-rule="evenodd"/><path fill="#ebebdc" d="m781.5533 140.94655l16.692932 0l0 16.692917l-16.692932 0z" fill-rule="evenodd"/><path fill="#47402e" d="m801.7466 140.94655l16.692932 0l0 16.692917l-16.692932 0z" fill-rule="evenodd"/><path fill="#ebebdc" d="m498.8513 161.25269l16.692902 0l0 16.692917l-16.692902 0z" fill-rule="evenodd"/><path fill="#ebebdc" d="m519.04456 161.25269l16.692871 0l0 16.692917l-16.692871 0z" fill-rule="evenodd"/><path fill="#ebebdc" d="m539.2378 161.25269l16.692932 0l0 16.692917l-16.692932 0z" fill-rule="evenodd"/><path fill="#ebebdc" d="m559.4311 161.25269l16.692871 0l0 16.692917l-16.692871 0z" fill-rule="evenodd"/><path fill="#ebebdc" d="m579.6231 161.25269l16.692932 0l0 16.692917l-16.692932 0z" fill-rule="evenodd"/><path fill="#75151e" d="m599.81635 161.25269l16.692932 0l0 16.692917l-16.692932 0z" fill-rule="evenodd"/><path fill="#ebebdc" d="m620.00964 161.25269l16.692932 0l0 16.692917l-16.692932 0z" fill-rule="evenodd"/><path fill="#ebebdc" d="m640.2029 161.25269l16.692932 0l0 16.692917l-16.692932 0z" fill-rule="evenodd"/><path fill="#ebebdc" d="m498.8513 181.31476l16.692902 0l0 16.692902l-16.692902 0z" fill-rule="evenodd"/><path fill="#ebebdc" d="m519.04456 181.31476l16.692871 0l0 16.692902l-16.692871 0z" fill-rule="evenodd"/><path fill="#ebebdc" d="m539.2378 181.31476l16.692932 0l0 16.692902l-16.692932 0z" fill-rule="evenodd"/><path fill="#ebebdc" d="m559.4311 181.31476l16.692871 0l0 16.692902l-16.692871 0z" fill-rule="evenodd"/><path fill="#ebebdc" d="m579.6231 181.31476l16.692932 0l0 16.692902l-16.692932 0z" fill-rule="evenodd"/><path fill="#ebebdc" d="m599.81635 181.31476l16.692932 0l0 16.692902l-16.692932 0z" fill-rule="evenodd"/><path fill="#6c7059" d="m620.00964 181.31476l16.692932 0l0 16.692902l-16.692932 0z" fill-rule="evenodd"/><path fill="#ebebdc" d="m640.2029 181.31476l16.692932 0l0 16.692902l-16.692932 0z" fill-rule="evenodd"/><path fill="#ebebdc" d="m660.39496 161.25269l16.692871 0l0 16.692917l-16.692871 0z" fill-rule="evenodd"/><path fill="#47402e" d="m680.5882 161.25269l16.692932 0l0 16.692917l-16.692932 0z" fill-rule="evenodd"/><path fill="#ebebdc" d="m700.7815 161.25269l16.692871 0l0 16.692917l-16.692871 0z" fill-rule="evenodd"/><path fill="#ebebdc" d="m720.97473 161.25269l16.692932 0l0 16.692917l-16.692932 0z" fill-rule="evenodd"/><path fill="#ebebdc" d="m741.1668 161.25269l16.692871 0l0 16.692917l-16.692871 0z" fill-rule="evenodd"/><path fill="#ebebdc" d="m761.36005 161.25269l16.692932 0l0 16.692917l-16.692932 0z" fill-rule="evenodd"/><path fill="#47402e" d="m781.5533 161.25269l16.692932 0l0 16.692917l-16.692932 0z" fill-rule="evenodd"/><path fill="#ebebdc" d="m801.7466 161.25269l16.692932 0l0 16.692917l-16.692932 0z" fill-rule="evenodd"/><path fill="#ebebdc" d="m660.39496 181.31476l16.692871 0l0 16.692902l-16.692871 0z" fill-rule="evenodd"/><path fill="#ebebdc" d="m680.5882 181.31476l16.692932 0l0 16.692902l-16.692932 0z" fill-rule="evenodd"/><path fill="#47402e" d="m700.7815 181.31476l16.692871 0l0 16.692902l-16.692871 0z" fill-rule="evenodd"/><path fill="#ebebdc" d="m720.97473 181.31476l16.692932 0l0 16.692902l-16.692932 0z" fill-rule="evenodd"/><path fill="#ebebdc" d="m741.1668 181.31476l16.692871 0l0 16.692902l-16.692871 0z" fill-rule="evenodd"/><path fill="#ebebdc" d="m761.36005 181.31476l16.692932 0l0 16.692902l-16.692932 0z" fill-rule="evenodd"/><path fill="#47402e" d="m781.5533 181.31476l16.692932 0l0 16.692902l-16.692932 0z" fill-rule="evenodd"/><path fill="#ebebdc" d="m801.7466 181.31476l16.692932 0l0 16.692902l-16.692932 0z" fill-rule="evenodd"/><path fill="#ebebdc" d="m498.8513 201.76822l16.692902 0l0 16.692917l-16.692902 0z" fill-rule="evenodd"/><path fill="#ebebdc" d="m519.04456 201.76822l16.692871 0l0 16.692917l-16.692871 0z" fill-rule="evenodd"/><path fill="#ebebdc" d="m539.2378 201.76822l16.692932 0l0 16.692917l-16.692932 0z" fill-rule="evenodd"/><path fill="#ebebdc" d="m559.4311 201.76822l16.692871 0l0 16.692917l-16.692871 0z" fill-rule="evenodd"/><path fill="#ebebdc" d="m579.6231 201.76822l16.692932 0l0 16.692917l-16.692932 0z" fill-rule="evenodd"/><path fill="#ebebdc" d="m599.81635 201.76822l16.692932 0l0 16.692917l-16.692932 0z" fill-rule="evenodd"/><path fill="#ebebdc" d="m620.00964 201.76822l16.692932 0l0 16.692917l-16.692932 0z" fill-rule="evenodd"/><path fill="#47402e" d="m640.2029 201.76822l16.692932 0l0 16.692917l-16.692932 0z" fill-rule="evenodd"/><path fill="#ebebdc" d="m498.8513 221.83029l16.692902 0l0 16.692917l-16.692902 0z" fill-rule="evenodd"/><path fill="#ebebdc" d="m519.04456 221.83029l16.692871 0l0 16.692917l-16.692871 0z" fill-rule="evenodd"/><path fill="#ebebdc" d="m539.2378 221.83029l16.692932 0l0 16.692917l-16.692932 0z" fill-rule="evenodd"/><path fill="#ebebdc" d="m559.4311 221.83029l16.692871 0l0 16.692917l-16.692871 0z" fill-rule="evenodd"/><path fill="#ebebdc" d="m579.6231 221.83029l16.692932 0l0 16.692917l-16.692932 0z" fill-rule="evenodd"/><path fill="#ebebdc" d="m599.81635 221.83029l16.692932 0l0 16.692917l-16.692932 0z" fill-rule="evenodd"/><path fill="#ebebdc" d="m620.00964 221.83029l16.692932 0l0 16.692917l-16.692932 0z" fill-rule="evenodd"/><path fill="#ebebdc" d="m640.2029 221.83029l16.692932 0l0 16.692917l-16.692932 0z" fill-rule="evenodd"/><path fill="#ebebdc" d="m660.39496 201.76822l16.692871 0l0 16.692917l-16.692871 0z" fill-rule="evenodd"/><path fill="#ebebdc" d="m680.5882 201.76822l16.692932 0l0 16.692917l-16.692932 0z" fill-rule="evenodd"/><path fill="#ebebdc" d="m700.7815 201.76822l16.692871 0l0 16.692917l-16.692871 0z" fill-rule="evenodd"/><path fill="#47402e" d="m720.97473 201.76822l16.692932 0l0 16.692917l-16.692932 0z" fill-rule="evenodd"/><path fill="#47402e" d="m741.1668 201.76822l16.692871 0l0 16.692917l-16.692871 0z" fill-rule="evenodd"/><path fill="#ebebdc" d="m761.36005 201.76822l16.692932 0l0 16.692917l-16.692932 0z" fill-rule="evenodd"/><path fill="#ebebdc" d="m781.5533 201.76822l16.692932 0l0 16.692917l-16.692932 0z" fill-rule="evenodd"/><path fill="#47402e" d="m801.7466 201.76822l16.692932 0l0 16.692917l-16.692932 0z" fill-rule="evenodd"/><path fill="#47402e" d="m660.39496 221.83029l16.692871 0l0 16.692917l-16.692871 0z" fill-rule="evenodd"/><path fill="#75151e" d="m680.5882 221.83029l16.692932 0l0 16.692917l-16.692932 0z" fill-rule="evenodd"/><path fill="#ebebdc" d="m700.7815 221.83029l16.692871 0l0 16.692917l-16.692871 0z" fill-rule="evenodd"/><path fill="#ebebdc" d="m720.97473 221.83029l16.692932 0l0 16.692917l-16.692932 0z" fill-rule="evenodd"/><path fill="#ebebdc" d="m741.1668 221.83029l16.692871 0l0 16.692917l-16.692871 0z" fill-rule="evenodd"/><path fill="#47402e" d="m761.36005 221.83029l16.692932 0l0 16.692917l-16.692932 0z" fill-rule="evenodd"/><path fill="#47402e" d="m781.5533 221.83029l16.692932 0l0 16.692917l-16.692932 0z" fill-rule="evenodd"/><path fill="#ebebdc" d="m801.7466 221.83029l16.692932 0l0 16.692917l-16.692932 0z" fill-rule="evenodd"/><path fill="#67ca16" d="m498.8513 241.74556l16.692902 0l0 16.692917l-16.692902 0z" fill-rule="evenodd"/><path fill="#ebebdc" d="m519.04456 241.74556l16.692871 0l0 16.692917l-16.692871 0z" fill-rule="evenodd"/><path fill="#ebebdc" d="m539.2378 241.74556l16.692932 0l0 16.692917l-16.692932 0z" fill-rule="evenodd"/><path fill="#ebebdc" d="m559.4311 241.74556l16.692871 0l0 16.692917l-16.692871 0z" fill-rule="evenodd"/><path fill="#ebebdc" d="m579.6231 241.74556l16.692932 0l0 16.692917l-16.692932 0z" fill-rule="evenodd"/><path fill="#ebebdc" d="m599.81635 241.74556l16.692932 0l0 16.692917l-16.692932 0z" fill-rule="evenodd"/><path fill="#ebebdc" d="m620.00964 241.74556l16.692932 0l0 16.692917l-16.692932 0z" fill-rule="evenodd"/><path fill="#47402e" d="m640.2029 241.74556l16.692932 0l0 16.692917l-16.692932 0z" fill-rule="evenodd"/><path fill="#47402e" d="m498.8513 261.80765l16.692902 0l0 16.692902l-16.692902 0z" fill-rule="evenodd"/><path fill="#ebebdc" d="m519.04456 261.80765l16.692871 0l0 16.692902l-16.692871 0z" fill-rule="evenodd"/><path fill="#ebebdc" d="m539.2378 261.80765l16.692932 0l0 16.692902l-16.692932 0z" fill-rule="evenodd"/><path fill="#ebebdc" d="m559.4311 261.80765l16.692871 0l0 16.692902l-16.692871 0z" fill-rule="evenodd"/><path fill="#ebebdc" d="m579.6231 261.80765l16.692932 0l0 16.692902l-16.692932 0z" fill-rule="evenodd"/><path fill="#ebebdc" d="m599.81635 261.80765l16.692932 0l0 16.692902l-16.692932 0z" fill-rule="evenodd"/><path fill="#47402e" d="m620.00964 261.80765l16.692932 0l0 16.692902l-16.692932 0z" fill-rule="evenodd"/><path fill="#ebebdc" d="m640.2029 261.80765l16.692932 0l0 16.692902l-16.692932 0z" fill-rule="evenodd"/><path fill="#ebebdc" d="m660.39496 241.74556l16.692871 0l0 16.692917l-16.692871 0z" fill-rule="evenodd"/><path fill="#ebebdc" d="m680.5882 241.74556l16.692932 0l0 16.692917l-16.692932 0z" fill-rule="evenodd"/><path fill="#47402e" d="m700.7815 241.74556l16.692871 0l0 16.692917l-16.692871 0z" fill-rule="evenodd"/><path fill="#47402e" d="m720.97473 241.74556l16.692932 0l0 16.692917l-16.692932 0z" fill-rule="evenodd"/><path fill="#ebebdc" d="m741.1668 241.74556l16.692871 0l0 16.692917l-16.692871 0z" fill-rule="evenodd"/><path fill="#ebebdc" d="m761.36005 241.74556l16.692932 0l0 16.692917l-16.692932 0z" fill-rule="evenodd"/><path fill="#47402e" d="m781.5533 241.74556l16.692932 0l0 16.692917l-16.692932 0z" fill-rule="evenodd"/><path fill="#47402e" d="m801.7466 241.74556l16.692932 0l0 16.692917l-16.692932 0z" fill-rule="evenodd"/><path fill="#ebebdc" d="m660.39496 261.80765l16.692871 0l0 16.692902l-16.692871 0z" fill-rule="evenodd"/><path fill="#ebebdc" d="m680.5882 261.80765l16.692932 0l0 16.692902l-16.692932 0z" fill-rule="evenodd"/><path fill="#ebebdc" d="m700.7815 261.80765l16.692871 0l0 16.692902l-16.692871 0z" fill-rule="evenodd"/><path fill="#ebebdc" d="m720.97473 261.80765l16.692932 0l0 16.692902l-16.692932 0z" fill-rule="evenodd"/><path fill="#47402e" d="m741.1668 261.80765l16.692871 0l0 16.692902l-16.692871 0z" fill-rule="evenodd"/><path fill="#47402e" d="m761.36005 261.80765l16.692932 0l0 16.692902l-16.692932 0z" fill-rule="evenodd"/><path fill="#75151e" d="m781.5533 261.80765l16.692932 0l0 16.692902l-16.692932 0z" fill-rule="evenodd"/><path fill="#ebebdc" d="m801.7466 261.80765l16.692932 0l0 16.692902l-16.692932 0z" fill-rule="evenodd"/><path fill="#ebebdc" d="m498.8513 282.2611l16.692902 0l0 16.692902l-16.692902 0z" fill-rule="evenodd"/><path fill="#75151e" d="m519.04456 282.2611l16.692871 0l0 16.692902l-16.692871 0z" fill-rule="evenodd"/><path fill="#47402e" d="m539.2378 282.2611l16.692932 0l0 16.692902l-16.692932 0z" fill-rule="evenodd"/><path fill="#47402e" d="m559.4311 282.2611l16.692871 0l0 16.692902l-16.692871 0z" fill-rule="evenodd"/><path fill="#47402e" d="m579.6231 282.2611l16.692932 0l0 16.692902l-16.692932 0z" fill-rule="evenodd"/><path fill="#47402e" d="m599.81635 282.2611l16.692932 0l0 16.692902l-16.692932 0z" fill-rule="evenodd"/><path fill="#ebebdc" d="m620.00964 282.2611l16.692932 0l0 16.692902l-16.692932 0z" fill-rule="evenodd"/><path fill="#ebebdc" d="m640.2029 282.2611l16.692932 0l0 16.692902l-16.692932 0z" fill-rule="evenodd"/><path fill="#ebebdc" d="m660.39496 282.2611l16.692871 0l0 16.692902l-16.692871 0z" fill-rule="evenodd"/><path fill="#ebebdc" d="m680.5882 282.2611l16.692932 0l0 16.692902l-16.692932 0z" fill-rule="evenodd"/><path fill="#ebebdc" d="m700.7815 282.2611l16.692871 0l0 16.692902l-16.692871 0z" fill-rule="evenodd"/><path fill="#ebebdc" d="m720.97473 282.2611l16.692932 0l0 16.692902l-16.692932 0z" fill-rule="evenodd"/><path fill="#ebebdc" d="m741.1668 282.2611l16.692871 0l0 16.692902l-16.692871 0z" fill-rule="evenodd"/><path fill="#ebebdc" d="m761.36005 282.2611l16.692932 0l0 16.692902l-16.692932 0z" fill-rule="evenodd"/><path fill="#ebebdc" d="m781.5533 282.2611l16.692932 0l0 16.692902l-16.692932 0z" fill-rule="evenodd"/><path fill="#ebebdc" d="m801.7466 282.2611l16.692932 0l0 16.692902l-16.692932 0z" fill-rule="evenodd"/><path fill="#ebebdc" d="m821.93915 -0.12394042l16.692932 0l0 16.692913l-16.692932 0z" fill-rule="evenodd"/><path fill="#ebebdc" d="m842.1324 -0.12394042l16.692932 0l0 16.692913l-16.692932 0z" fill-rule="evenodd"/><path fill="#ebebdc" d="m862.3257 -0.12394042l16.692932 0l0 16.692913l-16.692932 0z" fill-rule="evenodd"/><path fill="#ebebdc" d="m882.5177 -0.12394042l16.692932 0l0 16.692913l-16.692932 0z" fill-rule="evenodd"/><path fill="#ebebdc" d="m902.711 -0.12394042l16.692932 0l0 16.692913l-16.692932 0z" fill-rule="evenodd"/><path fill="#ebebdc" d="m922.90424 -0.12394042l16.692932 0l0 16.692913l-16.692932 0z" fill-rule="evenodd"/><path fill="#ebebdc" d="m821.93915 19.93813l16.692932 0l0 16.692913l-16.692932 0z" fill-rule="evenodd"/><path fill="#ebebdc" d="m842.1324 19.93813l16.692932 0l0 16.692913l-16.692932 0z" fill-rule="evenodd"/><path fill="#ebebdc" d="m862.3257 19.93813l16.692932 0l0 16.692913l-16.692932 0z" fill-rule="evenodd"/><path fill="#ebebdc" d="m882.5177 19.93813l16.692932 0l0 16.692913l-16.692932 0z" fill-rule="evenodd"/><path fill="#ebebdc" d="m902.711 19.93813l16.692932 0l0 16.692913l-16.692932 0z" fill-rule="evenodd"/><path fill="#ebebdc" d="m922.90424 19.93813l16.692932 0l0 16.692913l-16.692932 0z" fill-rule="evenodd"/><path fill="#ebebdc" d="m821.93915 40.391598l16.692932 0l0 16.692913l-16.692932 0z" fill-rule="evenodd"/><path fill="#ebebdc" d="m842.1324 40.391598l16.692932 0l0 16.692913l-16.692932 0z" fill-rule="evenodd"/><path fill="#ebebdc" d="m862.3257 40.391598l16.692932 0l0 16.692913l-16.692932 0z" fill-rule="evenodd"/><path fill="#ebebdc" d="m882.5177 40.391598l16.692932 0l0 16.692913l-16.692932 0z" fill-rule="evenodd"/><path fill="#ebebdc" d="m902.711 40.391598l16.692932 0l0 16.692913l-16.692932 0z" fill-rule="evenodd"/><path fill="#ebebdc" d="m922.90424 40.391598l16.692932 0l0 16.692913l-16.692932 0z" fill-rule="evenodd"/><path fill="#ebebdc" d="m821.93915 60.453667l16.692932 0l0 16.692917l-16.692932 0z" fill-rule="evenodd"/><path fill="#ebebdc" d="m842.1324 60.453667l16.692932 0l0 16.692917l-16.692932 0z" fill-rule="evenodd"/><path fill="#ebebdc" d="m862.3257 60.453667l16.692932 0l0 16.692917l-16.692932 0z" fill-rule="evenodd"/><path fill="#ebebdc" d="m882.5177 60.453667l16.692932 0l0 16.692917l-16.692932 0z" fill-rule="evenodd"/><path fill="#ebebdc" d="m902.711 60.453667l16.692932 0l0 16.692917l-16.692932 0z" fill-rule="evenodd"/><path fill="#ebebdc" d="m922.90424 60.453667l16.692932 0l0 16.692917l-16.692932 0z" fill-rule="evenodd"/><path fill="#ebebdc" d="m821.93915 80.36894l16.692932 0l0 16.69291l-16.692932 0z" fill-rule="evenodd"/><path fill="#ebebdc" d="m842.1324 80.36894l16.692932 0l0 16.69291l-16.692932 0z" fill-rule="evenodd"/><path fill="#ebebdc" d="m862.3257 80.36894l16.692932 0l0 16.69291l-16.692932 0z" fill-rule="evenodd"/><path fill="#ebebdc" d="m882.5177 80.36894l16.692932 0l0 16.69291l-16.692932 0z" fill-rule="evenodd"/><path fill="#ebebdc" d="m902.711 80.36894l16.692932 0l0 16.69291l-16.692932 0z" fill-rule="evenodd"/><path fill="#ebebdc" d="m922.90424 80.36894l16.692932 0l0 16.69291l-16.692932 0z" fill-rule="evenodd"/><path fill="#ebebdc" d="m821.93915 100.43101l16.692932 0l0 16.692917l-16.692932 0z" fill-rule="evenodd"/><path fill="#ebebdc" d="m842.1324 100.43101l16.692932 0l0 16.692917l-16.692932 0z" fill-rule="evenodd"/><path fill="#ebebdc" d="m862.3257 100.43101l16.692932 0l0 16.692917l-16.692932 0z" fill-rule="evenodd"/><path fill="#ebebdc" d="m882.5177 100.43101l16.692932 0l0 16.692917l-16.692932 0z" fill-rule="evenodd"/><path fill="#ebebdc" d="m902.711 100.43101l16.692932 0l0 16.692917l-16.692932 0z" fill-rule="evenodd"/><path fill="#ebebdc" d="m922.90424 100.43101l16.692932 0l0 16.692917l-16.692932 0z" fill-rule="evenodd"/><path fill="#ebebdc" d="m821.93915 120.884476l16.692932 0l0 16.692917l-16.692932 0z" fill-rule="evenodd"/><path fill="#ebebdc" d="m842.1324 120.884476l16.692932 0l0 16.692917l-16.692932 0z" fill-rule="evenodd"/><path fill="#ebebdc" d="m862.3257 120.884476l16.692932 0l0 16.692917l-16.692932 0z" fill-rule="evenodd"/><path fill="#ebebdc" d="m882.5177 120.884476l16.692932 0l0 16.692917l-16.692932 0z" fill-rule="evenodd"/><path fill="#ebebdc" d="m902.711 120.884476l16.692932 0l0 16.692917l-16.692932 0z" fill-rule="evenodd"/><path fill="#ebebdc" d="m922.90424 120.884476l16.692932 0l0 16.692917l-16.692932 0z" fill-rule="evenodd"/><path fill="#ebebdc" d="m821.93915 140.94655l16.692932 0l0 16.692917l-16.692932 0z" fill-rule="evenodd"/><path fill="#ebebdc" d="m842.1324 140.94655l16.692932 0l0 16.692917l-16.692932 0z" fill-rule="evenodd"/><path fill="#ebebdc" d="m862.3257 140.94655l16.692932 0l0 16.692917l-16.692932 0z" fill-rule="evenodd"/><path fill="#ebebdc" d="m882.5177 140.94655l16.692932 0l0 16.692917l-16.692932 0z" fill-rule="evenodd"/><path fill="#ebebdc" d="m902.711 140.94655l16.692932 0l0 16.692917l-16.692932 0z" fill-rule="evenodd"/><path fill="#ebebdc" d="m922.90424 140.94655l16.692932 0l0 16.692917l-16.692932 0z" fill-rule="evenodd"/><path fill="#ebebdc" d="m821.93915 161.25269l16.692932 0l0 16.692917l-16.692932 0z" fill-rule="evenodd"/><path fill="#ebebdc" d="m842.1324 161.25269l16.692932 0l0 16.692917l-16.692932 0z" fill-rule="evenodd"/><path fill="#ebebdc" d="m862.3257 161.25269l16.692932 0l0 16.692917l-16.692932 0z" fill-rule="evenodd"/><path fill="#ebebdc" d="m882.5177 161.25269l16.692932 0l0 16.692917l-16.692932 0z" fill-rule="evenodd"/><path fill="#ebebdc" d="m902.711 161.25269l16.692932 0l0 16.692917l-16.692932 0z" fill-rule="evenodd"/><path fill="#ebebdc" d="m922.90424 161.25269l16.692932 0l0 16.692917l-16.692932 0z" fill-rule="evenodd"/><path fill="#ebebdc" d="m821.93915 181.31476l16.692932 0l0 16.692902l-16.692932 0z" fill-rule="evenodd"/><path fill="#ebebdc" d="m842.1324 181.31476l16.692932 0l0 16.692902l-16.692932 0z" fill-rule="evenodd"/><path fill="#ebebdc" d="m862.3257 181.31476l16.692932 0l0 16.692902l-16.692932 0z" fill-rule="evenodd"/><path fill="#ebebdc" d="m882.5177 181.31476l16.692932 0l0 16.692902l-16.692932 0z" fill-rule="evenodd"/><path fill="#ebebdc" d="m902.711 181.31476l16.692932 0l0 16.692902l-16.692932 0z" fill-rule="evenodd"/><path fill="#ebebdc" d="m922.90424 181.31476l16.692932 0l0 16.692902l-16.692932 0z" fill-rule="evenodd"/><path fill="#ebebdc" d="m821.93915 201.76822l16.692932 0l0 16.692917l-16.692932 0z" fill-rule="evenodd"/><path fill="#ebebdc" d="m842.1324 201.76822l16.692932 0l0 16.692917l-16.692932 0z" fill-rule="evenodd"/><path fill="#ebebdc" d="m862.3257 201.76822l16.692932 0l0 16.692917l-16.692932 0z" fill-rule="evenodd"/><path fill="#ebebdc" d="m882.5177 201.76822l16.692932 0l0 16.692917l-16.692932 0z" fill-rule="evenodd"/><path fill="#ebebdc" d="m902.711 201.76822l16.692932 0l0 16.692917l-16.692932 0z" fill-rule="evenodd"/><path fill="#ebebdc" d="m922.90424 201.76822l16.692932 0l0 16.692917l-16.692932 0z" fill-rule="evenodd"/><path fill="#47402e" d="m821.93915 221.83029l16.692932 0l0 16.692917l-16.692932 0z" fill-rule="evenodd"/><path fill="#ebebdc" d="m842.1324 221.83029l16.692932 0l0 16.692917l-16.692932 0z" fill-rule="evenodd"/><path fill="#ebebdc" d="m862.3257 221.83029l16.692932 0l0 16.692917l-16.692932 0z" fill-rule="evenodd"/><path fill="#ebebdc" d="m882.5177 221.83029l16.692932 0l0 16.692917l-16.692932 0z" fill-rule="evenodd"/><path fill="#ebebdc" d="m902.711 221.83029l16.692932 0l0 16.692917l-16.692932 0z" fill-rule="evenodd"/><path fill="#ebebdc" d="m922.90424 221.83029l16.692932 0l0 16.692917l-16.692932 0z" fill-rule="evenodd"/><path fill="#47402e" d="m821.93915 241.74556l16.692932 0l0 16.692917l-16.692932 0z" fill-rule="evenodd"/><path fill="#47402e" d="m842.1324 241.74556l16.692932 0l0 16.692917l-16.692932 0z" fill-rule="evenodd"/><path fill="#ebebdc" d="m862.3257 241.74556l16.692932 0l0 16.692917l-16.692932 0z" fill-rule="evenodd"/><path fill="#ebebdc" d="m882.5177 241.74556l16.692932 0l0 16.692917l-16.692932 0z" fill-rule="evenodd"/><path fill="#ebebdc" d="m902.711 241.74556l16.692932 0l0 16.692917l-16.692932 0z" fill-rule="evenodd"/><path fill="#ebebdc" d="m922.90424 241.74556l16.692932 0l0 16.692917l-16.692932 0z" fill-rule="evenodd"/><path fill="#47402e" d="m821.93915 261.80765l16.692932 0l0 16.692902l-16.692932 0z" fill-rule="evenodd"/><path fill="#ebebdc" d="m842.1324 261.80765l16.692932 0l0 16.692902l-16.692932 0z" fill-rule="evenodd"/><path fill="#47402e" d="m862.3257 261.80765l16.692932 0l0 16.692902l-16.692932 0z" fill-rule="evenodd"/><path fill="#47402e" d="m882.5177 261.80765l16.692932 0l0 16.692902l-16.692932 0z" fill-rule="evenodd"/><path fill="#ebebdc" d="m902.711 261.80765l16.692932 0l0 16.692902l-16.692932 0z" fill-rule="evenodd"/><path fill="#ebebdc" d="m922.90424 261.80765l16.692932 0l0 16.692902l-16.692932 0z" fill-rule="evenodd"/><path fill="#ebebdc" d="m821.93915 282.2611l16.692932 0l0 16.692902l-16.692932 0z" fill-rule="evenodd"/><path fill="#47402e" d="m842.1324 282.2611l16.692932 0l0 16.692902l-16.692932 0z" fill-rule="evenodd"/><path fill="#75151e" d="m862.3257 282.2611l16.692932 0l0 16.692902l-16.692932 0z" fill-rule="evenodd"/><path fill="#47402e" d="m882.5177 282.2611l16.692932 0l0 16.692902l-16.692932 0z" fill-rule="evenodd"/><path fill="#47402e" d="m902.711 282.2611l16.692932 0l0 16.692902l-16.692932 0z" fill-rule="evenodd"/><path fill="#47402e" d="m922.90424 282.2611l16.692932 0l0 16.692902l-16.692932 0z" fill-rule="evenodd"/><path fill="#ebebdc" d="m943.30664 -0.12394042l16.692871 0l0 16.692913l-16.692871 0z" fill-rule="evenodd"/><path fill="#ebebdc" d="m943.30664 19.93813l16.692871 0l0 16.692913l-16.692871 0z" fill-rule="evenodd"/><path fill="#ebebdc" d="m943.30664 40.391598l16.692871 0l0 16.692913l-16.692871 0z" fill-rule="evenodd"/><path fill="#ebebdc" d="m943.30664 60.453667l16.692871 0l0 16.692917l-16.692871 0z" fill-rule="evenodd"/><path fill="#ebebdc" d="m943.30664 80.36894l16.692871 0l0 16.69291l-16.692871 0z" fill-rule="evenodd"/><path fill="#ebebdc" d="m943.30664 100.43101l16.692871 0l0 16.692917l-16.692871 0z" fill-rule="evenodd"/><path fill="#ebebdc" d="m943.30664 120.884476l16.692871 0l0 16.692917l-16.692871 0z" fill-rule="evenodd"/><path fill="#ebebdc" d="m943.30664 140.94655l16.692871 0l0 16.692917l-16.692871 0z" fill-rule="evenodd"/><path fill="#ebebdc" d="m943.30664 161.25269l16.692871 0l0 16.692917l-16.692871 0z" fill-rule="evenodd"/><path fill="#ebebdc" d="m943.30664 181.31476l16.692871 0l0 16.692902l-16.692871 0z" fill-rule="evenodd"/><path fill="#ebebdc" d="m943.30664 201.76822l16.692871 0l0 16.692917l-16.692871 0z" fill-rule="evenodd"/><path fill="#ebebdc" d="m943.30664 221.83029l16.692871 0l0 16.692917l-16.692871 0z" fill-rule="evenodd"/><path fill="#ebebdc" d="m943.30664 241.74556l16.692871 0l0 16.692917l-16.692871 0z" fill-rule="evenodd"/><path fill="#ebebdc" d="m943.30664 261.80765l16.692871 0l0 16.692902l-16.692871 0z" fill-rule="evenodd"/><path fill="#ebebdc" d="m943.30664 282.2611l16.692871 0l0 16.692902l-16.692871 0z" fill-rule="evenodd"/><path fill="#ebebdc" d="m94.989655 -0.12394042l16.692917 0l0 16.692913l-16.692917 0z" fill-rule="evenodd"/><path fill="#ebebdc" d="m115.182915 -0.12394042l16.69291 0l0 16.692913l-16.69291 0z" fill-rule="evenodd"/><path fill="#ebebdc" d="m135.37617 -0.12394042l16.692917 0l0 16.692913l-16.692917 0z" fill-rule="evenodd"/><path fill="#ebebdc" d="m155.56944 -0.12394042l16.692917 0l0 16.692913l-16.692917 0z" fill-rule="evenodd"/><path fill="#ebebdc" d="m94.989655 20.04642l16.692917 0l0 16.692915l-16.692917 0z" fill-rule="evenodd"/><path fill="#ebebdc" d="m115.182915 20.04642l16.69291 0l0 16.692915l-16.69291 0z" fill-rule="evenodd"/><path fill="#ebebdc" d="m135.37617 20.04642l16.692917 0l0 16.692915l-16.692917 0z" fill-rule="evenodd"/><path fill="#ebebdc" d="m155.56944 20.04642l16.692917 0l0 16.692915l-16.692917 0z" fill-rule="evenodd"/><path fill="#ebebdc" d="m94.989655 40.21678l16.692917 0l0 16.692913l-16.692917 0z" fill-rule="evenodd"/><path fill="#ebebdc" d="m115.182915 40.21678l16.69291 0l0 16.692913l-16.69291 0z" fill-rule="evenodd"/><path fill="#ebebdc" d="m135.37617 40.21678l16.692917 0l0 16.692913l-16.692917 0z" fill-rule="evenodd"/><path fill="#ebebdc" d="m155.56944 40.21678l16.692917 0l0 16.692913l-16.692917 0z" fill-rule="evenodd"/><path fill="#ebebdc" d="m94.989655 60.38714l16.692917 0l0 16.692917l-16.692917 0z" fill-rule="evenodd"/><path fill="#ebebdc" d="m115.182915 60.38714l16.69291 0l0 16.692917l-16.69291 0z" fill-rule="evenodd"/><path fill="#ebebdc" d="m135.37617 60.38714l16.692917 0l0 16.692917l-16.692917 0z" fill-rule="evenodd"/><path fill="#ebebdc" d="m155.56944 60.38714l16.692917 0l0 16.692917l-16.692917 0z" fill-rule="evenodd"/><path fill="#ebebdc" d="m94.989655 80.5575l16.692917 0l0 16.69291l-16.692917 0z" fill-rule="evenodd"/><path fill="#ebebdc" d="m115.182915 80.5575l16.69291 0l0 16.69291l-16.69291 0z" fill-rule="evenodd"/><path fill="#ebebdc" d="m135.37617 80.5575l16.692917 0l0 16.69291l-16.692917 0z" fill-rule="evenodd"/><path fill="#ebebdc" d="m155.56944 80.5575l16.692917 0l0 16.69291l-16.692917 0z" fill-rule="evenodd"/><path fill="#ebebdc" d="m94.989655 100.72786l16.692917 0l0 16.692917l-16.692917 0z" fill-rule="evenodd"/><path fill="#ebebdc" d="m115.182915 100.72786l16.69291 0l0 16.692917l-16.69291 0z" fill-rule="evenodd"/><path fill="#ebebdc" d="m135.37617 100.72786l16.692917 0l0 16.692917l-16.692917 0z" fill-rule="evenodd"/><path fill="#ebebdc" d="m155.56944 100.72786l16.692917 0l0 16.692917l-16.692917 0z" fill-rule="evenodd"/><path fill="#ebebdc" d="m94.989655 120.898224l16.692917 0l0 16.692917l-16.692917 0z" fill-rule="evenodd"/><path fill="#ebebdc" d="m115.182915 120.898224l16.69291 0l0 16.692917l-16.69291 0z" fill-rule="evenodd"/><path fill="#ebebdc" d="m135.37617 120.898224l16.692917 0l0 16.692917l-16.692917 0z" fill-rule="evenodd"/><path fill="#ebebdc" d="m155.56944 120.898224l16.692917 0l0 16.692917l-16.692917 0z" fill-rule="evenodd"/><path fill="#ebebdc" d="m94.989655 141.06857l16.692917 0l0 16.692917l-16.692917 0z" fill-rule="evenodd"/><path fill="#ebebdc" d="m115.182915 141.06857l16.69291 0l0 16.692917l-16.69291 0z" fill-rule="evenodd"/><path fill="#ebebdc" d="m135.37617 141.06857l16.692917 0l0 16.692917l-16.692917 0z" fill-rule="evenodd"/><path fill="#ebebdc" d="m155.56944 141.06857l16.692917 0l0 16.692917l-16.692917 0z" fill-rule="evenodd"/><path fill="#ebebdc" d="m94.989655 161.23894l16.692917 0l0 16.692917l-16.692917 0z" fill-rule="evenodd"/><path fill="#ebebdc" d="m115.182915 161.23894l16.69291 0l0 16.692917l-16.69291 0z" fill-rule="evenodd"/><path fill="#ebebdc" d="m135.37617 161.23894l16.692917 0l0 16.692917l-16.692917 0z" fill-rule="evenodd"/><path fill="#ebebdc" d="m155.56944 161.23894l16.692917 0l0 16.692917l-16.692917 0z" fill-rule="evenodd"/><path fill="#ebebdc" d="m94.989655 181.4093l16.692917 0l0 16.692917l-16.692917 0z" fill-rule="evenodd"/><path fill="#ebebdc" d="m115.182915 181.4093l16.69291 0l0 16.692917l-16.69291 0z" fill-rule="evenodd"/><path fill="#ebebdc" d="m135.37617 181.4093l16.692917 0l0 16.692917l-16.692917 0z" fill-rule="evenodd"/><path fill="#ebebdc" d="m155.56944 181.4093l16.692917 0l0 16.692917l-16.692917 0z" fill-rule="evenodd"/><path fill="#ebebdc" d="m94.989655 201.57967l16.692917 0l0 16.692902l-16.692917 0z" fill-rule="evenodd"/><path fill="#ebebdc" d="m115.182915 201.57967l16.69291 0l0 16.692902l-16.69291 0z" fill-rule="evenodd"/><path fill="#ebebdc" d="m135.37617 201.57967l16.692917 0l0 16.692902l-16.692917 0z" fill-rule="evenodd"/><path fill="#ebebdc" d="m155.56944 201.57967l16.692917 0l0 16.692902l-16.692917 0z" fill-rule="evenodd"/><path fill="#ebebdc" d="m94.989655 221.75002l16.692917 0l0 16.692917l-16.692917 0z" fill-rule="evenodd"/><path fill="#ebebdc" d="m115.182915 221.75002l16.69291 0l0 16.692917l-16.69291 0z" fill-rule="evenodd"/><path fill="#ebebdc" d="m135.37617 221.75002l16.692917 0l0 16.692917l-16.692917 0z" fill-rule="evenodd"/><path fill="#ebebdc" d="m155.56944 221.75002l16.692917 0l0 16.692917l-16.692917 0z" fill-rule="evenodd"/><path fill="#ebebdc" d="m94.989655 241.92038l16.692917 0l0 16.692902l-16.692917 0z" fill-rule="evenodd"/><path fill="#ebebdc" d="m115.182915 241.92038l16.69291 0l0 16.692902l-16.69291 0z" fill-rule="evenodd"/><path fill="#ebebdc" d="m135.37617 241.92038l16.692917 0l0 16.692902l-16.692917 0z" fill-rule="evenodd"/><path fill="#ebebdc" d="m155.56944 241.92038l16.692917 0l0 16.692902l-16.692917 0z" fill-rule="evenodd"/><path fill="#ebebdc" d="m94.989655 262.09073l16.692917 0l0 16.692932l-16.692917 0z" fill-rule="evenodd"/><path fill="#ebebdc" d="m115.182915 262.09073l16.69291 0l0 16.692932l-16.69291 0z" fill-rule="evenodd"/><path fill="#ebebdc" d="m135.37617 262.09073l16.692917 0l0 16.692932l-16.692917 0z" fill-rule="evenodd"/><path fill="#ebebdc" d="m155.56944 262.09073l16.692917 0l0 16.692932l-16.692917 0z" fill-rule="evenodd"/><path fill="#ebebdc" d="m94.989655 282.2611l16.692917 0l0 16.692902l-16.692917 0z" fill-rule="evenodd"/><path fill="#ebebdc" d="m115.182915 282.2611l16.69291 0l0 16.692902l-16.69291 0z" fill-rule="evenodd"/><path fill="#ebebdc" d="m135.37617 282.2611l16.692917 0l0 16.692902l-16.692917 0z" fill-rule="evenodd"/><path fill="#ebebdc" d="m155.56944 282.2611l16.692917 0l0 16.692902l-16.692917 0z" fill-rule="evenodd"/><path fill="#ebebdc" d="m14.215377 -0.12394042l16.692913 0l0 16.692913l-16.692913 0z" fill-rule="evenodd"/><path fill="#ebebdc" d="m34.408638 -0.12394042l16.692917 0l0 16.692913l-16.692917 0z" fill-rule="evenodd"/><path fill="#ebebdc" d="m54.601906 -0.12394042l16.69291 0l0 16.692913l-16.69291 0z" fill-rule="evenodd"/><path fill="#ebebdc" d="m74.795166 -0.12394042l16.692917 0l0 16.692913l-16.692917 0z" fill-rule="evenodd"/><path fill="#ebebdc" d="m14.215377 20.04642l16.692913 0l0 16.692915l-16.692913 0z" fill-rule="evenodd"/><path fill="#ebebdc" d="m34.408638 20.04642l16.692917 0l0 16.692915l-16.692917 0z" fill-rule="evenodd"/><path fill="#ebebdc" d="m54.601906 20.04642l16.69291 0l0 16.692915l-16.69291 0z" fill-rule="evenodd"/><path fill="#ebebdc" d="m74.795166 20.04642l16.692917 0l0 16.692915l-16.692917 0z" fill-rule="evenodd"/><path fill="#ebebdc" d="m14.215377 40.21678l16.692913 0l0 16.692913l-16.692913 0z" fill-rule="evenodd"/><path fill="#ebebdc" d="m34.408638 40.21678l16.692917 0l0 16.692913l-16.692917 0z" fill-rule="evenodd"/><path fill="#ebebdc" d="m54.601906 40.21678l16.69291 0l0 16.692913l-16.69291 0z" fill-rule="evenodd"/><path fill="#ebebdc" d="m74.795166 40.21678l16.692917 0l0 16.692913l-16.692917 0z" fill-rule="evenodd"/><path fill="#ebebdc" d="m14.215377 60.38714l16.692913 0l0 16.692917l-16.692913 0z" fill-rule="evenodd"/><path fill="#ebebdc" d="m34.408638 60.38714l16.692917 0l0 16.692917l-16.692917 0z" fill-rule="evenodd"/><path fill="#ebebdc" d="m54.601906 60.38714l16.69291 0l0 16.692917l-16.69291 0z" fill-rule="evenodd"/><path fill="#ebebdc" d="m74.795166 60.38714l16.692917 0l0 16.692917l-16.692917 0z" fill-rule="evenodd"/><path fill="#ebebdc" d="m14.215377 80.5575l16.692913 0l0 16.69291l-16.692913 0z" fill-rule="evenodd"/><path fill="#ebebdc" d="m34.408638 80.5575l16.692917 0l0 16.69291l-16.692917 0z" fill-rule="evenodd"/><path fill="#ebebdc" d="m54.601906 80.5575l16.69291 0l0 16.69291l-16.69291 0z" fill-rule="evenodd"/><path fill="#ebebdc" d="m74.795166 80.5575l16.692917 0l0 16.69291l-16.692917 0z" fill-rule="evenodd"/><path fill="#ebebdc" d="m14.215377 100.72786l16.692913 0l0 16.692917l-16.692913 0z" fill-rule="evenodd"/><path fill="#ebebdc" d="m34.408638 100.72786l16.692917 0l0 16.692917l-16.692917 0z" fill-rule="evenodd"/><path fill="#ebebdc" d="m54.601906 100.72786l16.69291 0l0 16.692917l-16.69291 0z" fill-rule="evenodd"/><path fill="#ebebdc" d="m74.795166 100.72786l16.692917 0l0 16.692917l-16.692917 0z" fill-rule="evenodd"/><path fill="#ebebdc" d="m14.215377 120.898224l16.692913 0l0 16.692917l-16.692913 0z" fill-rule="evenodd"/><path fill="#ebebdc" d="m34.408638 120.898224l16.692917 0l0 16.692917l-16.692917 0z" fill-rule="evenodd"/><path fill="#ebebdc" d="m54.601906 120.898224l16.69291 0l0 16.692917l-16.69291 0z" fill-rule="evenodd"/><path fill="#ebebdc" d="m74.795166 120.898224l16.692917 0l0 16.692917l-16.692917 0z" fill-rule="evenodd"/><path fill="#ebebdc" d="m14.215377 141.06857l16.692913 0l0 16.692917l-16.692913 0z" fill-rule="evenodd"/><path fill="#ebebdc" d="m34.408638 141.06857l16.692917 0l0 16.692917l-16.692917 0z" fill-rule="evenodd"/><path fill="#ebebdc" d="m54.601906 141.06857l16.69291 0l0 16.692917l-16.69291 0z" fill-rule="evenodd"/><path fill="#ebebdc" d="m74.795166 141.06857l16.692917 0l0 16.692917l-16.692917 0z" fill-rule="evenodd"/><path fill="#ebebdc" d="m14.215377 161.23894l16.692913 0l0 16.692917l-16.692913 0z" fill-rule="evenodd"/><path fill="#ebebdc" d="m34.408638 161.23894l16.692917 0l0 16.692917l-16.692917 0z" fill-rule="evenodd"/><path fill="#ebebdc" d="m54.601906 161.23894l16.69291 0l0 16.692917l-16.69291 0z" fill-rule="evenodd"/><path fill="#ebebdc" d="m74.795166 161.23894l16.692917 0l0 16.692917l-16.692917 0z" fill-rule="evenodd"/><path fill="#ebebdc" d="m14.215377 181.4093l16.692913 0l0 16.692917l-16.692913 0z" fill-rule="evenodd"/><path fill="#ebebdc" d="m34.408638 181.4093l16.692917 0l0 16.692917l-16.692917 0z" fill-rule="evenodd"/><path fill="#ebebdc" d="m54.601906 181.4093l16.69291 0l0 16.692917l-16.69291 0z" fill-rule="evenodd"/><path fill="#ebebdc" d="m74.795166 181.4093l16.692917 0l0 16.692917l-16.692917 0z" fill-rule="evenodd"/><path fill="#ebebdc" d="m14.215377 201.57967l16.692913 0l0 16.692902l-16.692913 0z" fill-rule="evenodd"/><path fill="#ebebdc" d="m34.408638 201.57967l16.692917 0l0 16.692902l-16.692917 0z" fill-rule="evenodd"/><path fill="#ebebdc" d="m54.601906 201.57967l16.69291 0l0 16.692902l-16.69291 0z" fill-rule="evenodd"/><path fill="#ebebdc" d="m74.795166 201.57967l16.692917 0l0 16.692902l-16.692917 0z" fill-rule="evenodd"/><path fill="#ebebdc" d="m14.215377 221.75002l16.692913 0l0 16.692917l-16.692913 0z" fill-rule="evenodd"/><path fill="#ebebdc" d="m34.408638 221.75002l16.692917 0l0 16.692917l-16.692917 0z" fill-rule="evenodd"/><path fill="#ebebdc" d="m54.601906 221.75002l16.69291 0l0 16.692917l-16.69291 0z" fill-rule="evenodd"/><path fill="#ebebdc" d="m74.795166 221.75002l16.692917 0l0 16.692917l-16.692917 0z" fill-rule="evenodd"/><path fill="#ebebdc" d="m14.215377 241.92038l16.692913 0l0 16.692902l-16.692913 0z" fill-rule="evenodd"/><path fill="#ebebdc" d="m34.408638 241.92038l16.692917 0l0 16.692902l-16.692917 0z" fill-rule="evenodd"/><path fill="#ebebdc" d="m54.601906 241.92038l16.69291 0l0 16.692902l-16.69291 0z" fill-rule="evenodd"/><path fill="#ebebdc" d="m74.795166 241.92038l16.692917 0l0 16.692902l-16.692917 0z" fill-rule="evenodd"/><path fill="#ebebdc" d="m14.215377 262.09073l16.692913 0l0 16.692932l-16.692913 0z" fill-rule="evenodd"/><path fill="#ebebdc" d="m34.408638 262.09073l16.692917 0l0 16.692932l-16.692917 0z" fill-rule="evenodd"/><path fill="#ebebdc" d="m54.601906 262.09073l16.69291 0l0 16.692932l-16.69291 0z" fill-rule="evenodd"/><path fill="#ebebdc" d="m74.795166 262.09073l16.692917 0l0 16.692932l-16.692917 0z" fill-rule="evenodd"/><path fill="#ebebdc" d="m14.215377 282.2611l16.692913 0l0 16.692902l-16.692913 0z" fill-rule="evenodd"/><path fill="#ebebdc" d="m34.408638 282.2611l16.692917 0l0 16.692902l-16.692917 0z" fill-rule="evenodd"/><path fill="#ebebdc" d="m54.601906 282.2611l16.69291 0l0 16.692902l-16.69291 0z" fill-rule="evenodd"/><path fill="#ebebdc" d="m74.795166 282.2611l16.692917 0l0 16.692902l-16.692917 0z" fill-rule="evenodd"/><path fill="#ebebdc" d="m-5.9788494 -0.12394042l16.692913 0l0 16.692913l-16.692913 0z" fill-rule="evenodd"/><path fill="#ebebdc" d="m-5.9788494 20.04642l16.692913 0l0 16.692915l-16.692913 0z" fill-rule="evenodd"/><path fill="#ebebdc" d="m-5.9788494 40.21678l16.692913 0l0 16.692913l-16.692913 0z" fill-rule="evenodd"/><path fill="#ebebdc" d="m-5.9788494 60.38714l16.692913 0l0 16.692917l-16.692913 0z" fill-rule="evenodd"/><path fill="#ebebdc" d="m-5.9788494 80.5575l16.692913 0l0 16.69291l-16.692913 0z" fill-rule="evenodd"/><path fill="#ebebdc" d="m-5.9788494 100.72786l16.692913 0l0 16.692917l-16.692913 0z" fill-rule="evenodd"/><path fill="#ebebdc" d="m-5.9788494 120.898224l16.692913 0l0 16.692917l-16.692913 0z" fill-rule="evenodd"/><path fill="#ebebdc" d="m-5.9788494 141.06857l16.692913 0l0 16.692917l-16.692913 0z" fill-rule="evenodd"/><path fill="#ebebdc" d="m-5.9788494 161.23894l16.692913 0l0 16.692917l-16.692913 0z" fill-rule="evenodd"/><path fill="#ebebdc" d="m-5.9788494 181.4093l16.692913 0l0 16.692917l-16.692913 0z" fill-rule="evenodd"/><path fill="#ebebdc" d="m-5.9788494 201.57967l16.692913 0l0 16.692902l-16.692913 0z" fill-rule="evenodd"/><path fill="#ebebdc" d="m-5.9788494 221.75002l16.692913 0l0 16.692917l-16.692913 0z" fill-rule="evenodd"/><path fill="#ebebdc" d="m-5.9788494 241.92038l16.692913 0l0 16.692902l-16.692913 0z" fill-rule="evenodd"/><path fill="#ebebdc" d="m-5.9788494 262.09073l16.692913 0l0 16.692932l-16.692913 0z" fill-rule="evenodd"/><path fill="#ebebdc" d="m-5.9788494 282.2611l16.692913 0l0 16.692902l-16.692913 0z" fill-rule="evenodd"/></g></svg>