<svg version="1.1" viewBox="0.0 0.0 960.0 300.0" fill="none" stroke="none" stroke-linecap="square" stroke-miterlimit="10" xmlns:xlink="http://www.w3.org/1999/xlink" xmlns="http://www.w3.org/2000/svg"><clipPath id="p.0"><path d="m0 0l960.0 0l0 300.0l-960.0 0l0 -300.0z" clip-rule="nonzero"/></clipPath><g clip-path="url(#p.0)"><path fill="#ffffff" d="m0 0l960.0 0l0 300.0l-960.0 0z" fill-rule="evenodd"/><path fill="#ebebdc" d="m1.5328084E-4 0.91149265l16.692915 0l0 16.692913l-16.692915 0z" fill-rule="evenodd"/><path fill="#ebebdc" d="m20.193417 0.91149265l16.692913 0l0 16.692913l-16.692913 0z" fill-rule="evenodd"/><path fill="#ebebdc" d="m40.38668 0.91149265l16.692913 0l0 16.692913l-16.692913 0z" fill-rule="evenodd"/><path fill="#ebebdc" d="m60.579945 0.91149265l16.692913 0l0 16.692913l-16.692913 0z" fill-rule="evenodd"/><path fill="#ebebdc" d="m80.77199 0.91149265l16.692917 0l0 16.692913l-16.692917 0z" fill-rule="evenodd"/><path fill="#ebebdc" d="m100.965256 0.91149265l16.69291 0l0 16.692913l-16.69291 0z" fill-rule="evenodd"/><path fill="#ebebdc" d="m121.158516 0.91149265l16.69291 0l0 16.692913l-16.69291 0z" fill-rule="evenodd"/><path fill="#ebebdc" d="m141.35178 0.91149265l16.692917 0l0 16.692913l-16.692917 0z" fill-rule="evenodd"/><path fill="#ebebdc" d="m1.5328084E-4 20.973562l16.692915 0l0 16.692915l-16.692915 0z" fill-rule="evenodd"/><path fill="#ebebdc" d="m20.193417 20.973562l16.692913 0l0 16.692915l-16.692913 0z" fill-rule="evenodd"/><path fill="#ebebdc" d="m40.38668 20.973562l16.692913 0l0 16.692915l-16.692913 0z" fill-rule="evenodd"/><path fill="#ebebdc" d="m60.579945 20.973562l16.692913 0l0 16.692915l-16.692913 0z" fill-rule="evenodd"/><path fill="#ebebdc" d="m80.77199 20.973562l16.692917 0l0 16.692915l-16.692917 0z" fill-rule="evenodd"/><path fill="#ebebdc" d="m100.965256 20.973562l16.69291 0l0 16.692915l-16.69291 0z" fill-rule="evenodd"/><path fill="#ebebdc" d="m121.158516 20.973562l16.69291 0l0 16.692915l-16.69291 0z" fill-rule="evenodd"/><path fill="#ebebdc" d="m141.35178 20.973562l16.692917 0l0 16.692915l-16.692917 0z" fill-rule="evenodd"/><path fill="#ebebdc" d="m161.54382 0.91149265l16.692917 0l0 16.692913l-16.692917 0z" fill-rule="evenodd"/><path fill="#ebebdc" d="m181.73709 0.91149265l16.692917 0l0 16.692913l-16.692917 0z" fill-rule="evenodd"/><path fill="#ebebdc" d="m201.93036 0.91149265l16.692902 0l0 16.692913l-16.692902 0z" fill-rule="evenodd"/><path fill="#ebebdc" d="m222.12361 0.91149265l16.692917 0l0 16.692913l-16.692917 0z" fill-rule="evenodd"/><path fill="#ebebdc" d="m242.31566 0.91149265l16.692917 0l0 16.692913l-16.692917 0z" fill-rule="evenodd"/><path fill="#ebebdc" d="m262.5089 0.91149265l16.692932 0l0 16.692913l-16.692932 0z" fill-rule="evenodd"/><path fill="#ebebdc" d="m282.70218 0.91149265l16.692932 0l0 16.692913l-16.692932 0z" fill-rule="evenodd"/><path fill="#ebebdc" d="m302.89545 0.91149265l16.692932 0l0 16.692913l-16.692932 0z" fill-rule="evenodd"/><path fill="#ebebdc" d="m161.54382 20.973562l16.692917 0l0 16.692915l-16.692917 0z" fill-rule="evenodd"/><path fill="#ebebdc" d="m181.73709 20.973562l16.692917 0l0 16.692915l-16.692917 0z" fill-rule="evenodd"/><path fill="#47402e" d="m201.93036 20.973562l16.692902 0l0 16.692915l-16.692902 0z" fill-rule="evenodd"/><path fill="#927b67" d="m222.12361 20.973562l16.692917 0l0 16.692915l-16.692917 0z" fill-rule="evenodd"/><path fill="#ebebdc" d="m242.31566 20.973562l16.692917 0l0 16.692915l-16.692917 0z" fill-rule="evenodd"/><path fill="#ebebdc" d="m262.5089 20.973562l16.692932 0l0 16.692915l-16.692932 0z" fill-rule="evenodd"/><path fill="#ebebdc" d="m282.70218 20.973562l16.692932 0l0 16.692915l-16.692932 0z" fill-rule="evenodd"/><path fill="#ebebdc" d="m302.89545 20.973562l16.692932 0l0 16.692915l-16.692932 0z" fill-rule="evenodd"/><path fill="#ebebdc" d="m1.5328084E-4 41.427032l16.692915 0l0 16.692913l-16.692915 0z" fill-rule="evenodd"/><path fill="#ebebdc" d="m20.193417 41.427032l16.692913 0l0 16.692913l-16.692913 0z" fill-rule="evenodd"/><path fill="#ebebdc" d="m40.38668 41.427032l16.692913 0l0 16.692913l-16.692913 0z" fill-rule="evenodd"/><path fill="#ebebdc" d="m60.579945 41.427032l16.692913 0l0 16.692913l-16.692913 0z" fill-rule="evenodd"/><path fill="#ebebdc" d="m80.77199 41.427032l16.692917 0l0 16.692913l-16.692917 0z" fill-rule="evenodd"/><path fill="#ebebdc" d="m100.965256 41.427032l16.69291 0l0 16.692913l-16.69291 0z" fill-rule="evenodd"/><path fill="#ebebdc" d="m121.158516 41.427032l16.69291 0l0 16.692913l-16.69291 0z" fill-rule="evenodd"/><path fill="#927b67" d="m141.35178 41.427032l16.692917 0l0 16.692913l-16.692917 0z" fill-rule="evenodd"/><path fill="#ebebdc" d="m1.5328084E-4 61.4891l16.692915 0l0 16.692913l-16.692915 0z" fill-rule="evenodd"/><path fill="#ebebdc" d="m20.193417 61.4891l16.692913 0l0 16.692913l-16.692913 0z" fill-rule="evenodd"/><path fill="#ebebdc" d="m40.38668 61.4891l16.692913 0l0 16.692913l-16.692913 0z" fill-rule="evenodd"/><path fill="#ebebdc" d="m60.579945 61.4891l16.692913 0l0 16.692913l-16.692913 0z" fill-rule="evenodd"/><path fill="#ed8171" d="m80.77199 61.4891l16.692917 0l0 16.692913l-16.692917 0z" fill-rule="evenodd"/><path fill="#75151e" d="m100.965256 61.4891l16.69291 0l0 16.692913l-16.69291 0z" fill-rule="evenodd"/><path fill="#ebebdc" d="m121.158516 61.4891l16.69291 0l0 16.692913l-16.69291 0z" fill-rule="evenodd"/><path fill="#47402e" d="m141.35178 61.4891l16.692917 0l0 16.692913l-16.692917 0z" fill-rule="evenodd"/><path fill="#ebebdc" d="m161.54382 41.427032l16.692917 0l0 16.692913l-16.692917 0z" fill-rule="evenodd"/><path fill="#ebebdc" d="m181.73709 41.427032l16.692917 0l0 16.692913l-16.692917 0z" fill-rule="evenodd"/><path fill="#ebebdc" d="m201.93036 41.427032l16.692902 0l0 16.692913l-16.692902 0z" fill-rule="evenodd"/><path fill="#47402e" d="m222.12361 41.427032l16.692917 0l0 16.692913l-16.692917 0z" fill-rule="evenodd"/><path fill="#ebebdc" d="m242.31566 41.427032l16.692917 0l0 16.692913l-16.692917 0z" fill-rule="evenodd"/><path fill="#ebebdc" d="m262.5089 41.427032l16.692932 0l0 16.692913l-16.692932 0z" fill-rule="evenodd"/><path fill="#ebebdc" d="m282.70218 41.427032l16.692932 0l0 16.692913l-16.692932 0z" fill-rule="evenodd"/><path fill="#ebebdc" d="m302.89545 41.427032l16.692932 0l0 16.692913l-16.692932 0z" fill-rule="evenodd"/><path fill="#ebebdc" d="m161.54382 61.4891l16.692917 0l0 16.692913l-16.692917 0z" fill-rule="evenodd"/><path fill="#ebebdc" d="m181.73709 61.4891l16.692917 0l0 16.692913l-16.692917 0z" fill-rule="evenodd"/><path fill="#ebebdc" d="m201.93036 61.4891l16.692902 0l0 16.692913l-16.692902 0z" fill-rule="evenodd"/><path fill="#ebebdc" d="m222.12361 61.4891l16.692917 0l0 16.692913l-16.692917 0z" fill-rule="evenodd"/><path fill="#47402e" d="m242.31566 61.4891l16.692917 0l0 16.692913l-16.692917 0z" fill-rule="evenodd"/><path fill="#927b67" d="m262.5089 61.4891l16.692932 0l0 16.692913l-16.692932 0z" fill-rule="evenodd"/><path fill="#ebebdc" d="m282.70218 61.4891l16.692932 0l0 16.692913l-16.692932 0z" fill-rule="evenodd"/><path fill="#ebebdc" d="m302.89545 61.4891l16.692932 0l0 16.692913l-16.692932 0z" fill-rule="evenodd"/><path fill="#ebebdc" d="m1.5328084E-4 81.40437l16.692915 0l0 16.692917l-16.692915 0z" fill-rule="evenodd"/><path fill="#ebebdc" d="m20.193417 81.40437l16.692913 0l0 16.692917l-16.692913 0z" fill-rule="evenodd"/><path fill="#ebebdc" d="m40.38668 81.40437l16.692913 0l0 16.692917l-16.692913 0z" fill-rule="evenodd"/><path fill="#ebebdc" d="m60.579945 81.40437l16.692913 0l0 16.692917l-16.692913 0z" fill-rule="evenodd"/><path fill="#ed8171" d="m80.77199 81.40437l16.692917 0l0 16.692917l-16.692917 0z" fill-rule="evenodd"/><path fill="#927b67" d="m100.965256 81.40437l16.69291 0l0 16.692917l-16.69291 0z" fill-rule="evenodd"/><path fill="#ebebdc" d="m121.158516 81.40437l16.69291 0l0 16.692917l-16.69291 0z" fill-rule="evenodd"/><path fill="#ebebdc" d="m141.35178 81.40437l16.692917 0l0 16.692917l-16.692917 0z" fill-rule="evenodd"/><path fill="#ebebdc" d="m1.5328084E-4 101.466446l16.692915 0l0 16.69291l-16.692915 0z" fill-rule="evenodd"/><path fill="#ebebdc" d="m20.193417 101.466446l16.692913 0l0 16.69291l-16.692913 0z" fill-rule="evenodd"/><path fill="#ebebdc" d="m40.38668 101.466446l16.692913 0l0 16.69291l-16.692913 0z" fill-rule="evenodd"/><path fill="#ebebdc" d="m60.579945 101.466446l16.692913 0l0 16.69291l-16.692913 0z" fill-rule="evenodd"/><path fill="#ebebdc" d="m80.77199 101.466446l16.692917 0l0 16.69291l-16.692917 0z" fill-rule="evenodd"/><path fill="#ebebdc" d="m100.965256 101.466446l16.69291 0l0 16.69291l-16.69291 0z" fill-rule="evenodd"/><path fill="#47402e" d="m121.158516 101.466446l16.69291 0l0 16.69291l-16.69291 0z" fill-rule="evenodd"/><path fill="#ebebdc" d="m141.35178 101.466446l16.692917 0l0 16.69291l-16.692917 0z" fill-rule="evenodd"/><path fill="#47402e" d="m161.54382 81.40437l16.692917 0l0 16.692917l-16.692917 0z" fill-rule="evenodd"/><path fill="#ebebdc" d="m181.73709 81.40437l16.692917 0l0 16.692917l-16.692917 0z" fill-rule="evenodd"/><path fill="#ebebdc" d="m201.93036 81.40437l16.692902 0l0 16.692917l-16.692902 0z" fill-rule="evenodd"/><path fill="#ebebdc" d="m222.12361 81.40437l16.692917 0l0 16.692917l-16.692917 0z" fill-rule="evenodd"/><path fill="#ebebdc" d="m242.31566 81.40437l16.692917 0l0 16.692917l-16.692917 0z" fill-rule="evenodd"/><path fill="#47402e" d="m262.5089 81.40437l16.692932 0l0 16.692917l-16.692932 0z" fill-rule="evenodd"/><path fill="#47402e" d="m282.70218 81.40437l16.692932 0l0 16.692917l-16.692932 0z" fill-rule="evenodd"/><path fill="#47402e" d="m302.89545 81.40437l16.692932 0l0 16.692917l-16.692932 0z" fill-rule="evenodd"/><path fill="#ebebdc" d="m161.54382 101.466446l16.692917 0l0 16.69291l-16.692917 0z" fill-rule="evenodd"/><path fill="#47402e" d="m181.73709 101.466446l16.692917 0l0 16.69291l-16.692917 0z" fill-rule="evenodd"/><path fill="#67ca16" d="m201.93036 101.466446l16.692902 0l0 16.69291l-16.692902 0z" fill-rule="evenodd"/><path fill="#ebebdc" d="m222.12361 101.466446l16.692917 0l0 16.69291l-16.692917 0z" fill-rule="evenodd"/><path fill="#ebebdc" d="m242.31566 101.466446l16.692917 0l0 16.69291l-16.692917 0z" fill-rule="evenodd"/><path fill="#ebebdc" d="m262.5089 101.466446l16.692932 0l0 16.69291l-16.692932 0z" fill-rule="evenodd"/><path fill="#ebebdc" d="m282.70218 101.466446l16.692932 0l0 16.69291l-16.692932 0z" fill-rule="evenodd"/><path fill="#ebebdc" d="m302.89545 101.466446l16.692932 0l0 16.69291l-16.692932 0z" fill-rule="evenodd"/><path fill="#ebebdc" d="m1.5328084E-4 121.919914l16.692915 0l0 16.69291l-16.692915 0z" fill-rule="evenodd"/><path fill="#ebebdc" d="m20.193417 121.919914l16.692913 0l0 16.69291l-16.692913 0z" fill-rule="evenodd"/><path fill="#ebebdc" d="m40.38668 121.919914l16.692913 0l0 16.69291l-16.692913 0z" fill-rule="evenodd"/><path fill="#ebebdc" d="m60.579945 121.919914l16.692913 0l0 16.69291l-16.692913 0z" fill-rule="evenodd"/><path fill="#ebebdc" d="m80.77199 121.919914l16.692917 0l0 16.69291l-16.692917 0z" fill-rule="evenodd"/><path fill="#ebebdc" d="m100.965256 121.919914l16.69291 0l0 16.69291l-16.69291 0z" fill-rule="evenodd"/><path fill="#67ca16" d="m121.158516 121.919914l16.69291 0l0 16.69291l-16.69291 0z" fill-rule="evenodd"/><path fill="#75151e" d="m141.35178 121.919914l16.692917 0l0 16.69291l-16.692917 0z" fill-rule="evenodd"/><path fill="#ebebdc" d="m1.5328084E-4 141.98198l16.692915 0l0 16.692917l-16.692915 0z" fill-rule="evenodd"/><path fill="#ebebdc" d="m20.193417 141.98198l16.692913 0l0 16.692917l-16.692913 0z" fill-rule="evenodd"/><path fill="#ebebdc" d="m40.38668 141.98198l16.692913 0l0 16.692917l-16.692913 0z" fill-rule="evenodd"/><path fill="#ebebdc" d="m60.579945 141.98198l16.692913 0l0 16.692917l-16.692913 0z" fill-rule="evenodd"/><path fill="#ebebdc" d="m80.77199 141.98198l16.692917 0l0 16.692917l-16.692917 0z" fill-rule="evenodd"/><path fill="#ebebdc" d="m100.965256 141.98198l16.69291 0l0 16.692917l-16.69291 0z" fill-rule="evenodd"/><path fill="#eeeeee" d="m121.158516 141.98198l16.69291 0l0 16.692917l-16.69291 0z" fill-rule="evenodd"/><path fill="#eeeeee" d="m141.35178 141.98198l16.692917 0l0 16.692917l-16.692917 0z" fill-rule="evenodd"/><path fill="#ebebdc" d="m161.54382 121.919914l16.692917 0l0 16.69291l-16.692917 0z" fill-rule="evenodd"/><path fill="#ebebdc" d="m181.73709 121.919914l16.692917 0l0 16.69291l-16.692917 0z" fill-rule="evenodd"/><path fill="#47402e" d="m201.93036 121.919914l16.692902 0l0 16.69291l-16.692902 0z" fill-rule="evenodd"/><path fill="#ebebdc" d="m222.12361 121.919914l16.692917 0l0 16.69291l-16.692917 0z" fill-rule="evenodd"/><path fill="#ebebdc" d="m242.31566 121.919914l16.692917 0l0 16.69291l-16.692917 0z" fill-rule="evenodd"/><path fill="#ebebdc" d="m262.5089 121.919914l16.692932 0l0 16.69291l-16.692932 0z" fill-rule="evenodd"/><path fill="#ffd966" d="m282.70218 121.919914l16.692932 0l0 16.69291l-16.692932 0z" fill-rule="evenodd"/><path fill="#47402e" d="m302.89545 121.919914l16.692932 0l0 16.69291l-16.692932 0z" fill-rule="evenodd"/><path fill="#47402e" d="m161.54382 141.98198l16.692917 0l0 16.692917l-16.692917 0z" fill-rule="evenodd"/><path fill="#47402e" d="m181.73709 141.98198l16.692917 0l0 16.692917l-16.692917 0z" fill-rule="evenodd"/><path fill="#75151e" d="m201.93036 141.98198l16.692902 0l0 16.692917l-16.692902 0z" fill-rule="evenodd"/><path fill="#47402e" d="m222.12361 141.98198l16.692917 0l0 16.692917l-16.692917 0z" fill-rule="evenodd"/><path fill="#ebebdc" d="m242.31566 141.98198l16.692917 0l0 16.692917l-16.692917 0z" fill-rule="evenodd"/><path fill="#ebebdc" d="m262.5089 141.98198l16.692932 0l0 16.692917l-16.692932 0z" fill-rule="evenodd"/><path fill="#47402e" d="m282.70218 141.98198l16.692932 0l0 16.692917l-16.692932 0z" fill-rule="evenodd"/><path fill="#ebebdc" d="m302.89545 141.98198l16.692932 0l0 16.692917l-16.692932 0z" fill-rule="evenodd"/><path fill="#ebebdc" d="m1.5328084E-4 162.28812l16.692915 0l0 16.692917l-16.692915 0z" fill-rule="evenodd"/><path fill="#ebebdc" d="m20.193417 162.28812l16.692913 0l0 16.692917l-16.692913 0z" fill-rule="evenodd"/><path fill="#ebebdc" d="m40.38668 162.28812l16.692913 0l0 16.692917l-16.692913 0z" fill-rule="evenodd"/><path fill="#ebebdc" d="m60.579945 162.28812l16.692913 0l0 16.692917l-16.692913 0z" fill-rule="evenodd"/><path fill="#ebebdc" d="m80.77199 162.28812l16.692917 0l0 16.692917l-16.692917 0z" fill-rule="evenodd"/><path fill="#ebebdc" d="m100.965256 162.28812l16.69291 0l0 16.692917l-16.69291 0z" fill-rule="evenodd"/><path fill="#ebebdc" d="m121.158516 162.28812l16.69291 0l0 16.692917l-16.69291 0z" fill-rule="evenodd"/><path fill="#ebebdc" d="m141.35178 162.28812l16.692917 0l0 16.692917l-16.692917 0z" fill-rule="evenodd"/><path fill="#ebebdc" d="m1.5328084E-4 182.35019l16.692915 0l0 16.692902l-16.692915 0z" fill-rule="evenodd"/><path fill="#ebebdc" d="m20.193417 182.35019l16.692913 0l0 16.692902l-16.692913 0z" fill-rule="evenodd"/><path fill="#ebebdc" d="m40.38668 182.35019l16.692913 0l0 16.692902l-16.692913 0z" fill-rule="evenodd"/><path fill="#ebebdc" d="m60.579945 182.35019l16.692913 0l0 16.692902l-16.692913 0z" fill-rule="evenodd"/><path fill="#ebebdc" d="m80.77199 182.35019l16.692917 0l0 16.692902l-16.692917 0z" fill-rule="evenodd"/><path fill="#ebebdc" d="m100.965256 182.35019l16.69291 0l0 16.692902l-16.69291 0z" fill-rule="evenodd"/><path fill="#ebebdc" d="m121.158516 182.35019l16.69291 0l0 16.692902l-16.69291 0z" fill-rule="evenodd"/><path fill="#ebebdc" d="m141.35178 182.35019l16.692917 0l0 16.692902l-16.692917 0z" fill-rule="evenodd"/><path fill="#ebebdc" d="m161.54382 162.28812l16.692917 0l0 16.692917l-16.692917 0z" fill-rule="evenodd"/><path fill="#ebebdc" d="m181.73709 162.28812l16.692917 0l0 16.692917l-16.692917 0z" fill-rule="evenodd"/><path fill="#ebebdc" d="m201.93036 162.28812l16.692902 0l0 16.692917l-16.692902 0z" fill-rule="evenodd"/><path fill="#ebebdc" d="m222.12361 162.28812l16.692917 0l0 16.692917l-16.692917 0z" fill-rule="evenodd"/><path fill="#75151e" d="m242.31566 162.28812l16.692917 0l0 16.692917l-16.692917 0z" fill-rule="evenodd"/><path fill="#47402e" d="m262.5089 162.28812l16.692932 0l0 16.692917l-16.692932 0z" fill-rule="evenodd"/><path fill="#ebebdc" d="m282.70218 162.28812l16.692932 0l0 16.692917l-16.692932 0z" fill-rule="evenodd"/><path fill="#ebebdc" d="m302.89545 162.28812l16.692932 0l0 16.692917l-16.692932 0z" fill-rule="evenodd"/><path fill="#ebebdc" d="m161.54382 182.35019l16.692917 0l0 16.692902l-16.692917 0z" fill-rule="evenodd"/><path fill="#ebebdc" d="m181.73709 182.35019l16.692917 0l0 16.692902l-16.692917 0z" fill-rule="evenodd"/><path fill="#ebebdc" d="m201.93036 182.35019l16.692902 0l0 16.692902l-16.692902 0z" fill-rule="evenodd"/><path fill="#ebebdc" d="m222.12361 182.35019l16.692917 0l0 16.692902l-16.692917 0z" fill-rule="evenodd"/><path fill="#ebebdc" d="m242.31566 182.35019l16.692917 0l0 16.692902l-16.692917 0z" fill-rule="evenodd"/><path fill="#ebebdc" d="m262.5089 182.35019l16.692932 0l0 16.692902l-16.692932 0z" fill-rule="evenodd"/><path fill="#ebebdc" d="m282.70218 182.35019l16.692932 0l0 16.692902l-16.692932 0z" fill-rule="evenodd"/><path fill="#ebebdc" d="m302.89545 182.35019l16.692932 0l0 16.692902l-16.692932 0z" fill-rule="evenodd"/><path fill="#ebebdc" d="m1.5328084E-4 202.80365l16.692915 0l0 16.692917l-16.692915 0z" fill-rule="evenodd"/><path fill="#ebebdc" d="m20.193417 202.80365l16.692913 0l0 16.692917l-16.692913 0z" fill-rule="evenodd"/><path fill="#ebebdc" d="m40.38668 202.80365l16.692913 0l0 16.692917l-16.692913 0z" fill-rule="evenodd"/><path fill="#ebebdc" d="m60.579945 202.80365l16.692913 0l0 16.692917l-16.692913 0z" fill-rule="evenodd"/><path fill="#ebebdc" d="m80.77199 202.80365l16.692917 0l0 16.692917l-16.692917 0z" fill-rule="evenodd"/><path fill="#ebebdc" d="m100.965256 202.80365l16.69291 0l0 16.692917l-16.69291 0z" fill-rule="evenodd"/><path fill="#ebebdc" d="m121.158516 202.80365l16.69291 0l0 16.692917l-16.69291 0z" fill-rule="evenodd"/><path fill="#ebebdc" d="m141.35178 202.80365l16.692917 0l0 16.692917l-16.692917 0z" fill-rule="evenodd"/><path fill="#ebebdc" d="m1.5328084E-4 222.86572l16.692915 0l0 16.692917l-16.692915 0z" fill-rule="evenodd"/><path fill="#ebebdc" d="m20.193417 222.86572l16.692913 0l0 16.692917l-16.692913 0z" fill-rule="evenodd"/><path fill="#ebebdc" d="m40.38668 222.86572l16.692913 0l0 16.692917l-16.692913 0z" fill-rule="evenodd"/><path fill="#ebebdc" d="m60.579945 222.86572l16.692913 0l0 16.692917l-16.692913 0z" fill-rule="evenodd"/><path fill="#ebebdc" d="m80.77199 222.86572l16.692917 0l0 16.692917l-16.692917 0z" fill-rule="evenodd"/><path fill="#ebebdc" d="m100.965256 222.86572l16.69291 0l0 16.692917l-16.69291 0z" fill-rule="evenodd"/><path fill="#ebebdc" d="m121.158516 222.86572l16.69291 0l0 16.692917l-16.69291 0z" fill-rule="evenodd"/><path fill="#ebebdc" d="m141.35178 222.86572l16.692917 0l0 16.692917l-16.692917 0z" fill-rule="evenodd"/><path fill="#ebebdc" d="m161.54382 202.80365l16.692917 0l0 16.692917l-16.692917 0z" fill-rule="evenodd"/><path fill="#ebebdc" d="m181.73709 202.80365l16.692917 0l0 16.692917l-16.692917 0z" fill-rule="evenodd"/><path fill="#ebebdc" d="m201.93036 202.80365l16.692902 0l0 16.692917l-16.692902 0z" fill-rule="evenodd"/><path fill="#ebebdc" d="m222.12361 202.80365l16.692917 0l0 16.692917l-16.692917 0z" fill-rule="evenodd"/><path fill="#ebebdc" d="m242.31566 202.80365l16.692917 0l0 16.692917l-16.692917 0z" fill-rule="evenodd"/><path fill="#ebebdc" d="m262.5089 202.80365l16.692932 0l0 16.692917l-16.692932 0z" fill-rule="evenodd"/><path fill="#ebebdc" d="m282.70218 202.80365l16.692932 0l0 16.692917l-16.692932 0z" fill-rule="evenodd"/><path fill="#ebebdc" d="m302.89545 202.80365l16.692932 0l0 16.692917l-16.692932 0z" fill-rule="evenodd"/><path fill="#ebebdc" d="m161.54382 222.86572l16.692917 0l0 16.692917l-16.692917 0z" fill-rule="evenodd"/><path fill="#ebebdc" d="m181.73709 222.86572l16.692917 0l0 16.692917l-16.692917 0z" fill-rule="evenodd"/><path fill="#ebebdc" d="m201.93036 222.86572l16.692902 0l0 16.692917l-16.692902 0z" fill-rule="evenodd"/><path fill="#ebebdc" d="m222.12361 222.86572l16.692917 0l0 16.692917l-16.692917 0z" fill-rule="evenodd"/><path fill="#ebebdc" d="m242.31566 222.86572l16.692917 0l0 16.692917l-16.692917 0z" fill-rule="evenodd"/><path fill="#ebebdc" d="m262.5089 222.86572l16.692932 0l0 16.692917l-16.692932 0z" fill-rule="evenodd"/><path fill="#927b67" d="m282.70218 222.86572l16.692932 0l0 16.692917l-16.692932 0z" fill-rule="evenodd"/><path fill="#ebebdc" d="m302.89545 222.86572l16.692932 0l0 16.692917l-16.692932 0z" fill-rule="evenodd"/><path fill="#ebebdc" d="m1.5328084E-4 242.78099l16.692915 0l0 16.692917l-16.692915 0z" fill-rule="evenodd"/><path fill="#ebebdc" d="m20.193417 242.78099l16.692913 0l0 16.692917l-16.692913 0z" fill-rule="evenodd"/><path fill="#ebebdc" d="m40.38668 242.78099l16.692913 0l0 16.692917l-16.692913 0z" fill-rule="evenodd"/><path fill="#ebebdc" d="m60.579945 242.78099l16.692913 0l0 16.692917l-16.692913 0z" fill-rule="evenodd"/><path fill="#ebebdc" d="m80.77199 242.78099l16.692917 0l0 16.692917l-16.692917 0z" fill-rule="evenodd"/><path fill="#ebebdc" d="m100.965256 242.78099l16.69291 0l0 16.692917l-16.69291 0z" fill-rule="evenodd"/><path fill="#ebebdc" d="m121.158516 242.78099l16.69291 0l0 16.692917l-16.69291 0z" fill-rule="evenodd"/><path fill="#ebebdc" d="m141.35178 242.78099l16.692917 0l0 16.692917l-16.692917 0z" fill-rule="evenodd"/><path fill="#ebebdc" d="m1.5328084E-4 262.84308l16.692915 0l0 16.692902l-16.692915 0z" fill-rule="evenodd"/><path fill="#ebebdc" d="m20.193417 262.84308l16.692913 0l0 16.692902l-16.692913 0z" fill-rule="evenodd"/><path fill="#ebebdc" d="m40.38668 262.84308l16.692913 0l0 16.692902l-16.692913 0z" fill-rule="evenodd"/><path fill="#ebebdc" d="m60.579945 262.84308l16.692913 0l0 16.692902l-16.692913 0z" fill-rule="evenodd"/><path fill="#ebebdc" d="m80.77199 262.84308l16.692917 0l0 16.692902l-16.692917 0z" fill-rule="evenodd"/><path fill="#ebebdc" d="m100.965256 262.84308l16.69291 0l0 16.692902l-16.69291 0z" fill-rule="evenodd"/><path fill="#ebebdc" d="m121.158516 262.84308l16.69291 0l0 16.692902l-16.69291 0z" fill-rule="evenodd"/><path fill="#ebebdc" d="m141.35178 262.84308l16.692917 0l0 16.692902l-16.692917 0z" fill-rule="evenodd"/><path fill="#ebebdc" d="m161.54382 242.78099l16.692917 0l0 16.692917l-16.692917 0z" fill-rule="evenodd"/><path fill="#ffd966" d="m181.73709 242.78099l16.692917 0l0 16.692917l-16.692917 0z" fill-rule="evenodd"/><path fill="#ffd966" d="m201.93036 242.78099l16.692902 0l0 16.692917l-16.692902 0z" fill-rule="evenodd"/><path fill="#ffd966" d="m222.12361 242.78099l16.692917 0l0 16.692917l-16.692917 0z" fill-rule="evenodd"/><path fill="#ebebdc" d="m242.31566 242.78099l16.692917 0l0 16.692917l-16.692917 0z" fill-rule="evenodd"/><path fill="#47402e" d="m262.5089 242.78099l16.692932 0l0 16.692917l-16.692932 0z" fill-rule="evenodd"/><path fill="#47402e" d="m282.70218 242.78099l16.692932 0l0 16.692917l-16.692932 0z" fill-rule="evenodd"/><path fill="#47402e" d="m302.89545 242.78099l16.692932 0l0 16.692917l-16.692932 0z" fill-rule="evenodd"/><path fill="#ebebdc" d="m161.54382 262.84308l16.692917 0l0 16.692902l-16.692917 0z" fill-rule="evenodd"/><path fill="#ffd966" d="m181.73709 262.84308l16.692917 0l0 16.692902l-16.692917 0z" fill-rule="evenodd"/><path fill="#85d5f6" d="m201.93036 262.84308l16.692902 0l0 16.692902l-16.692902 0z" fill-rule="evenodd"/><path fill="#75151e" d="m222.12361 262.84308l16.692917 0l0 16.692902l-16.692917 0z" fill-rule="evenodd"/><path fill="#47402e" d="m242.31566 262.84308l16.692917 0l0 16.692902l-16.692917 0z" fill-rule="evenodd"/><path fill="#ebebdc" d="m262.5089 262.84308l16.692932 0l0 16.692902l-16.692932 0z" fill-rule="evenodd"/><path fill="#ebebdc" d="m282.70218 262.84308l16.692932 0l0 16.692902l-16.692932 0z" fill-rule="evenodd"/><path fill="#ebebdc" d="m302.89545 262.84308l16.692932 0l0 16.692902l-16.692932 0z" fill-rule="evenodd"/><path fill="#ebebdc" d="m1.5328084E-4 283.29654l16.692915 0l0 16.692902l-16.692915 0z" fill-rule="evenodd"/><path fill="#ebebdc" d="m20.193417 283.29654l16.692913 0l0 16.692902l-16.692913 0z" fill-rule="evenodd"/><path fill="#ebebdc" d="m40.38668 283.29654l16.692913 0l0 16.692902l-16.692913 0z" fill-rule="evenodd"/><path fill="#ebebdc" d="m60.579945 283.29654l16.692913 0l0 16.692902l-16.692913 0z" fill-rule="evenodd"/><path fill="#ebebdc" d="m80.77199 283.29654l16.692917 0l0 16.692902l-16.692917 0z" fill-rule="evenodd"/><path fill="#ebebdc" d="m100.965256 283.29654l16.69291 0l0 16.692902l-16.69291 0z" fill-rule="evenodd"/><path fill="#ebebdc" d="m121.158516 283.29654l16.69291 0l0 16.692902l-16.69291 0z" fill-rule="evenodd"/><path fill="#ebebdc" d="m141.35178 283.29654l16.692917 0l0 16.692902l-16.692917 0z" fill-rule="evenodd"/><path fill="#ebebdc" d="m161.54382 283.29654l16.692917 0l0 16.692902l-16.692917 0z" fill-rule="evenodd"/><path fill="#ffd966" d="m181.73709 283.29654l16.692917 0l0 16.692902l-16.692917 0z" fill-rule="evenodd"/><path fill="#ffd966" d="m201.93036 283.29654l16.692902 0l0 16.692902l-16.692902 0z" fill-rule="evenodd"/><path fill="#ffd966" d="m222.12361 283.29654l16.692917 0l0 16.692902l-16.692917 0z" fill-rule="evenodd"/><path fill="#ebebdc" d="m242.31566 283.29654l16.692917 0l0 16.692902l-16.692917 0z" fill-rule="evenodd"/><path fill="#ebebdc" d="m262.5089 283.29654l16.692932 0l0 16.692902l-16.692932 0z" fill-rule="evenodd"/><path fill="#ebebdc" d="m282.70218 283.29654l16.692932 0l0 16.692902l-16.692932 0z" fill-rule="evenodd"/><path fill="#ebebdc" d="m302.89545 283.29654l16.692932 0l0 16.692902l-16.692932 0z" fill-rule="evenodd"/><path fill="#ebebdc" d="m323.0875 0.91149265l16.692902 0l0 16.692913l-16.692902 0z" fill-rule="evenodd"/><path fill="#ebebdc" d="m343.28076 0.91149265l16.692902 0l0 16.692913l-16.692902 0z" fill-rule="evenodd"/><path fill="#ebebdc" d="m363.47403 0.91149265l16.692902 0l0 16.692913l-16.692902 0z" fill-rule="evenodd"/><path fill="#ebebdc" d="m383.6673 0.91149265l16.692902 0l0 16.692913l-16.692902 0z" fill-rule="evenodd"/><path fill="#ebebdc" d="m403.85934 0.91149265l16.692902 0l0 16.692913l-16.692902 0z" fill-rule="evenodd"/><path fill="#ebebdc" d="m424.05258 0.91149265l16.692932 0l0 16.692913l-16.692932 0z" fill-rule="evenodd"/><path fill="#ebebdc" d="m444.24585 0.91149265l16.692932 0l0 16.692913l-16.692932 0z" fill-rule="evenodd"/><path fill="#ebebdc" d="m464.43912 0.91149265l16.692902 0l0 16.692913l-16.692902 0z" fill-rule="evenodd"/><path fill="#ebebdc" d="m323.0875 20.973562l16.692902 0l0 16.692915l-16.692902 0z" fill-rule="evenodd"/><path fill="#ebebdc" d="m343.28076 20.973562l16.692902 0l0 16.692915l-16.692902 0z" fill-rule="evenodd"/><path fill="#ebebdc" d="m363.47403 20.973562l16.692902 0l0 16.692915l-16.692902 0z" fill-rule="evenodd"/><path fill="#ebebdc" d="m383.6673 20.973562l16.692902 0l0 16.692915l-16.692902 0z" fill-rule="evenodd"/><path fill="#ebebdc" d="m403.85934 20.973562l16.692902 0l0 16.692915l-16.692902 0z" fill-rule="evenodd"/><path fill="#ebebdc" d="m424.05258 20.973562l16.692932 0l0 16.692915l-16.692932 0z" fill-rule="evenodd"/><path fill="#ebebdc" d="m444.24585 20.973562l16.692932 0l0 16.692915l-16.692932 0z" fill-rule="evenodd"/><path fill="#ebebdc" d="m464.43912 20.973562l16.692902 0l0 16.692915l-16.692902 0z" fill-rule="evenodd"/><path fill="#ebebdc" d="m484.63116 0.91149265l16.692902 0l0 16.692913l-16.692902 0z" fill-rule="evenodd"/><path fill="#ebebdc" d="m504.82443 0.91149265l16.692902 0l0 16.692913l-16.692902 0z" fill-rule="evenodd"/><path fill="#ebebdc" d="m525.0177 0.91149265l16.692932 0l0 16.692913l-16.692932 0z" fill-rule="evenodd"/><path fill="#ebebdc" d="m545.21094 0.91149265l16.692932 0l0 16.692913l-16.692932 0z" fill-rule="evenodd"/><path fill="#ebebdc" d="m565.403 0.91149265l16.692871 0l0 16.692913l-16.692871 0z" fill-rule="evenodd"/><path fill="#ebebdc" d="m585.59625 0.91149265l16.692932 0l0 16.692913l-16.692932 0z" fill-rule="evenodd"/><path fill="#ebebdc" d="m605.78955 0.91149265l16.692871 0l0 16.692913l-16.692871 0z" fill-rule="evenodd"/><path fill="#ebebdc" d="m625.9828 0.91149265l16.692932 0l0 16.692913l-16.692932 0z" fill-rule="evenodd"/><path fill="#ebebdc" d="m484.63116 20.973562l16.692902 0l0 16.692915l-16.692902 0z" fill-rule="evenodd"/><path fill="#ebebdc" d="m504.82443 20.973562l16.692902 0l0 16.692915l-16.692902 0z" fill-rule="evenodd"/><path fill="#ebebdc" d="m525.0177 20.973562l16.692932 0l0 16.692915l-16.692932 0z" fill-rule="evenodd"/><path fill="#ebebdc" d="m545.21094 20.973562l16.692932 0l0 16.692915l-16.692932 0z" fill-rule="evenodd"/><path fill="#ebebdc" d="m565.403 20.973562l16.692871 0l0 16.692915l-16.692871 0z" fill-rule="evenodd"/><path fill="#ebebdc" d="m585.59625 20.973562l16.692932 0l0 16.692915l-16.692932 0z" fill-rule="evenodd"/><path fill="#ebebdc" d="m605.78955 20.973562l16.692871 0l0 16.692915l-16.692871 0z" fill-rule="evenodd"/><path fill="#ebebdc" d="m625.9828 20.973562l16.692932 0l0 16.692915l-16.692932 0z" fill-rule="evenodd"/><path fill="#ebebdc" d="m323.0875 41.427032l16.692902 0l0 16.692913l-16.692902 0z" fill-rule="evenodd"/><path fill="#ebebdc" d="m343.28076 41.427032l16.692902 0l0 16.692913l-16.692902 0z" fill-rule="evenodd"/><path fill="#ebebdc" d="m363.47403 41.427032l16.692902 0l0 16.692913l-16.692902 0z" fill-rule="evenodd"/><path fill="#ebebdc" d="m383.6673 41.427032l16.692902 0l0 16.692913l-16.692902 0z" fill-rule="evenodd"/><path fill="#ebebdc" d="m403.85934 41.427032l16.692902 0l0 16.692913l-16.692902 0z" fill-rule="evenodd"/><path fill="#ebebdc" d="m424.05258 41.427032l16.692932 0l0 16.692913l-16.692932 0z" fill-rule="evenodd"/><path fill="#ebebdc" d="m444.24585 41.427032l16.692932 0l0 16.692913l-16.692932 0z" fill-rule="evenodd"/><path fill="#ebebdc" d="m464.43912 41.427032l16.692902 0l0 16.692913l-16.692902 0z" fill-rule="evenodd"/><path fill="#47402e" d="m323.0875 61.4891l16.692902 0l0 16.692913l-16.692902 0z" fill-rule="evenodd"/><path fill="#ebebdc" d="m343.28076 61.4891l16.692902 0l0 16.692913l-16.692902 0z" fill-rule="evenodd"/><path fill="#ebebdc" d="m363.47403 61.4891l16.692902 0l0 16.692913l-16.692902 0z" fill-rule="evenodd"/><path fill="#ebebdc" d="m383.6673 61.4891l16.692902 0l0 16.692913l-16.692902 0z" fill-rule="evenodd"/><path fill="#ebebdc" d="m403.85934 61.4891l16.692902 0l0 16.692913l-16.692902 0z" fill-rule="evenodd"/><path fill="#ebebdc" d="m424.05258 61.4891l16.692932 0l0 16.692913l-16.692932 0z" fill-rule="evenodd"/><path fill="#ebebdc" d="m444.24585 61.4891l16.692932 0l0 16.692913l-16.692932 0z" fill-rule="evenodd"/><path fill="#ebebdc" d="m464.43912 61.4891l16.692902 0l0 16.692913l-16.692902 0z" fill-rule="evenodd"/><path fill="#ebebdc" d="m484.63116 41.427032l16.692902 0l0 16.692913l-16.692902 0z" fill-rule="evenodd"/><path fill="#ebebdc" d="m504.82443 41.427032l16.692902 0l0 16.692913l-16.692902 0z" fill-rule="evenodd"/><path fill="#ebebdc" d="m525.0177 41.427032l16.692932 0l0 16.692913l-16.692932 0z" fill-rule="evenodd"/><path fill="#ebebdc" d="m545.21094 41.427032l16.692932 0l0 16.692913l-16.692932 0z" fill-rule="evenodd"/><path fill="#ebebdc" d="m565.403 41.427032l16.692871 0l0 16.692913l-16.692871 0z" fill-rule="evenodd"/><path fill="#ebebdc" d="m585.59625 41.427032l16.692932 0l0 16.692913l-16.692932 0z" fill-rule="evenodd"/><path fill="#ebebdc" d="m605.78955 41.427032l16.692871 0l0 16.692913l-16.692871 0z" fill-rule="evenodd"/><path fill="#ebebdc" d="m625.9828 41.427032l16.692932 0l0 16.692913l-16.692932 0z" fill-rule="evenodd"/><path fill="#ebebdc" d="m484.63116 61.4891l16.692902 0l0 16.692913l-16.692902 0z" fill-rule="evenodd"/><path fill="#ebebdc" d="m504.82443 61.4891l16.692902 0l0 16.692913l-16.692902 0z" fill-rule="evenodd"/><path fill="#ebebdc" d="m525.0177 61.4891l16.692932 0l0 16.692913l-16.692932 0z" fill-rule="evenodd"/><path fill="#ffd966" d="m545.21094 61.4891l16.692932 0l0 16.692913l-16.692932 0z" fill-rule="evenodd"/><path fill="#ffd966" d="m565.403 61.4891l16.692871 0l0 16.692913l-16.692871 0z" fill-rule="evenodd"/><path fill="#ffd966" d="m585.59625 61.4891l16.692932 0l0 16.692913l-16.692932 0z" fill-rule="evenodd"/><path fill="#ebebdc" d="m605.78955 61.4891l16.692871 0l0 16.692913l-16.692871 0z" fill-rule="evenodd"/><path fill="#ebebdc" d="m625.9828 61.4891l16.692932 0l0 16.692913l-16.692932 0z" fill-rule="evenodd"/><path fill="#ebebdc" d="m323.0875 81.40437l16.692902 0l0 16.692917l-16.692902 0z" fill-rule="evenodd"/><path fill="#47402e" d="m343.28076 81.40437l16.692902 0l0 16.692917l-16.692902 0z" fill-rule="evenodd"/><path fill="#67ca16" d="m363.47403 81.40437l16.692902 0l0 16.692917l-16.692902 0z" fill-rule="evenodd"/><path fill="#ebebdc" d="m383.6673 81.40437l16.692902 0l0 16.692917l-16.692902 0z" fill-rule="evenodd"/><path fill="#ebebdc" d="m403.85934 81.40437l16.692902 0l0 16.692917l-16.692902 0z" fill-rule="evenodd"/><path fill="#ebebdc" d="m424.05258 81.40437l16.692932 0l0 16.692917l-16.692932 0z" fill-rule="evenodd"/><path fill="#ebebdc" d="m444.24585 81.40437l16.692932 0l0 16.692917l-16.692932 0z" fill-rule="evenodd"/><path fill="#ebebdc" d="m464.43912 81.40437l16.692902 0l0 16.692917l-16.692902 0z" fill-rule="evenodd"/><path fill="#ebebdc" d="m323.0875 101.466446l16.692902 0l0 16.69291l-16.692902 0z" fill-rule="evenodd"/><path fill="#ebebdc" d="m343.28076 101.466446l16.692902 0l0 16.69291l-16.692902 0z" fill-rule="evenodd"/><path fill="#47402e" d="m363.47403 101.466446l16.692902 0l0 16.69291l-16.692902 0z" fill-rule="evenodd"/><path fill="#ebebdc" d="m383.6673 101.31994l16.692902 0l0 16.69291l-16.692902 0z" fill-rule="evenodd"/><path fill="#ebebdc" d="m403.85934 101.466446l16.692902 0l0 16.69291l-16.692902 0z" fill-rule="evenodd"/><path fill="#ebebdc" d="m424.05258 101.466446l16.692932 0l0 16.69291l-16.692932 0z" fill-rule="evenodd"/><path fill="#ebebdc" d="m444.24585 101.466446l16.692932 0l0 16.69291l-16.692932 0z" fill-rule="evenodd"/><path fill="#ebebdc" d="m464.43912 101.466446l16.692902 0l0 16.69291l-16.692902 0z" fill-rule="evenodd"/><path fill="#ebebdc" d="m484.63116 81.40437l16.692902 0l0 16.692917l-16.692902 0z" fill-rule="evenodd"/><path fill="#ebebdc" d="m504.82443 81.40437l16.692902 0l0 16.692917l-16.692902 0z" fill-rule="evenodd"/><path fill="#ebebdc" d="m525.0177 81.40437l16.692932 0l0 16.692917l-16.692932 0z" fill-rule="evenodd"/><path fill="#ffd966" d="m545.21094 81.40437l16.692932 0l0 16.692917l-16.692932 0z" fill-rule="evenodd"/><path fill="#47402e" d="m565.403 81.40437l16.692871 0l0 16.692917l-16.692871 0z" fill-rule="evenodd"/><path fill="#ffd966" d="m585.59625 81.40437l16.692932 0l0 16.692917l-16.692932 0z" fill-rule="evenodd"/><path fill="#ebebdc" d="m605.78955 81.40437l16.692871 0l0 16.692917l-16.692871 0z" fill-rule="evenodd"/><path fill="#ebebdc" d="m625.9828 81.40437l16.692932 0l0 16.692917l-16.692932 0z" fill-rule="evenodd"/><path fill="#ebebdc" d="m484.63116 101.466446l16.692902 0l0 16.69291l-16.692902 0z" fill-rule="evenodd"/><path fill="#ebebdc" d="m504.82443 101.466446l16.692902 0l0 16.69291l-16.692902 0z" fill-rule="evenodd"/><path fill="#ebebdc" d="m525.0177 101.466446l16.692932 0l0 16.69291l-16.692932 0z" fill-rule="evenodd"/><path fill="#ffd966" d="m545.21094 101.466446l16.692932 0l0 16.69291l-16.692932 0z" fill-rule="evenodd"/><path fill="#ed8171" d="m565.403 101.466446l16.692871 0l0 16.69291l-16.692871 0z" fill-rule="evenodd"/><path fill="#47402e" d="m585.59625 101.466446l16.692932 0l0 16.69291l-16.692932 0z" fill-rule="evenodd"/><path fill="#ebebdc" d="m605.78955 101.466446l16.692871 0l0 16.69291l-16.692871 0z" fill-rule="evenodd"/><path fill="#ebebdc" d="m625.9828 101.466446l16.692932 0l0 16.69291l-16.692932 0z" fill-rule="evenodd"/><path fill="#47402e" d="m323.0875 121.919914l16.692902 0l0 16.69291l-16.692902 0z" fill-rule="evenodd"/><path fill="#75151e" d="m343.28076 121.919914l16.692902 0l0 16.69291l-16.692902 0z" fill-rule="evenodd"/><path fill="#47402e" d="m363.47403 121.919914l16.692902 0l0 16.69291l-16.692902 0z" fill-rule="evenodd"/><path fill="#47402e" d="m383.6673 121.919914l16.692902 0l0 16.69291l-16.692902 0z" fill-rule="evenodd"/><path fill="#ed8171" d="m403.85934 121.919914l16.692902 0l0 16.69291l-16.692902 0z" fill-rule="evenodd"/><path fill="#ebebdc" d="m424.05258 121.919914l16.692932 0l0 16.69291l-16.692932 0z" fill-rule="evenodd"/><path fill="#ebebdc" d="m444.24585 121.919914l16.692932 0l0 16.69291l-16.692932 0z" fill-rule="evenodd"/><path fill="#ebebdc" d="m464.43912 121.919914l16.692902 0l0 16.69291l-16.692902 0z" fill-rule="evenodd"/><path fill="#ebebdc" d="m323.0875 141.98198l16.692902 0l0 16.692917l-16.692902 0z" fill-rule="evenodd"/><path fill="#ebebdc" d="m343.28076 141.98198l16.692902 0l0 16.692917l-16.692902 0z" fill-rule="evenodd"/><path fill="#ebebdc" d="m363.47403 141.98198l16.692902 0l0 16.692917l-16.692902 0z" fill-rule="evenodd"/><path fill="#47402e" d="m383.6673 141.98198l16.692902 0l0 16.692917l-16.692902 0z" fill-rule="evenodd"/><path fill="#47402e" d="m403.85934 141.98198l16.692902 0l0 16.692917l-16.692902 0z" fill-rule="evenodd"/><path fill="#ebebdc" d="m424.05258 141.98198l16.692932 0l0 16.692917l-16.692932 0z" fill-rule="evenodd"/><path fill="#ebebdc" d="m444.24585 141.98198l16.692932 0l0 16.692917l-16.692932 0z" fill-rule="evenodd"/><path fill="#ebebdc" d="m464.43912 141.98198l16.692902 0l0 16.692917l-16.692902 0z" fill-rule="evenodd"/><path fill="#85d5f6" d="m484.63116 121.919914l16.692902 0l0 16.69291l-16.692902 0z" fill-rule="evenodd"/><path fill="#ebebdc" d="m504.82443 121.919914l16.692902 0l0 16.69291l-16.692902 0z" fill-rule="evenodd"/><path fill="#ebebdc" d="m525.0177 121.919914l16.692932 0l0 16.69291l-16.692932 0z" fill-rule="evenodd"/><path fill="#ebebdc" d="m545.21094 121.919914l16.692932 0l0 16.69291l-16.692932 0z" fill-rule="evenodd"/><path fill="#ebebdc" d="m565.403 121.919914l16.692871 0l0 16.69291l-16.692871 0z" fill-rule="evenodd"/><path fill="#ebebdc" d="m585.59625 121.919914l16.692932 0l0 16.69291l-16.692932 0z" fill-rule="evenodd"/><path fill="#47402e" d="m605.78955 121.919914l16.692871 0l0 16.69291l-16.692871 0z" fill-rule="evenodd"/><path fill="#ebebdc" d="m625.9828 121.919914l16.692932 0l0 16.69291l-16.692932 0z" fill-rule="evenodd"/><path fill="#47402e" d="m484.63116 141.98198l16.692902 0l0 16.692917l-16.692902 0z" fill-rule="evenodd"/><path fill="#ebebdc" d="m504.82443 141.98198l16.692902 0l0 16.692917l-16.692902 0z" fill-rule="evenodd"/><path fill="#ebebdc" d="m525.0177 141.98198l16.692932 0l0 16.692917l-16.692932 0z" fill-rule="evenodd"/><path fill="#ebebdc" d="m545.21094 141.98198l16.692932 0l0 16.692917l-16.692932 0z" fill-rule="evenodd"/><path fill="#ebebdc" d="m565.403 141.98198l16.692871 0l0 16.692917l-16.692871 0z" fill-rule="evenodd"/><path fill="#ebebdc" d="m585.59625 141.98198l16.692932 0l0 16.692917l-16.692932 0z" fill-rule="evenodd"/><path fill="#ebebdc" d="m605.78955 141.98198l16.692871 0l0 16.692917l-16.692871 0z" fill-rule="evenodd"/><path fill="#47402e" d="m625.9828 141.98198l16.692932 0l0 16.692917l-16.692932 0z" fill-rule="evenodd"/><path fill="#ebebdc" d="m323.0875 162.28812l16.692902 0l0 16.692917l-16.692902 0z" fill-rule="evenodd"/><path fill="#ebebdc" d="m343.28076 162.28812l16.692902 0l0 16.692917l-16.692902 0z" fill-rule="evenodd"/><path fill="#ebebdc" d="m363.47403 162.28812l16.692902 0l0 16.692917l-16.692902 0z" fill-rule="evenodd"/><path fill="#ebebdc" d="m383.6673 162.28812l16.692902 0l0 16.692917l-16.692902 0z" fill-rule="evenodd"/><path fill="#ebebdc" d="m403.85934 162.28812l16.692902 0l0 16.692917l-16.692902 0z" fill-rule="evenodd"/><path fill="#75151e" d="m424.05258 162.28812l16.692932 0l0 16.692917l-16.692932 0z" fill-rule="evenodd"/><path fill="#ebebdc" d="m444.24585 162.28812l16.692932 0l0 16.692917l-16.692932 0z" fill-rule="evenodd"/><path fill="#ebebdc" d="m464.43912 162.28812l16.692902 0l0 16.692917l-16.692902 0z" fill-rule="evenodd"/><path fill="#ebebdc" d="m323.0875 182.35019l16.692902 0l0 16.692902l-16.692902 0z" fill-rule="evenodd"/><path fill="#ebebdc" d="m343.28076 182.35019l16.692902 0l0 16.692902l-16.692902 0z" fill-rule="evenodd"/><path fill="#ebebdc" d="m363.47403 182.35019l16.692902 0l0 16.692902l-16.692902 0z" fill-rule="evenodd"/><path fill="#ebebdc" d="m383.6673 182.35019l16.692902 0l0 16.692902l-16.692902 0z" fill-rule="evenodd"/><path fill="#ebebdc" d="m403.85934 182.35019l16.692902 0l0 16.692902l-16.692902 0z" fill-rule="evenodd"/><path fill="#ebebdc" d="m424.05258 182.35019l16.692932 0l0 16.692902l-16.692932 0z" fill-rule="evenodd"/><path fill="#6c7059" d="m444.24585 182.35019l16.692932 0l0 16.692902l-16.692932 0z" fill-rule="evenodd"/><path fill="#ebebdc" d="m464.43912 182.35019l16.692902 0l0 16.692902l-16.692902 0z" fill-rule="evenodd"/><path fill="#ebebdc" d="m484.63116 162.28812l16.692902 0l0 16.692917l-16.692902 0z" fill-rule="evenodd"/><path fill="#47402e" d="m504.82443 162.28812l16.692902 0l0 16.692917l-16.692902 0z" fill-rule="evenodd"/><path fill="#ebebdc" d="m525.0177 162.28812l16.692932 0l0 16.692917l-16.692932 0z" fill-rule="evenodd"/><path fill="#ebebdc" d="m545.21094 162.28812l16.692932 0l0 16.692917l-16.692932 0z" fill-rule="evenodd"/><path fill="#ebebdc" d="m565.403 162.28812l16.692871 0l0 16.692917l-16.692871 0z" fill-rule="evenodd"/><path fill="#ebebdc" d="m585.59625 162.28812l16.692932 0l0 16.692917l-16.692932 0z" fill-rule="evenodd"/><path fill="#47402e" d="m605.78955 162.28812l16.692871 0l0 16.692917l-16.692871 0z" fill-rule="evenodd"/><path fill="#ebebdc" d="m625.9828 162.28812l16.692932 0l0 16.692917l-16.692932 0z" fill-rule="evenodd"/><path fill="#ebebdc" d="m484.63116 182.35019l16.692902 0l0 16.692902l-16.692902 0z" fill-rule="evenodd"/><path fill="#ebebdc" d="m504.82443 182.35019l16.692902 0l0 16.692902l-16.692902 0z" fill-rule="evenodd"/><path fill="#47402e" d="m525.0177 182.35019l16.692932 0l0 16.692902l-16.692932 0z" fill-rule="evenodd"/><path fill="#ebebdc" d="m545.21094 182.35019l16.692932 0l0 16.692902l-16.692932 0z" fill-rule="evenodd"/><path fill="#ebebdc" d="m565.403 182.35019l16.692871 0l0 16.692902l-16.692871 0z" fill-rule="evenodd"/><path fill="#ebebdc" d="m585.59625 182.35019l16.692932 0l0 16.692902l-16.692932 0z" fill-rule="evenodd"/><path fill="#47402e" d="m605.78955 182.35019l16.692871 0l0 16.692902l-16.692871 0z" fill-rule="evenodd"/><path fill="#ebebdc" d="m625.9828 182.35019l16.692932 0l0 16.692902l-16.692932 0z" fill-rule="evenodd"/><path fill="#ebebdc" d="m323.0875 202.80365l16.692902 0l0 16.692917l-16.692902 0z" fill-rule="evenodd"/><path fill="#ebebdc" d="m343.28076 202.80365l16.692902 0l0 16.692917l-16.692902 0z" fill-rule="evenodd"/><path fill="#ebebdc" d="m363.47403 202.80365l16.692902 0l0 16.692917l-16.692902 0z" fill-rule="evenodd"/><path fill="#ebebdc" d="m383.6673 202.80365l16.692902 0l0 16.692917l-16.692902 0z" fill-rule="evenodd"/><path fill="#ebebdc" d="m403.85934 202.80365l16.692902 0l0 16.692917l-16.692902 0z" fill-rule="evenodd"/><path fill="#ebebdc" d="m424.05258 202.80365l16.692932 0l0 16.692917l-16.692932 0z" fill-rule="evenodd"/><path fill="#ebebdc" d="m444.24585 202.80365l16.692932 0l0 16.692917l-16.692932 0z" fill-rule="evenodd"/><path fill="#47402e" d="m464.43912 202.80365l16.692902 0l0 16.692917l-16.692902 0z" fill-rule="evenodd"/><path fill="#ebebdc" d="m323.0875 222.86572l16.692902 0l0 16.692917l-16.692902 0z" fill-rule="evenodd"/><path fill="#ebebdc" d="m343.28076 222.86572l16.692902 0l0 16.692917l-16.692902 0z" fill-rule="evenodd"/><path fill="#ebebdc" d="m363.47403 222.86572l16.692902 0l0 16.692917l-16.692902 0z" fill-rule="evenodd"/><path fill="#ebebdc" d="m383.6673 222.86572l16.692902 0l0 16.692917l-16.692902 0z" fill-rule="evenodd"/><path fill="#ebebdc" d="m403.85934 222.86572l16.692902 0l0 16.692917l-16.692902 0z" fill-rule="evenodd"/><path fill="#ebebdc" d="m424.05258 222.86572l16.692932 0l0 16.692917l-16.692932 0z" fill-rule="evenodd"/><path fill="#ebebdc" d="m444.24585 222.86572l16.692932 0l0 16.692917l-16.692932 0z" fill-rule="evenodd"/><path fill="#ebebdc" d="m464.43912 222.86572l16.692902 0l0 16.692917l-16.692902 0z" fill-rule="evenodd"/><path fill="#ebebdc" d="m484.63116 202.80365l16.692902 0l0 16.692917l-16.692902 0z" fill-rule="evenodd"/><path fill="#ebebdc" d="m504.82443 202.80365l16.692902 0l0 16.692917l-16.692902 0z" fill-rule="evenodd"/><path fill="#ebebdc" d="m525.0177 202.80365l16.692932 0l0 16.692917l-16.692932 0z" fill-rule="evenodd"/><path fill="#47402e" d="m545.21094 202.80365l16.692932 0l0 16.692917l-16.692932 0z" fill-rule="evenodd"/><path fill="#47402e" d="m565.403 202.80365l16.692871 0l0 16.692917l-16.692871 0z" fill-rule="evenodd"/><path fill="#ebebdc" d="m585.59625 202.80365l16.692932 0l0 16.692917l-16.692932 0z" fill-rule="evenodd"/><path fill="#ebebdc" d="m605.78955 202.80365l16.692871 0l0 16.692917l-16.692871 0z" fill-rule="evenodd"/><path fill="#47402e" d="m625.9828 202.80365l16.692932 0l0 16.692917l-16.692932 0z" fill-rule="evenodd"/><path fill="#47402e" d="m484.63116 222.86572l16.692902 0l0 16.692917l-16.692902 0z" fill-rule="evenodd"/><path fill="#75151e" d="m504.82443 222.86572l16.692902 0l0 16.692917l-16.692902 0z" fill-rule="evenodd"/><path fill="#ebebdc" d="m525.0177 222.86572l16.692932 0l0 16.692917l-16.692932 0z" fill-rule="evenodd"/><path fill="#ebebdc" d="m545.21094 222.86572l16.692932 0l0 16.692917l-16.692932 0z" fill-rule="evenodd"/><path fill="#ebebdc" d="m565.403 222.86572l16.692871 0l0 16.692917l-16.692871 0z" fill-rule="evenodd"/><path fill="#47402e" d="m585.59625 222.86572l16.692932 0l0 16.692917l-16.692932 0z" fill-rule="evenodd"/><path fill="#47402e" d="m605.78955 222.86572l16.692871 0l0 16.692917l-16.692871 0z" fill-rule="evenodd"/><path fill="#ebebdc" d="m625.9828 222.86572l16.692932 0l0 16.692917l-16.692932 0z" fill-rule="evenodd"/><path fill="#67ca16" d="m323.0875 242.78099l16.692902 0l0 16.692917l-16.692902 0z" fill-rule="evenodd"/><path fill="#ebebdc" d="m343.28076 242.78099l16.692902 0l0 16.692917l-16.692902 0z" fill-rule="evenodd"/><path fill="#ebebdc" d="m363.47403 242.78099l16.692902 0l0 16.692917l-16.692902 0z" fill-rule="evenodd"/><path fill="#ebebdc" d="m383.6673 242.78099l16.692902 0l0 16.692917l-16.692902 0z" fill-rule="evenodd"/><path fill="#ebebdc" d="m403.85934 242.78099l16.692902 0l0 16.692917l-16.692902 0z" fill-rule="evenodd"/><path fill="#ebebdc" d="m424.05258 242.78099l16.692932 0l0 16.692917l-16.692932 0z" fill-rule="evenodd"/><path fill="#ebebdc" d="m444.24585 242.78099l16.692932 0l0 16.692917l-16.692932 0z" fill-rule="evenodd"/><path fill="#47402e" d="m464.43912 242.78099l16.692902 0l0 16.692917l-16.692902 0z" fill-rule="evenodd"/><path fill="#47402e" d="m323.0875 262.84308l16.692902 0l0 16.692902l-16.692902 0z" fill-rule="evenodd"/><path fill="#ebebdc" d="m343.28076 262.84308l16.692902 0l0 16.692902l-16.692902 0z" fill-rule="evenodd"/><path fill="#ebebdc" d="m363.47403 262.84308l16.692902 0l0 16.692902l-16.692902 0z" fill-rule="evenodd"/><path fill="#ebebdc" d="m383.6673 262.84308l16.692902 0l0 16.692902l-16.692902 0z" fill-rule="evenodd"/><path fill="#ebebdc" d="m403.85934 262.84308l16.692902 0l0 16.692902l-16.692902 0z" fill-rule="evenodd"/><path fill="#ebebdc" d="m424.05258 262.84308l16.692932 0l0 16.692902l-16.692932 0z" fill-rule="evenodd"/><path fill="#47402e" d="m444.24585 262.84308l16.692932 0l0 16.692902l-16.692932 0z" fill-rule="evenodd"/><path fill="#ebebdc" d="m464.43912 262.84308l16.692902 0l0 16.692902l-16.692902 0z" fill-rule="evenodd"/><path fill="#ebebdc" d="m484.63116 242.78099l16.692902 0l0 16.692917l-16.692902 0z" fill-rule="evenodd"/><path fill="#ebebdc" d="m504.82443 242.78099l16.692902 0l0 16.692917l-16.692902 0z" fill-rule="evenodd"/><path fill="#47402e" d="m525.0177 242.78099l16.692932 0l0 16.692917l-16.692932 0z" fill-rule="evenodd"/><path fill="#47402e" d="m545.21094 242.78099l16.692932 0l0 16.692917l-16.692932 0z" fill-rule="evenodd"/><path fill="#ebebdc" d="m565.403 242.78099l16.692871 0l0 16.692917l-16.692871 0z" fill-rule="evenodd"/><path fill="#ebebdc" d="m585.59625 242.78099l16.692932 0l0 16.692917l-16.692932 0z" fill-rule="evenodd"/><path fill="#47402e" d="m605.78955 242.78099l16.692871 0l0 16.692917l-16.692871 0z" fill-rule="evenodd"/><path fill="#47402e" d="m625.9828 242.78099l16.692932 0l0 16.692917l-16.692932 0z" fill-rule="evenodd"/><path fill="#ebebdc" d="m484.63116 262.84308l16.692902 0l0 16.692902l-16.692902 0z" fill-rule="evenodd"/><path fill="#ebebdc" d="m504.82443 262.84308l16.692902 0l0 16.692902l-16.692902 0z" fill-rule="evenodd"/><path fill="#ebebdc" d="m525.0177 262.84308l16.692932 0l0 16.692902l-16.692932 0z" fill-rule="evenodd"/><path fill="#ebebdc" d="m545.21094 262.84308l16.692932 0l0 16.692902l-16.692932 0z" fill-rule="evenodd"/><path fill="#47402e" d="m565.403 262.84308l16.692871 0l0 16.692902l-16.692871 0z" fill-rule="evenodd"/><path fill="#47402e" d="m585.59625 262.84308l16.692932 0l0 16.692902l-16.692932 0z" fill-rule="evenodd"/><path fill="#75151e" d="m605.78955 262.84308l16.692871 0l0 16.692902l-16.692871 0z" fill-rule="evenodd"/><path fill="#ebebdc" d="m625.9828 262.84308l16.692932 0l0 16.692902l-16.692932 0z" fill-rule="evenodd"/><path fill="#ebebdc" d="m323.0875 283.29654l16.692902 0l0 16.692902l-16.692902 0z" fill-rule="evenodd"/><path fill="#75151e" d="m343.28076 283.29654l16.692902 0l0 16.692902l-16.692902 0z" fill-rule="evenodd"/><path fill="#47402e" d="m363.47403 283.29654l16.692902 0l0 16.692902l-16.692902 0z" fill-rule="evenodd"/><path fill="#47402e" d="m383.6673 283.29654l16.692902 0l0 16.692902l-16.692902 0z" fill-rule="evenodd"/><path fill="#47402e" d="m403.85934 283.29654l16.692902 0l0 16.692902l-16.692902 0z" fill-rule="evenodd"/><path fill="#47402e" d="m424.05258 283.29654l16.692932 0l0 16.692902l-16.692932 0z" fill-rule="evenodd"/><path fill="#ebebdc" d="m444.24585 283.29654l16.692932 0l0 16.692902l-16.692932 0z" fill-rule="evenodd"/><path fill="#ebebdc" d="m464.43912 283.29654l16.692902 0l0 16.692902l-16.692902 0z" fill-rule="evenodd"/><path fill="#ebebdc" d="m484.63116 283.29654l16.692902 0l0 16.692902l-16.692902 0z" fill-rule="evenodd"/><path fill="#ebebdc" d="m504.82443 283.29654l16.692902 0l0 16.692902l-16.692902 0z" fill-rule="evenodd"/><path fill="#ebebdc" d="m525.0177 283.29654l16.692932 0l0 16.692902l-16.692932 0z" fill-rule="evenodd"/><path fill="#ebebdc" d="m545.21094 283.29654l16.692932 0l0 16.692902l-16.692932 0z" fill-rule="evenodd"/><path fill="#ebebdc" d="m565.403 283.29654l16.692871 0l0 16.692902l-16.692871 0z" fill-rule="evenodd"/><path fill="#ebebdc" d="m585.59625 283.29654l16.692932 0l0 16.692902l-16.692932 0z" fill-rule="evenodd"/><path fill="#ebebdc" d="m605.78955 283.29654l16.692871 0l0 16.692902l-16.692871 0z" fill-rule="evenodd"/><path fill="#ebebdc" d="m625.9828 283.29654l16.692932 0l0 16.692902l-16.692932 0z" fill-rule="evenodd"/><path fill="#ebebdc" d="m646.17535 0.91149265l16.692932 0l0 16.692913l-16.692932 0z" fill-rule="evenodd"/><path fill="#ebebdc" d="m666.36865 0.91149265l16.692871 0l0 16.692913l-16.692871 0z" fill-rule="evenodd"/><path fill="#ebebdc" d="m686.5619 0.91149265l16.692932 0l0 16.692913l-16.692932 0z" fill-rule="evenodd"/><path fill="#ebebdc" d="m706.75397 0.91149265l16.692871 0l0 16.692913l-16.692871 0z" fill-rule="evenodd"/><path fill="#ebebdc" d="m726.9472 0.91149265l16.692932 0l0 16.692913l-16.692932 0z" fill-rule="evenodd"/><path fill="#ebebdc" d="m747.14044 0.91149265l16.692932 0l0 16.692913l-16.692932 0z" fill-rule="evenodd"/><path fill="#ebebdc" d="m646.17535 20.973562l16.692932 0l0 16.692915l-16.692932 0z" fill-rule="evenodd"/><path fill="#ebebdc" d="m666.36865 20.973562l16.692871 0l0 16.692915l-16.692871 0z" fill-rule="evenodd"/><path fill="#ebebdc" d="m686.5619 20.973562l16.692932 0l0 16.692915l-16.692932 0z" fill-rule="evenodd"/><path fill="#ebebdc" d="m706.75397 20.973562l16.692871 0l0 16.692915l-16.692871 0z" fill-rule="evenodd"/><path fill="#ebebdc" d="m726.9472 20.973562l16.692932 0l0 16.692915l-16.692932 0z" fill-rule="evenodd"/><path fill="#ebebdc" d="m747.14044 20.973562l16.692932 0l0 16.692915l-16.692932 0z" fill-rule="evenodd"/><path fill="#ebebdc" d="m646.17535 41.427032l16.692932 0l0 16.692913l-16.692932 0z" fill-rule="evenodd"/><path fill="#ebebdc" d="m666.36865 41.427032l16.692871 0l0 16.692913l-16.692871 0z" fill-rule="evenodd"/><path fill="#ebebdc" d="m686.5619 41.427032l16.692932 0l0 16.692913l-16.692932 0z" fill-rule="evenodd"/><path fill="#ebebdc" d="m706.75397 41.427032l16.692871 0l0 16.692913l-16.692871 0z" fill-rule="evenodd"/><path fill="#ebebdc" d="m726.9472 41.427032l16.692932 0l0 16.692913l-16.692932 0z" fill-rule="evenodd"/><path fill="#ebebdc" d="m747.14044 41.427032l16.692932 0l0 16.692913l-16.692932 0z" fill-rule="evenodd"/><path fill="#ebebdc" d="m646.17535 61.4891l16.692932 0l0 16.692913l-16.692932 0z" fill-rule="evenodd"/><path fill="#ebebdc" d="m666.36865 61.4891l16.692871 0l0 16.692913l-16.692871 0z" fill-rule="evenodd"/><path fill="#ebebdc" d="m686.5619 61.4891l16.692932 0l0 16.692913l-16.692932 0z" fill-rule="evenodd"/><path fill="#ebebdc" d="m706.75397 61.4891l16.692871 0l0 16.692913l-16.692871 0z" fill-rule="evenodd"/><path fill="#ebebdc" d="m726.9472 61.4891l16.692932 0l0 16.692913l-16.692932 0z" fill-rule="evenodd"/><path fill="#ebebdc" d="m747.14044 61.4891l16.692932 0l0 16.692913l-16.692932 0z" fill-rule="evenodd"/><path fill="#ebebdc" d="m646.17535 81.40437l16.692932 0l0 16.692917l-16.692932 0z" fill-rule="evenodd"/><path fill="#ebebdc" d="m666.36865 81.40437l16.692871 0l0 16.692917l-16.692871 0z" fill-rule="evenodd"/><path fill="#ebebdc" d="m686.5619 81.40437l16.692932 0l0 16.692917l-16.692932 0z" fill-rule="evenodd"/><path fill="#ebebdc" d="m706.75397 81.40437l16.692871 0l0 16.692917l-16.692871 0z" fill-rule="evenodd"/><path fill="#ebebdc" d="m726.9472 81.40437l16.692932 0l0 16.692917l-16.692932 0z" fill-rule="evenodd"/><path fill="#ebebdc" d="m747.14044 81.40437l16.692932 0l0 16.692917l-16.692932 0z" fill-rule="evenodd"/><path fill="#ebebdc" d="m646.17535 101.466446l16.692932 0l0 16.69291l-16.692932 0z" fill-rule="evenodd"/><path fill="#ebebdc" d="m666.36865 101.466446l16.692871 0l0 16.69291l-16.692871 0z" fill-rule="evenodd"/><path fill="#ebebdc" d="m686.5619 101.466446l16.692932 0l0 16.69291l-16.692932 0z" fill-rule="evenodd"/><path fill="#ebebdc" d="m706.75397 101.466446l16.692871 0l0 16.69291l-16.692871 0z" fill-rule="evenodd"/><path fill="#ebebdc" d="m726.9472 101.466446l16.692932 0l0 16.69291l-16.692932 0z" fill-rule="evenodd"/><path fill="#ebebdc" d="m747.14044 101.466446l16.692932 0l0 16.69291l-16.692932 0z" fill-rule="evenodd"/><path fill="#ebebdc" d="m646.17535 121.919914l16.692932 0l0 16.69291l-16.692932 0z" fill-rule="evenodd"/><path fill="#ebebdc" d="m666.36865 121.919914l16.692871 0l0 16.69291l-16.692871 0z" fill-rule="evenodd"/><path fill="#ebebdc" d="m686.5619 121.919914l16.692932 0l0 16.69291l-16.692932 0z" fill-rule="evenodd"/><path fill="#ebebdc" d="m706.75397 121.919914l16.692871 0l0 16.69291l-16.692871 0z" fill-rule="evenodd"/><path fill="#ebebdc" d="m726.9472 121.919914l16.692932 0l0 16.69291l-16.692932 0z" fill-rule="evenodd"/><path fill="#ebebdc" d="m747.14044 121.919914l16.692932 0l0 16.69291l-16.692932 0z" fill-rule="evenodd"/><path fill="#ebebdc" d="m646.17535 141.98198l16.692932 0l0 16.692917l-16.692932 0z" fill-rule="evenodd"/><path fill="#ebebdc" d="m666.36865 141.98198l16.692871 0l0 16.692917l-16.692871 0z" fill-rule="evenodd"/><path fill="#ebebdc" d="m686.5619 141.98198l16.692932 0l0 16.692917l-16.692932 0z" fill-rule="evenodd"/><path fill="#ebebdc" d="m706.75397 141.98198l16.692871 0l0 16.692917l-16.692871 0z" fill-rule="evenodd"/><path fill="#ebebdc" d="m726.9472 141.98198l16.692932 0l0 16.692917l-16.692932 0z" fill-rule="evenodd"/><path fill="#ebebdc" d="m747.14044 141.98198l16.692932 0l0 16.692917l-16.692932 0z" fill-rule="evenodd"/><path fill="#ebebdc" d="m646.17535 162.28812l16.692932 0l0 16.692917l-16.692932 0z" fill-rule="evenodd"/><path fill="#ebebdc" d="m666.36865 162.28812l16.692871 0l0 16.692917l-16.692871 0z" fill-rule="evenodd"/><path fill="#ebebdc" d="m686.5619 162.28812l16.692932 0l0 16.692917l-16.692932 0z" fill-rule="evenodd"/><path fill="#ebebdc" d="m706.75397 162.28812l16.692871 0l0 16.692917l-16.692871 0z" fill-rule="evenodd"/><path fill="#ebebdc" d="m726.9472 162.28812l16.692932 0l0 16.692917l-16.692932 0z" fill-rule="evenodd"/><path fill="#ebebdc" d="m747.14044 162.28812l16.692932 0l0 16.692917l-16.692932 0z" fill-rule="evenodd"/><path fill="#ebebdc" d="m646.17535 182.35019l16.692932 0l0 16.692902l-16.692932 0z" fill-rule="evenodd"/><path fill="#ebebdc" d="m666.36865 182.35019l16.692871 0l0 16.692902l-16.692871 0z" fill-rule="evenodd"/><path fill="#ebebdc" d="m686.5619 182.35019l16.692932 0l0 16.692902l-16.692932 0z" fill-rule="evenodd"/><path fill="#ebebdc" d="m706.75397 182.35019l16.692871 0l0 16.692902l-16.692871 0z" fill-rule="evenodd"/><path fill="#ebebdc" d="m726.9472 182.35019l16.692932 0l0 16.692902l-16.692932 0z" fill-rule="evenodd"/><path fill="#ebebdc" d="m747.14044 182.35019l16.692932 0l0 16.692902l-16.692932 0z" fill-rule="evenodd"/><path fill="#ebebdc" d="m646.17535 202.80365l16.692932 0l0 16.692917l-16.692932 0z" fill-rule="evenodd"/><path fill="#ebebdc" d="m666.36865 202.80365l16.692871 0l0 16.692917l-16.692871 0z" fill-rule="evenodd"/><path fill="#ebebdc" d="m686.5619 202.80365l16.692932 0l0 16.692917l-16.692932 0z" fill-rule="evenodd"/><path fill="#ebebdc" d="m706.75397 202.80365l16.692871 0l0 16.692917l-16.692871 0z" fill-rule="evenodd"/><path fill="#ebebdc" d="m726.9472 202.80365l16.692932 0l0 16.692917l-16.692932 0z" fill-rule="evenodd"/><path fill="#ebebdc" d="m747.14044 202.80365l16.692932 0l0 16.692917l-16.692932 0z" fill-rule="evenodd"/><path fill="#47402e" d="m646.17535 222.86572l16.692932 0l0 16.692917l-16.692932 0z" fill-rule="evenodd"/><path fill="#ebebdc" d="m666.36865 222.86572l16.692871 0l0 16.692917l-16.692871 0z" fill-rule="evenodd"/><path fill="#ebebdc" d="m686.5619 222.86572l16.692932 0l0 16.692917l-16.692932 0z" fill-rule="evenodd"/><path fill="#ebebdc" d="m706.75397 222.86572l16.692871 0l0 16.692917l-16.692871 0z" fill-rule="evenodd"/><path fill="#ebebdc" d="m726.9472 222.86572l16.692932 0l0 16.692917l-16.692932 0z" fill-rule="evenodd"/><path fill="#ebebdc" d="m747.14044 222.86572l16.692932 0l0 16.692917l-16.692932 0z" fill-rule="evenodd"/><path fill="#47402e" d="m646.17535 242.78099l16.692932 0l0 16.692917l-16.692932 0z" fill-rule="evenodd"/><path fill="#47402e" d="m666.36865 242.78099l16.692871 0l0 16.692917l-16.692871 0z" fill-rule="evenodd"/><path fill="#ebebdc" d="m686.5619 242.78099l16.692932 0l0 16.692917l-16.692932 0z" fill-rule="evenodd"/><path fill="#ebebdc" d="m706.75397 242.78099l16.692871 0l0 16.692917l-16.692871 0z" fill-rule="evenodd"/><path fill="#ebebdc" d="m726.9472 242.78099l16.692932 0l0 16.692917l-16.692932 0z" fill-rule="evenodd"/><path fill="#ebebdc" d="m747.14044 242.78099l16.692932 0l0 16.692917l-16.692932 0z" fill-rule="evenodd"/><path fill="#47402e" d="m646.17535 262.84308l16.692932 0l0 16.692902l-16.692932 0z" fill-rule="evenodd"/><path fill="#ebebdc" d="m666.36865 262.84308l16.692871 0l0 16.692902l-16.692871 0z" fill-rule="evenodd"/><path fill="#47402e" d="m686.5619 262.84308l16.692932 0l0 16.692902l-16.692932 0z" fill-rule="evenodd"/><path fill="#47402e" d="m706.75397 262.84308l16.692871 0l0 16.692902l-16.692871 0z" fill-rule="evenodd"/><path fill="#ebebdc" d="m726.9472 262.84308l16.692932 0l0 16.692902l-16.692932 0z" fill-rule="evenodd"/><path fill="#ebebdc" d="m747.14044 262.84308l16.692932 0l0 16.692902l-16.692932 0z" fill-rule="evenodd"/><path fill="#ebebdc" d="m646.17535 283.29654l16.692932 0l0 16.692902l-16.692932 0z" fill-rule="evenodd"/><path fill="#47402e" d="m666.36865 283.29654l16.692871 0l0 16.692902l-16.692871 0z" fill-rule="evenodd"/><path fill="#75151e" d="m686.5619 283.29654l16.692932 0l0 16.692902l-16.692932 0z" fill-rule="evenodd"/><path fill="#47402e" d="m706.75397 283.29654l16.692871 0l0 16.692902l-16.692871 0z" fill-rule="evenodd"/><path fill="#47402e" d="m726.9472 283.29654l16.692932 0l0 16.692902l-16.692932 0z" fill-rule="evenodd"/><path fill="#47402e" d="m747.14044 283.29654l16.692932 0l0 16.692902l-16.692932 0z" fill-rule="evenodd"/><path fill="#ebebdc" d="m767.54285 0.91149265l16.692932 0l0 16.692913l-16.692932 0z" fill-rule="evenodd"/><path fill="#ebebdc" d="m767.54285 20.973562l16.692932 0l0 16.692915l-16.692932 0z" fill-rule="evenodd"/><path fill="#ebebdc" d="m767.54285 41.427032l16.692932 0l0 16.692913l-16.692932 0z" fill-rule="evenodd"/><path fill="#ebebdc" d="m767.54285 61.4891l16.692932 0l0 16.692913l-16.692932 0z" fill-rule="evenodd"/><path fill="#ebebdc" d="m767.54285 81.40437l16.692932 0l0 16.692917l-16.692932 0z" fill-rule="evenodd"/><path fill="#ebebdc" d="m767.54285 101.466446l16.692932 0l0 16.69291l-16.692932 0z" fill-rule="evenodd"/><path fill="#ebebdc" d="m767.54285 121.919914l16.692932 0l0 16.69291l-16.692932 0z" fill-rule="evenodd"/><path fill="#ebebdc" d="m767.54285 141.98198l16.692932 0l0 16.692917l-16.692932 0z" fill-rule="evenodd"/><path fill="#ebebdc" d="m767.54285 162.28812l16.692932 0l0 16.692917l-16.692932 0z" fill-rule="evenodd"/><path fill="#ebebdc" d="m767.54285 182.35019l16.692932 0l0 16.692902l-16.692932 0z" fill-rule="evenodd"/><path fill="#ebebdc" d="m767.54285 202.80365l16.692932 0l0 16.692917l-16.692932 0z" fill-rule="evenodd"/><path fill="#ebebdc" d="m767.54285 222.86572l16.692932 0l0 16.692917l-16.692932 0z" fill-rule="evenodd"/><path fill="#ebebdc" d="m767.54285 242.78099l16.692932 0l0 16.692917l-16.692932 0z" fill-rule="evenodd"/><path fill="#ebebdc" d="m767.54285 262.84308l16.692932 0l0 16.692902l-16.692932 0z" fill-rule="evenodd"/><path fill="#ebebdc" d="m767.54285 283.29654l16.692932 0l0 16.692902l-16.692932 0z" fill-rule="evenodd"/><path fill="#ebebdc" d="m794.2228 1.863517E-5l16.692932 0l0 16.692913l-16.692932 0z" fill-rule="evenodd"/><path fill="#ebebdc" d="m794.2228 20.062088l16.692932 0l0 16.692913l-16.692932 0z" fill-rule="evenodd"/><path fill="#ebebdc" d="m794.2228 40.515556l16.692932 0l0 16.692913l-16.692932 0z" fill-rule="evenodd"/><path fill="#ebebdc" d="m794.2228 60.57763l16.692932 0l0 16.69291l-16.692932 0z" fill-rule="evenodd"/><path fill="#ebebdc" d="m794.2228 80.4929l16.692932 0l0 16.692917l-16.692932 0z" fill-rule="evenodd"/><path fill="#ebebdc" d="m794.2228 100.55497l16.692932 0l0 16.69291l-16.692932 0z" fill-rule="evenodd"/><path fill="#ebebdc" d="m794.2228 121.00844l16.692932 0l0 16.692917l-16.692932 0z" fill-rule="evenodd"/><path fill="#ebebdc" d="m794.2228 141.07051l16.692932 0l0 16.692917l-16.692932 0z" fill-rule="evenodd"/><path fill="#ebebdc" d="m794.2228 161.37665l16.692932 0l0 16.692902l-16.692932 0z" fill-rule="evenodd"/><path fill="#ebebdc" d="m794.2228 181.4387l16.692932 0l0 16.692917l-16.692932 0z" fill-rule="evenodd"/><path fill="#ebebdc" d="m794.2228 201.89218l16.692932 0l0 16.692917l-16.692932 0z" fill-rule="evenodd"/><path fill="#ebebdc" d="m794.2228 221.95425l16.692932 0l0 16.692902l-16.692932 0z" fill-rule="evenodd"/><path fill="#ebebdc" d="m794.2228 241.86952l16.692932 0l0 16.692917l-16.692932 0z" fill-rule="evenodd"/><path fill="#ebebdc" d="m794.2228 261.93158l16.692932 0l0 16.692932l-16.692932 0z" fill-rule="evenodd"/><path fill="#ebebdc" d="m794.2228 282.38507l16.692932 0l0 16.692902l-16.692932 0z" fill-rule="evenodd"/><path fill="#ebebdc" d="m821.11 1.863517E-5l16.692932 0l0 16.692913l-16.692932 0z" fill-rule="evenodd"/><path fill="#ebebdc" d="m821.11 20.062088l16.692932 0l0 16.692913l-16.692932 0z" fill-rule="evenodd"/><path fill="#ebebdc" d="m821.11 40.515556l16.692932 0l0 16.692913l-16.692932 0z" fill-rule="evenodd"/><path fill="#ebebdc" d="m821.11 60.57763l16.692932 0l0 16.69291l-16.692932 0z" fill-rule="evenodd"/><path fill="#ebebdc" d="m821.11 80.4929l16.692932 0l0 16.692917l-16.692932 0z" fill-rule="evenodd"/><path fill="#ebebdc" d="m821.11 100.55497l16.692932 0l0 16.69291l-16.692932 0z" fill-rule="evenodd"/><path fill="#ebebdc" d="m821.11 121.00844l16.692932 0l0 16.692917l-16.692932 0z" fill-rule="evenodd"/><path fill="#ebebdc" d="m821.11 141.07051l16.692932 0l0 16.692917l-16.692932 0z" fill-rule="evenodd"/><path fill="#ebebdc" d="m821.11 161.37665l16.692932 0l0 16.692902l-16.692932 0z" fill-rule="evenodd"/><path fill="#ebebdc" d="m821.11 181.4387l16.692932 0l0 16.692917l-16.692932 0z" fill-rule="evenodd"/><path fill="#ebebdc" d="m821.11 201.89218l16.692932 0l0 16.692917l-16.692932 0z" fill-rule="evenodd"/><path fill="#ebebdc" d="m821.11 221.95425l16.692932 0l0 16.692902l-16.692932 0z" fill-rule="evenodd"/><path fill="#ebebdc" d="m821.11 241.86952l16.692932 0l0 16.692917l-16.692932 0z" fill-rule="evenodd"/><path fill="#ebebdc" d="m821.11 261.93158l16.692932 0l0 16.692932l-16.692932 0z" fill-rule="evenodd"/><path fill="#ebebdc" d="m821.11 282.38507l16.692932 0l0 16.692902l-16.692932 0z" fill-rule="evenodd"/><path fill="#ebebdc" d="m843.0018 1.863517E-5l16.692871 0l0 16.692913l-16.692871 0z" fill-rule="evenodd"/><path fill="#ebebdc" d="m843.0018 20.062088l16.692871 0l0 16.692913l-16.692871 0z" fill-rule="evenodd"/><path fill="#ebebdc" d="m843.0018 40.515556l16.692871 0l0 16.692913l-16.692871 0z" fill-rule="evenodd"/><path fill="#ebebdc" d="m843.0018 60.57763l16.692871 0l0 16.69291l-16.692871 0z" fill-rule="evenodd"/><path fill="#ebebdc" d="m843.0018 80.4929l16.692871 0l0 16.692917l-16.692871 0z" fill-rule="evenodd"/><path fill="#ebebdc" d="m843.0018 100.55497l16.692871 0l0 16.69291l-16.692871 0z" fill-rule="evenodd"/><path fill="#ebebdc" d="m843.0018 121.00844l16.692871 0l0 16.692917l-16.692871 0z" fill-rule="evenodd"/><path fill="#ebebdc" d="m843.0018 141.07051l16.692871 0l0 16.692917l-16.692871 0z" fill-rule="evenodd"/><path fill="#ebebdc" d="m843.0018 161.37665l16.692871 0l0 16.692902l-16.692871 0z" fill-rule="evenodd"/><path fill="#ebebdc" d="m843.0018 181.4387l16.692871 0l0 16.692917l-16.692871 0z" fill-rule="evenodd"/><path fill="#ebebdc" d="m843.0018 201.89218l16.692871 0l0 16.692917l-16.692871 0z" fill-rule="evenodd"/><path fill="#ebebdc" d="m843.0018 221.95425l16.692871 0l0 16.692902l-16.692871 0z" fill-rule="evenodd"/><path fill="#ebebdc" d="m843.0018 241.86952l16.692871 0l0 16.692917l-16.692871 0z" fill-rule="evenodd"/><path fill="#ebebdc" d="m843.0018 261.93158l16.692871 0l0 16.692932l-16.692871 0z" fill-rule="evenodd"/><path fill="#ebebdc" d="m843.0018 282.38507l16.692871 0l0 16.692902l-16.692871 0z" fill-rule="evenodd"/><path fill="#ebebdc" d="m864.89417 -0.12202861l16.692871 0l0 16.692913l-16.692871 0z" fill-rule="evenodd"/><path fill="#ebebdc" d="m864.89417 19.94004l16.692871 0l0 16.692913l-16.692871 0z" fill-rule="evenodd"/><path fill="#ebebdc" d="m864.89417 40.39351l16.692871 0l0 16.692913l-16.692871 0z" fill-rule="evenodd"/><path fill="#ebebdc" d="m864.89417 60.45558l16.692871 0l0 16.69291l-16.692871 0z" fill-rule="evenodd"/><path fill="#ebebdc" d="m864.89417 80.37085l16.692871 0l0 16.692917l-16.692871 0z" fill-rule="evenodd"/><path fill="#ebebdc" d="m864.89417 100.43292l16.692871 0l0 16.69291l-16.692871 0z" fill-rule="evenodd"/><path fill="#ebebdc" d="m864.89417 120.88639l16.692871 0l0 16.69291l-16.692871 0z" fill-rule="evenodd"/><path fill="#ebebdc" d="m864.89417 140.94846l16.692871 0l0 16.692917l-16.692871 0z" fill-rule="evenodd"/><path fill="#ebebdc" d="m864.89417 161.2546l16.692871 0l0 16.692917l-16.692871 0z" fill-rule="evenodd"/><path fill="#ebebdc" d="m864.89417 181.31667l16.692871 0l0 16.692917l-16.692871 0z" fill-rule="evenodd"/><path fill="#ebebdc" d="m864.89417 201.77013l16.692871 0l0 16.692917l-16.692871 0z" fill-rule="evenodd"/><path fill="#ebebdc" d="m864.89417 221.8322l16.692871 0l0 16.692917l-16.692871 0z" fill-rule="evenodd"/><path fill="#ebebdc" d="m864.89417 241.74747l16.692871 0l0 16.692932l-16.692871 0z" fill-rule="evenodd"/><path fill="#ebebdc" d="m864.89417 261.80954l16.692871 0l0 16.692932l-16.692871 0z" fill-rule="evenodd"/><path fill="#ebebdc" d="m864.89417 282.263l16.692871 0l0 16.692932l-16.692871 0z" fill-rule="evenodd"/><path fill="#ebebdc" d="m891.78125 -2.7781966l16.692932 0l0 16.692913l-16.692932 0z" fill-rule="evenodd"/><path fill="#ebebdc" d="m891.78125 17.283873l16.692932 0l0 16.692915l-16.692932 0z" fill-rule="evenodd"/><path fill="#ebebdc" d="m891.78125 37.737343l16.692932 0l0 16.692913l-16.692932 0z" fill-rule="evenodd"/><path fill="#ebebdc" d="m891.78125 57.79941l16.692932 0l0 16.692913l-16.692932 0z" fill-rule="evenodd"/><path fill="#ebebdc" d="m891.78125 77.71468l16.692932 0l0 16.692917l-16.692932 0z" fill-rule="evenodd"/><path fill="#ebebdc" d="m891.78125 97.77676l16.692932 0l0 16.69291l-16.692932 0z" fill-rule="evenodd"/><path fill="#ebebdc" d="m891.78125 118.230225l16.692932 0l0 16.692917l-16.692932 0z" fill-rule="evenodd"/><path fill="#ebebdc" d="m891.78125 138.2923l16.692932 0l0 16.692902l-16.692932 0z" fill-rule="evenodd"/><path fill="#ebebdc" d="m891.78125 158.59842l16.692932 0l0 16.692917l-16.692932 0z" fill-rule="evenodd"/><path fill="#ebebdc" d="m891.78125 178.66049l16.692932 0l0 16.692917l-16.692932 0z" fill-rule="evenodd"/><path fill="#ebebdc" d="m891.78125 199.11397l16.692932 0l0 16.692917l-16.692932 0z" fill-rule="evenodd"/><path fill="#ebebdc" d="m891.78125 219.17604l16.692932 0l0 16.692902l-16.692932 0z" fill-rule="evenodd"/><path fill="#ebebdc" d="m891.78125 239.09131l16.692932 0l0 16.692917l-16.692932 0z" fill-rule="evenodd"/><path fill="#ebebdc" d="m891.78125 259.15338l16.692932 0l0 16.692902l-16.692932 0z" fill-rule="evenodd"/><path fill="#ebebdc" d="m891.78125 279.60684l16.692932 0l0 16.692902l-16.692932 0z" fill-rule="evenodd"/><path fill="#ebebdc" d="m918.6684 0.7887325l16.692932 0l0 16.692913l-16.692932 0z" fill-rule="evenodd"/><path fill="#ebebdc" d="m918.6684 20.850803l16.692932 0l0 16.692913l-16.692932 0z" fill-rule="evenodd"/><path fill="#ebebdc" d="m918.6684 41.30427l16.692932 0l0 16.692913l-16.692932 0z" fill-rule="evenodd"/><path fill="#ebebdc" d="m918.6684 61.36634l16.692932 0l0 16.692917l-16.692932 0z" fill-rule="evenodd"/><path fill="#ebebdc" d="m918.6684 81.28162l16.692932 0l0 16.69291l-16.692932 0z" fill-rule="evenodd"/><path fill="#ebebdc" d="m918.6684 101.34368l16.692932 0l0 16.692917l-16.692932 0z" fill-rule="evenodd"/><path fill="#ebebdc" d="m918.6684 121.79715l16.692932 0l0 16.692917l-16.692932 0z" fill-rule="evenodd"/><path fill="#ebebdc" d="m918.6684 141.85922l16.692932 0l0 16.692917l-16.692932 0z" fill-rule="evenodd"/><path fill="#ebebdc" d="m918.6684 162.16536l16.692932 0l0 16.692902l-16.692932 0z" fill-rule="evenodd"/><path fill="#ebebdc" d="m918.6684 182.22743l16.692932 0l0 16.692902l-16.692932 0z" fill-rule="evenodd"/><path fill="#ebebdc" d="m918.6684 202.6809l16.692932 0l0 16.692917l-16.692932 0z" fill-rule="evenodd"/><path fill="#ebebdc" d="m918.6684 222.74297l16.692932 0l0 16.692917l-16.692932 0z" fill-rule="evenodd"/><path fill="#ebebdc" d="m918.6684 242.65823l16.692932 0l0 16.692902l-16.692932 0z" fill-rule="evenodd"/><path fill="#ebebdc" d="m918.6684 262.7203l16.692932 0l0 16.692902l-16.692932 0z" fill-rule="evenodd"/><path fill="#ebebdc" d="m918.6684 283.17377l16.692932 0l0 16.692932l-16.692932 0z" fill-rule="evenodd"/><path fill="#ebebdc" d="m940.5608 0.46064857l16.692932 0l0 16.692913l-16.692932 0z" fill-rule="evenodd"/><path fill="#ebebdc" d="m940.5608 20.522718l16.692932 0l0 16.692915l-16.692932 0z" fill-rule="evenodd"/><path fill="#ebebdc" d="m940.5608 40.97619l16.692932 0l0 16.692913l-16.692932 0z" fill-rule="evenodd"/><path fill="#ebebdc" d="m940.5608 61.038258l16.692932 0l0 16.692913l-16.692932 0z" fill-rule="evenodd"/><path fill="#ebebdc" d="m940.5608 80.95353l16.692932 0l0 16.69291l-16.692932 0z" fill-rule="evenodd"/><path fill="#ebebdc" d="m940.5608 101.0156l16.692932 0l0 16.69291l-16.692932 0z" fill-rule="evenodd"/><path fill="#ebebdc" d="m940.5608 121.46907l16.692932 0l0 16.692917l-16.692932 0z" fill-rule="evenodd"/><path fill="#ebebdc" d="m940.5608 141.53114l16.692932 0l0 16.692902l-16.692932 0z" fill-rule="evenodd"/><path fill="#ebebdc" d="m940.5608 161.83727l16.692932 0l0 16.692917l-16.692932 0z" fill-rule="evenodd"/><path fill="#ebebdc" d="m940.5608 181.89934l16.692932 0l0 16.692917l-16.692932 0z" fill-rule="evenodd"/><path fill="#ebebdc" d="m940.5608 202.35281l16.692932 0l0 16.692917l-16.692932 0z" fill-rule="evenodd"/><path fill="#ebebdc" d="m940.5608 222.41489l16.692932 0l0 16.692902l-16.692932 0z" fill-rule="evenodd"/><path fill="#ebebdc" d="m940.5608 242.33015l16.692932 0l0 16.692917l-16.692932 0z" fill-rule="evenodd"/><path fill="#ebebdc" d="m940.5608 262.3922l16.692932 0l0 16.692932l-16.692932 0z" fill-rule="evenodd"/><path fill="#ebebdc" d="m940.5608 282.8457l16.692932 0l0 16.692902l-16.692932 0z" fill-rule="evenodd"/></g></svg>